%TF.GenerationSoftware,KiCad,Pcbnew,(6.0.7)*%
%TF.CreationDate,2023-02-05T05:32:13+01:00*%
%TF.ProjectId,DaVinciKbd,44615669-6e63-4694-9b62-642e6b696361,rev?*%
%TF.SameCoordinates,Original*%
%TF.FileFunction,Drillmap*%
%TF.FilePolarity,Positive*%
%FSLAX45Y45*%
G04 Gerber Fmt 4.5, Leading zero omitted, Abs format (unit mm)*
G04 Created by KiCad (PCBNEW (6.0.7)) date 2023-02-05 05:32:13*
%MOMM*%
%LPD*%
G01*
G04 APERTURE LIST*
%ADD10C,0.150000*%
%ADD11C,0.200000*%
%ADD12C,0.060000*%
%ADD13C,0.300000*%
%ADD14C,0.360000*%
%ADD15C,0.400000*%
G04 APERTURE END LIST*
D10*
X23500000Y-16250000D02*
G75*
G03*
X23750000Y-16000000I0J250000D01*
G01*
X23500000Y-16250000D02*
X2500000Y-16250000D01*
D11*
X23750000Y-13500000D02*
X23750000Y-16000000D01*
D10*
X2250000Y-4000000D02*
X2250000Y-16000000D01*
D11*
X23750000Y-13000000D02*
X23750000Y-4000000D01*
D10*
X2500000Y-3750000D02*
X23500000Y-3750000D01*
D11*
X23750000Y-13000000D02*
X23750000Y-13500000D01*
X23050000Y-13000000D02*
G75*
G03*
X23050000Y-13000000I-2250000J0D01*
G01*
D10*
X23750000Y-4000000D02*
G75*
G03*
X23500000Y-3750000I-250000J0D01*
G01*
X2500000Y-3750000D02*
G75*
G03*
X2250000Y-4000000I0J-250000D01*
G01*
X2250000Y-16000000D02*
G75*
G03*
X2500000Y-16250000I250000J0D01*
G01*
D11*
D12*
X12781000Y-4295000D02*
X12841000Y-4355000D01*
X12841000Y-4295000D02*
X12781000Y-4355000D01*
X13359000Y-4295000D02*
X13419000Y-4355000D01*
X13419000Y-4295000D02*
X13359000Y-4355000D01*
D13*
X3296000Y-5208000D02*
G75*
G03*
X3296000Y-5208000I-150000J0D01*
G01*
X3296000Y-7108000D02*
G75*
G03*
X3296000Y-7108000I-150000J0D01*
G01*
X3296000Y-12008000D02*
G75*
G03*
X3296000Y-12008000I-150000J0D01*
G01*
X3296000Y-13908000D02*
G75*
G03*
X3296000Y-13908000I-150000J0D01*
G01*
X3296000Y-15808000D02*
G75*
G03*
X3296000Y-15808000I-150000J0D01*
G01*
X3771000Y-10108000D02*
G75*
G03*
X3771000Y-10108000I-150000J0D01*
G01*
X3931000Y-4954000D02*
G75*
G03*
X3931000Y-4954000I-150000J0D01*
G01*
X3931000Y-6854000D02*
G75*
G03*
X3931000Y-6854000I-150000J0D01*
G01*
X3931000Y-11754000D02*
G75*
G03*
X3931000Y-11754000I-150000J0D01*
G01*
X3931000Y-13654000D02*
G75*
G03*
X3931000Y-13654000I-150000J0D01*
G01*
X3931000Y-15554000D02*
G75*
G03*
X3931000Y-15554000I-150000J0D01*
G01*
X4406000Y-9854000D02*
G75*
G03*
X4406000Y-9854000I-150000J0D01*
G01*
X5196000Y-5208000D02*
G75*
G03*
X5196000Y-5208000I-150000J0D01*
G01*
X5196000Y-7108000D02*
G75*
G03*
X5196000Y-7108000I-150000J0D01*
G01*
X5196000Y-12008000D02*
G75*
G03*
X5196000Y-12008000I-150000J0D01*
G01*
X5196000Y-13908000D02*
G75*
G03*
X5196000Y-13908000I-150000J0D01*
G01*
X5196000Y-15808000D02*
G75*
G03*
X5196000Y-15808000I-150000J0D01*
G01*
X5831000Y-4954000D02*
G75*
G03*
X5831000Y-4954000I-150000J0D01*
G01*
X5831000Y-6854000D02*
G75*
G03*
X5831000Y-6854000I-150000J0D01*
G01*
X5831000Y-11754000D02*
G75*
G03*
X5831000Y-11754000I-150000J0D01*
G01*
X5831000Y-13654000D02*
G75*
G03*
X5831000Y-13654000I-150000J0D01*
G01*
X5831000Y-15554000D02*
G75*
G03*
X5831000Y-15554000I-150000J0D01*
G01*
X6626000Y-10108000D02*
G75*
G03*
X6626000Y-10108000I-150000J0D01*
G01*
X7096000Y-5208000D02*
G75*
G03*
X7096000Y-5208000I-150000J0D01*
G01*
X7096000Y-7108000D02*
G75*
G03*
X7096000Y-7108000I-150000J0D01*
G01*
X7096000Y-12008000D02*
G75*
G03*
X7096000Y-12008000I-150000J0D01*
G01*
X7096000Y-13908000D02*
G75*
G03*
X7096000Y-13908000I-150000J0D01*
G01*
X7096000Y-15808000D02*
G75*
G03*
X7096000Y-15808000I-150000J0D01*
G01*
X7261000Y-9854000D02*
G75*
G03*
X7261000Y-9854000I-150000J0D01*
G01*
X7731000Y-4954000D02*
G75*
G03*
X7731000Y-4954000I-150000J0D01*
G01*
X7731000Y-6854000D02*
G75*
G03*
X7731000Y-6854000I-150000J0D01*
G01*
X7731000Y-11754000D02*
G75*
G03*
X7731000Y-11754000I-150000J0D01*
G01*
X7731000Y-13654000D02*
G75*
G03*
X7731000Y-13654000I-150000J0D01*
G01*
X7731000Y-15554000D02*
G75*
G03*
X7731000Y-15554000I-150000J0D01*
G01*
X10096000Y-5208000D02*
G75*
G03*
X10096000Y-5208000I-150000J0D01*
G01*
X10096000Y-7108000D02*
G75*
G03*
X10096000Y-7108000I-150000J0D01*
G01*
X10096000Y-10108000D02*
G75*
G03*
X10096000Y-10108000I-150000J0D01*
G01*
X10096000Y-12008000D02*
G75*
G03*
X10096000Y-12008000I-150000J0D01*
G01*
X10096000Y-13908000D02*
G75*
G03*
X10096000Y-13908000I-150000J0D01*
G01*
X10731000Y-4954000D02*
G75*
G03*
X10731000Y-4954000I-150000J0D01*
G01*
X10731000Y-6854000D02*
G75*
G03*
X10731000Y-6854000I-150000J0D01*
G01*
X10731000Y-9854000D02*
G75*
G03*
X10731000Y-9854000I-150000J0D01*
G01*
X10731000Y-11754000D02*
G75*
G03*
X10731000Y-11754000I-150000J0D01*
G01*
X10731000Y-13654000D02*
G75*
G03*
X10731000Y-13654000I-150000J0D01*
G01*
X11756000Y-15808000D02*
G75*
G03*
X11756000Y-15808000I-150000J0D01*
G01*
X11996000Y-5208000D02*
G75*
G03*
X11996000Y-5208000I-150000J0D01*
G01*
X11996000Y-7108000D02*
G75*
G03*
X11996000Y-7108000I-150000J0D01*
G01*
X11996000Y-10108000D02*
G75*
G03*
X11996000Y-10108000I-150000J0D01*
G01*
X11996000Y-12008000D02*
G75*
G03*
X11996000Y-12008000I-150000J0D01*
G01*
X11996000Y-13908000D02*
G75*
G03*
X11996000Y-13908000I-150000J0D01*
G01*
X12391000Y-15554000D02*
G75*
G03*
X12391000Y-15554000I-150000J0D01*
G01*
X12631000Y-4954000D02*
G75*
G03*
X12631000Y-4954000I-150000J0D01*
G01*
X12631000Y-6854000D02*
G75*
G03*
X12631000Y-6854000I-150000J0D01*
G01*
X12631000Y-9854000D02*
G75*
G03*
X12631000Y-9854000I-150000J0D01*
G01*
X12631000Y-11754000D02*
G75*
G03*
X12631000Y-11754000I-150000J0D01*
G01*
X12631000Y-13654000D02*
G75*
G03*
X12631000Y-13654000I-150000J0D01*
G01*
X13896000Y-5208000D02*
G75*
G03*
X13896000Y-5208000I-150000J0D01*
G01*
X13896000Y-7108000D02*
G75*
G03*
X13896000Y-7108000I-150000J0D01*
G01*
X13896000Y-10108000D02*
G75*
G03*
X13896000Y-10108000I-150000J0D01*
G01*
X13896000Y-12008000D02*
G75*
G03*
X13896000Y-12008000I-150000J0D01*
G01*
X13896000Y-13908000D02*
G75*
G03*
X13896000Y-13908000I-150000J0D01*
G01*
X14531000Y-4954000D02*
G75*
G03*
X14531000Y-4954000I-150000J0D01*
G01*
X14531000Y-6854000D02*
G75*
G03*
X14531000Y-6854000I-150000J0D01*
G01*
X14531000Y-9854000D02*
G75*
G03*
X14531000Y-9854000I-150000J0D01*
G01*
X14531000Y-11754000D02*
G75*
G03*
X14531000Y-11754000I-150000J0D01*
G01*
X14531000Y-13654000D02*
G75*
G03*
X14531000Y-13654000I-150000J0D01*
G01*
X15566000Y-15808000D02*
G75*
G03*
X15566000Y-15808000I-150000J0D01*
G01*
X15796000Y-5208000D02*
G75*
G03*
X15796000Y-5208000I-150000J0D01*
G01*
X15796000Y-7108000D02*
G75*
G03*
X15796000Y-7108000I-150000J0D01*
G01*
X15796000Y-10108000D02*
G75*
G03*
X15796000Y-10108000I-150000J0D01*
G01*
X15796000Y-12008000D02*
G75*
G03*
X15796000Y-12008000I-150000J0D01*
G01*
X15796000Y-13908000D02*
G75*
G03*
X15796000Y-13908000I-150000J0D01*
G01*
X16201000Y-15554000D02*
G75*
G03*
X16201000Y-15554000I-150000J0D01*
G01*
X16431000Y-4954000D02*
G75*
G03*
X16431000Y-4954000I-150000J0D01*
G01*
X16431000Y-6854000D02*
G75*
G03*
X16431000Y-6854000I-150000J0D01*
G01*
X16431000Y-9854000D02*
G75*
G03*
X16431000Y-9854000I-150000J0D01*
G01*
X16431000Y-11754000D02*
G75*
G03*
X16431000Y-11754000I-150000J0D01*
G01*
X16431000Y-13654000D02*
G75*
G03*
X16431000Y-13654000I-150000J0D01*
G01*
X18796000Y-7108000D02*
G75*
G03*
X18796000Y-7108000I-150000J0D01*
G01*
X19271000Y-5208000D02*
G75*
G03*
X19271000Y-5208000I-150000J0D01*
G01*
X19431000Y-6854000D02*
G75*
G03*
X19431000Y-6854000I-150000J0D01*
G01*
X19906000Y-4954000D02*
G75*
G03*
X19906000Y-4954000I-150000J0D01*
G01*
X20696000Y-7108000D02*
G75*
G03*
X20696000Y-7108000I-150000J0D01*
G01*
X21331000Y-6854000D02*
G75*
G03*
X21331000Y-6854000I-150000J0D01*
G01*
X22121000Y-5208000D02*
G75*
G03*
X22121000Y-5208000I-150000J0D01*
G01*
X22596000Y-7108000D02*
G75*
G03*
X22596000Y-7108000I-150000J0D01*
G01*
X22756000Y-4954000D02*
G75*
G03*
X22756000Y-4954000I-150000J0D01*
G01*
X23231000Y-6854000D02*
G75*
G03*
X23231000Y-6854000I-150000J0D01*
G01*
D14*
X2700000Y-8020000D02*
X2700000Y-8380000D01*
X2520000Y-8200000D02*
X2880000Y-8200000D01*
X8700000Y-3920000D02*
X8700000Y-4280000D01*
X8520000Y-4100000D02*
X8880000Y-4100000D01*
X8700000Y-8020000D02*
X8700000Y-8380000D01*
X8520000Y-8200000D02*
X8880000Y-8200000D01*
X8700000Y-15620000D02*
X8700000Y-15980000D01*
X8520000Y-15800000D02*
X8880000Y-15800000D01*
X17400000Y-3920000D02*
X17400000Y-4280000D01*
X17220000Y-4100000D02*
X17580000Y-4100000D01*
X17400000Y-8020000D02*
X17400000Y-8380000D01*
X17220000Y-8200000D02*
X17580000Y-8200000D01*
X17400000Y-15620000D02*
X17400000Y-15980000D01*
X17220000Y-15800000D02*
X17580000Y-15800000D01*
X18600000Y-14090000D02*
X18600000Y-14450000D01*
X18420000Y-14270000D02*
X18780000Y-14270000D01*
X20800000Y-10280000D02*
X20800000Y-10640000D01*
X20620000Y-10460000D02*
X20980000Y-10460000D01*
X23000000Y-14090000D02*
X23000000Y-14450000D01*
X22820000Y-14270000D02*
X23180000Y-14270000D01*
X23400000Y-3920000D02*
X23400000Y-4280000D01*
X23220000Y-4100000D02*
X23580000Y-4100000D01*
X23400000Y-10720000D02*
X23400000Y-11080000D01*
X23220000Y-10900000D02*
X23580000Y-10900000D01*
X23400000Y-15620000D02*
X23400000Y-15980000D01*
X23220000Y-15800000D02*
X23580000Y-15800000D01*
D15*
X3541423Y-4841423D02*
X3541423Y-4558577D01*
X3258577Y-4558577D01*
X3258577Y-4841423D01*
X3541423Y-4841423D01*
X3541423Y-6741423D02*
X3541423Y-6458577D01*
X3258577Y-6458577D01*
X3258577Y-6741423D01*
X3541423Y-6741423D01*
X3541423Y-11641423D02*
X3541423Y-11358577D01*
X3258577Y-11358577D01*
X3258577Y-11641423D01*
X3541423Y-11641423D01*
X3541423Y-13541423D02*
X3541423Y-13258577D01*
X3258577Y-13258577D01*
X3258577Y-13541423D01*
X3541423Y-13541423D01*
X3541423Y-15441423D02*
X3541423Y-15158577D01*
X3258577Y-15158577D01*
X3258577Y-15441423D01*
X3541423Y-15441423D01*
X4016423Y-9741423D02*
X4016423Y-9458577D01*
X3733577Y-9458577D01*
X3733577Y-9741423D01*
X4016423Y-9741423D01*
X5441423Y-4841423D02*
X5441423Y-4558577D01*
X5158577Y-4558577D01*
X5158577Y-4841423D01*
X5441423Y-4841423D01*
X5441423Y-6741423D02*
X5441423Y-6458577D01*
X5158577Y-6458577D01*
X5158577Y-6741423D01*
X5441423Y-6741423D01*
X5441423Y-11641423D02*
X5441423Y-11358577D01*
X5158577Y-11358577D01*
X5158577Y-11641423D01*
X5441423Y-11641423D01*
X5441423Y-13541423D02*
X5441423Y-13258577D01*
X5158577Y-13258577D01*
X5158577Y-13541423D01*
X5441423Y-13541423D01*
X5441423Y-15441423D02*
X5441423Y-15158577D01*
X5158577Y-15158577D01*
X5158577Y-15441423D01*
X5441423Y-15441423D01*
X6871423Y-9741423D02*
X6871423Y-9458577D01*
X6588577Y-9458577D01*
X6588577Y-9741423D01*
X6871423Y-9741423D01*
X7341423Y-4841423D02*
X7341423Y-4558577D01*
X7058577Y-4558577D01*
X7058577Y-4841423D01*
X7341423Y-4841423D01*
X7341423Y-6741423D02*
X7341423Y-6458577D01*
X7058577Y-6458577D01*
X7058577Y-6741423D01*
X7341423Y-6741423D01*
X7341423Y-11641423D02*
X7341423Y-11358577D01*
X7058577Y-11358577D01*
X7058577Y-11641423D01*
X7341423Y-11641423D01*
X7341423Y-13541423D02*
X7341423Y-13258577D01*
X7058577Y-13258577D01*
X7058577Y-13541423D01*
X7341423Y-13541423D01*
X7341423Y-15441423D02*
X7341423Y-15158577D01*
X7058577Y-15158577D01*
X7058577Y-15441423D01*
X7341423Y-15441423D01*
X10341423Y-4841423D02*
X10341423Y-4558577D01*
X10058577Y-4558577D01*
X10058577Y-4841423D01*
X10341423Y-4841423D01*
X10341423Y-6741423D02*
X10341423Y-6458577D01*
X10058577Y-6458577D01*
X10058577Y-6741423D01*
X10341423Y-6741423D01*
X10341423Y-9741423D02*
X10341423Y-9458577D01*
X10058577Y-9458577D01*
X10058577Y-9741423D01*
X10341423Y-9741423D01*
X10341423Y-11641423D02*
X10341423Y-11358577D01*
X10058577Y-11358577D01*
X10058577Y-11641423D01*
X10341423Y-11641423D01*
X10341423Y-13541423D02*
X10341423Y-13258577D01*
X10058577Y-13258577D01*
X10058577Y-13541423D01*
X10341423Y-13541423D01*
X12001423Y-15441423D02*
X12001423Y-15158577D01*
X11718577Y-15158577D01*
X11718577Y-15441423D01*
X12001423Y-15441423D01*
X12241423Y-4841423D02*
X12241423Y-4558577D01*
X11958577Y-4558577D01*
X11958577Y-4841423D01*
X12241423Y-4841423D01*
X12241423Y-6741423D02*
X12241423Y-6458577D01*
X11958577Y-6458577D01*
X11958577Y-6741423D01*
X12241423Y-6741423D01*
X12241423Y-9741423D02*
X12241423Y-9458577D01*
X11958577Y-9458577D01*
X11958577Y-9741423D01*
X12241423Y-9741423D01*
X12241423Y-11641423D02*
X12241423Y-11358577D01*
X11958577Y-11358577D01*
X11958577Y-11641423D01*
X12241423Y-11641423D01*
X12241423Y-13541423D02*
X12241423Y-13258577D01*
X11958577Y-13258577D01*
X11958577Y-13541423D01*
X12241423Y-13541423D01*
X14141423Y-4841423D02*
X14141423Y-4558577D01*
X13858577Y-4558577D01*
X13858577Y-4841423D01*
X14141423Y-4841423D01*
X14141423Y-6741423D02*
X14141423Y-6458577D01*
X13858577Y-6458577D01*
X13858577Y-6741423D01*
X14141423Y-6741423D01*
X14141423Y-9741423D02*
X14141423Y-9458577D01*
X13858577Y-9458577D01*
X13858577Y-9741423D01*
X14141423Y-9741423D01*
X14141423Y-11641423D02*
X14141423Y-11358577D01*
X13858577Y-11358577D01*
X13858577Y-11641423D01*
X14141423Y-11641423D01*
X14141423Y-13541423D02*
X14141423Y-13258577D01*
X13858577Y-13258577D01*
X13858577Y-13541423D01*
X14141423Y-13541423D01*
X15811423Y-15441423D02*
X15811423Y-15158577D01*
X15528577Y-15158577D01*
X15528577Y-15441423D01*
X15811423Y-15441423D01*
X16041423Y-4841423D02*
X16041423Y-4558577D01*
X15758577Y-4558577D01*
X15758577Y-4841423D01*
X16041423Y-4841423D01*
X16041423Y-6741423D02*
X16041423Y-6458577D01*
X15758577Y-6458577D01*
X15758577Y-6741423D01*
X16041423Y-6741423D01*
X16041423Y-9741423D02*
X16041423Y-9458577D01*
X15758577Y-9458577D01*
X15758577Y-9741423D01*
X16041423Y-9741423D01*
X16041423Y-11641423D02*
X16041423Y-11358577D01*
X15758577Y-11358577D01*
X15758577Y-11641423D01*
X16041423Y-11641423D01*
X16041423Y-13541423D02*
X16041423Y-13258577D01*
X15758577Y-13258577D01*
X15758577Y-13541423D01*
X16041423Y-13541423D01*
X19041423Y-6741423D02*
X19041423Y-6458577D01*
X18758577Y-6458577D01*
X18758577Y-6741423D01*
X19041423Y-6741423D01*
X19516423Y-4841423D02*
X19516423Y-4558577D01*
X19233577Y-4558577D01*
X19233577Y-4841423D01*
X19516423Y-4841423D01*
X20941423Y-6741423D02*
X20941423Y-6458577D01*
X20658577Y-6458577D01*
X20658577Y-6741423D01*
X20941423Y-6741423D01*
X22366423Y-4841423D02*
X22366423Y-4558577D01*
X22083577Y-4558577D01*
X22083577Y-4841423D01*
X22366423Y-4841423D01*
X22841423Y-6741423D02*
X22841423Y-6458577D01*
X22558577Y-6458577D01*
X22558577Y-6741423D01*
X22841423Y-6741423D01*
D11*
X2500119Y-16567976D02*
X2500119Y-16367976D01*
X2547738Y-16367976D01*
X2576310Y-16377500D01*
X2595357Y-16396548D01*
X2604881Y-16415595D01*
X2614405Y-16453690D01*
X2614405Y-16482262D01*
X2604881Y-16520357D01*
X2595357Y-16539405D01*
X2576310Y-16558452D01*
X2547738Y-16567976D01*
X2500119Y-16567976D01*
X2700119Y-16567976D02*
X2700119Y-16434643D01*
X2700119Y-16472738D02*
X2709643Y-16453690D01*
X2719167Y-16444167D01*
X2738214Y-16434643D01*
X2757262Y-16434643D01*
X2823928Y-16567976D02*
X2823928Y-16434643D01*
X2823928Y-16367976D02*
X2814405Y-16377500D01*
X2823928Y-16387024D01*
X2833452Y-16377500D01*
X2823928Y-16367976D01*
X2823928Y-16387024D01*
X2947738Y-16567976D02*
X2928690Y-16558452D01*
X2919167Y-16539405D01*
X2919167Y-16367976D01*
X3052500Y-16567976D02*
X3033452Y-16558452D01*
X3023928Y-16539405D01*
X3023928Y-16367976D01*
X3281071Y-16567976D02*
X3281071Y-16367976D01*
X3347738Y-16510833D01*
X3414405Y-16367976D01*
X3414405Y-16567976D01*
X3595357Y-16567976D02*
X3595357Y-16463214D01*
X3585833Y-16444167D01*
X3566786Y-16434643D01*
X3528690Y-16434643D01*
X3509643Y-16444167D01*
X3595357Y-16558452D02*
X3576309Y-16567976D01*
X3528690Y-16567976D01*
X3509643Y-16558452D01*
X3500119Y-16539405D01*
X3500119Y-16520357D01*
X3509643Y-16501309D01*
X3528690Y-16491786D01*
X3576309Y-16491786D01*
X3595357Y-16482262D01*
X3690595Y-16434643D02*
X3690595Y-16634643D01*
X3690595Y-16444167D02*
X3709643Y-16434643D01*
X3747738Y-16434643D01*
X3766786Y-16444167D01*
X3776309Y-16453690D01*
X3785833Y-16472738D01*
X3785833Y-16529881D01*
X3776309Y-16548928D01*
X3766786Y-16558452D01*
X3747738Y-16567976D01*
X3709643Y-16567976D01*
X3690595Y-16558452D01*
X3871548Y-16548928D02*
X3881071Y-16558452D01*
X3871548Y-16567976D01*
X3862024Y-16558452D01*
X3871548Y-16548928D01*
X3871548Y-16567976D01*
X3871548Y-16444167D02*
X3881071Y-16453690D01*
X3871548Y-16463214D01*
X3862024Y-16453690D01*
X3871548Y-16444167D01*
X3871548Y-16463214D01*
D12*
X2182500Y-16867500D02*
X2242500Y-16927500D01*
X2242500Y-16867500D02*
X2182500Y-16927500D01*
D11*
X2538214Y-16787976D02*
X2557262Y-16787976D01*
X2576310Y-16797500D01*
X2585833Y-16807024D01*
X2595357Y-16826071D01*
X2604881Y-16864167D01*
X2604881Y-16911786D01*
X2595357Y-16949881D01*
X2585833Y-16968929D01*
X2576310Y-16978452D01*
X2557262Y-16987976D01*
X2538214Y-16987976D01*
X2519167Y-16978452D01*
X2509643Y-16968929D01*
X2500119Y-16949881D01*
X2490595Y-16911786D01*
X2490595Y-16864167D01*
X2500119Y-16826071D01*
X2509643Y-16807024D01*
X2519167Y-16797500D01*
X2538214Y-16787976D01*
X2690595Y-16968929D02*
X2700119Y-16978452D01*
X2690595Y-16987976D01*
X2681071Y-16978452D01*
X2690595Y-16968929D01*
X2690595Y-16987976D01*
X2871548Y-16787976D02*
X2833452Y-16787976D01*
X2814405Y-16797500D01*
X2804881Y-16807024D01*
X2785833Y-16835595D01*
X2776310Y-16873690D01*
X2776310Y-16949881D01*
X2785833Y-16968929D01*
X2795357Y-16978452D01*
X2814405Y-16987976D01*
X2852500Y-16987976D01*
X2871548Y-16978452D01*
X2881071Y-16968929D01*
X2890595Y-16949881D01*
X2890595Y-16902262D01*
X2881071Y-16883214D01*
X2871548Y-16873690D01*
X2852500Y-16864167D01*
X2814405Y-16864167D01*
X2795357Y-16873690D01*
X2785833Y-16883214D01*
X2776310Y-16902262D01*
X3014405Y-16787976D02*
X3033452Y-16787976D01*
X3052500Y-16797500D01*
X3062024Y-16807024D01*
X3071548Y-16826071D01*
X3081071Y-16864167D01*
X3081071Y-16911786D01*
X3071548Y-16949881D01*
X3062024Y-16968929D01*
X3052500Y-16978452D01*
X3033452Y-16987976D01*
X3014405Y-16987976D01*
X2995357Y-16978452D01*
X2985833Y-16968929D01*
X2976309Y-16949881D01*
X2966786Y-16911786D01*
X2966786Y-16864167D01*
X2976309Y-16826071D01*
X2985833Y-16807024D01*
X2995357Y-16797500D01*
X3014405Y-16787976D01*
X3204881Y-16787976D02*
X3223928Y-16787976D01*
X3242976Y-16797500D01*
X3252500Y-16807024D01*
X3262024Y-16826071D01*
X3271548Y-16864167D01*
X3271548Y-16911786D01*
X3262024Y-16949881D01*
X3252500Y-16968929D01*
X3242976Y-16978452D01*
X3223928Y-16987976D01*
X3204881Y-16987976D01*
X3185833Y-16978452D01*
X3176309Y-16968929D01*
X3166786Y-16949881D01*
X3157262Y-16911786D01*
X3157262Y-16864167D01*
X3166786Y-16826071D01*
X3176309Y-16807024D01*
X3185833Y-16797500D01*
X3204881Y-16787976D01*
X3357262Y-16987976D02*
X3357262Y-16854643D01*
X3357262Y-16873690D02*
X3366786Y-16864167D01*
X3385833Y-16854643D01*
X3414405Y-16854643D01*
X3433452Y-16864167D01*
X3442976Y-16883214D01*
X3442976Y-16987976D01*
X3442976Y-16883214D02*
X3452500Y-16864167D01*
X3471548Y-16854643D01*
X3500119Y-16854643D01*
X3519167Y-16864167D01*
X3528690Y-16883214D01*
X3528690Y-16987976D01*
X3623928Y-16987976D02*
X3623928Y-16854643D01*
X3623928Y-16873690D02*
X3633452Y-16864167D01*
X3652500Y-16854643D01*
X3681071Y-16854643D01*
X3700119Y-16864167D01*
X3709643Y-16883214D01*
X3709643Y-16987976D01*
X3709643Y-16883214D02*
X3719167Y-16864167D01*
X3738214Y-16854643D01*
X3766786Y-16854643D01*
X3785833Y-16864167D01*
X3795357Y-16883214D01*
X3795357Y-16987976D01*
X4185833Y-16778452D02*
X4014405Y-17035595D01*
X4442976Y-16787976D02*
X4462024Y-16787976D01*
X4481071Y-16797500D01*
X4490595Y-16807024D01*
X4500119Y-16826071D01*
X4509643Y-16864167D01*
X4509643Y-16911786D01*
X4500119Y-16949881D01*
X4490595Y-16968929D01*
X4481071Y-16978452D01*
X4462024Y-16987976D01*
X4442976Y-16987976D01*
X4423929Y-16978452D01*
X4414405Y-16968929D01*
X4404881Y-16949881D01*
X4395357Y-16911786D01*
X4395357Y-16864167D01*
X4404881Y-16826071D01*
X4414405Y-16807024D01*
X4423929Y-16797500D01*
X4442976Y-16787976D01*
X4595357Y-16968929D02*
X4604881Y-16978452D01*
X4595357Y-16987976D01*
X4585833Y-16978452D01*
X4595357Y-16968929D01*
X4595357Y-16987976D01*
X4728690Y-16787976D02*
X4747738Y-16787976D01*
X4766786Y-16797500D01*
X4776310Y-16807024D01*
X4785833Y-16826071D01*
X4795357Y-16864167D01*
X4795357Y-16911786D01*
X4785833Y-16949881D01*
X4776310Y-16968929D01*
X4766786Y-16978452D01*
X4747738Y-16987976D01*
X4728690Y-16987976D01*
X4709643Y-16978452D01*
X4700119Y-16968929D01*
X4690595Y-16949881D01*
X4681071Y-16911786D01*
X4681071Y-16864167D01*
X4690595Y-16826071D01*
X4700119Y-16807024D01*
X4709643Y-16797500D01*
X4728690Y-16787976D01*
X4871548Y-16807024D02*
X4881071Y-16797500D01*
X4900119Y-16787976D01*
X4947738Y-16787976D01*
X4966786Y-16797500D01*
X4976310Y-16807024D01*
X4985833Y-16826071D01*
X4985833Y-16845119D01*
X4976310Y-16873690D01*
X4862024Y-16987976D01*
X4985833Y-16987976D01*
X5052500Y-16787976D02*
X5176310Y-16787976D01*
X5109643Y-16864167D01*
X5138214Y-16864167D01*
X5157262Y-16873690D01*
X5166786Y-16883214D01*
X5176310Y-16902262D01*
X5176310Y-16949881D01*
X5166786Y-16968929D01*
X5157262Y-16978452D01*
X5138214Y-16987976D01*
X5081071Y-16987976D01*
X5062024Y-16978452D01*
X5052500Y-16968929D01*
X5347738Y-16787976D02*
X5309643Y-16787976D01*
X5290595Y-16797500D01*
X5281071Y-16807024D01*
X5262024Y-16835595D01*
X5252500Y-16873690D01*
X5252500Y-16949881D01*
X5262024Y-16968929D01*
X5271548Y-16978452D01*
X5290595Y-16987976D01*
X5328690Y-16987976D01*
X5347738Y-16978452D01*
X5357262Y-16968929D01*
X5366786Y-16949881D01*
X5366786Y-16902262D01*
X5357262Y-16883214D01*
X5347738Y-16873690D01*
X5328690Y-16864167D01*
X5290595Y-16864167D01*
X5271548Y-16873690D01*
X5262024Y-16883214D01*
X5252500Y-16902262D01*
X5442976Y-16787976D02*
X5442976Y-16826071D01*
X5519167Y-16787976D02*
X5519167Y-16826071D01*
X5814405Y-17064167D02*
X5804881Y-17054643D01*
X5785833Y-17026071D01*
X5776309Y-17007024D01*
X5766786Y-16978452D01*
X5757262Y-16930833D01*
X5757262Y-16892738D01*
X5766786Y-16845119D01*
X5776309Y-16816548D01*
X5785833Y-16797500D01*
X5804881Y-16768928D01*
X5814405Y-16759405D01*
X5881071Y-16807024D02*
X5890595Y-16797500D01*
X5909643Y-16787976D01*
X5957262Y-16787976D01*
X5976309Y-16797500D01*
X5985833Y-16807024D01*
X5995357Y-16826071D01*
X5995357Y-16845119D01*
X5985833Y-16873690D01*
X5871548Y-16987976D01*
X5995357Y-16987976D01*
X6233452Y-16987976D02*
X6233452Y-16787976D01*
X6319167Y-16987976D02*
X6319167Y-16883214D01*
X6309643Y-16864167D01*
X6290595Y-16854643D01*
X6262024Y-16854643D01*
X6242976Y-16864167D01*
X6233452Y-16873690D01*
X6442976Y-16987976D02*
X6423928Y-16978452D01*
X6414405Y-16968929D01*
X6404881Y-16949881D01*
X6404881Y-16892738D01*
X6414405Y-16873690D01*
X6423928Y-16864167D01*
X6442976Y-16854643D01*
X6471548Y-16854643D01*
X6490595Y-16864167D01*
X6500119Y-16873690D01*
X6509643Y-16892738D01*
X6509643Y-16949881D01*
X6500119Y-16968929D01*
X6490595Y-16978452D01*
X6471548Y-16987976D01*
X6442976Y-16987976D01*
X6623928Y-16987976D02*
X6604881Y-16978452D01*
X6595357Y-16959405D01*
X6595357Y-16787976D01*
X6776309Y-16978452D02*
X6757262Y-16987976D01*
X6719167Y-16987976D01*
X6700119Y-16978452D01*
X6690595Y-16959405D01*
X6690595Y-16883214D01*
X6700119Y-16864167D01*
X6719167Y-16854643D01*
X6757262Y-16854643D01*
X6776309Y-16864167D01*
X6785833Y-16883214D01*
X6785833Y-16902262D01*
X6690595Y-16921310D01*
X6862024Y-16978452D02*
X6881071Y-16987976D01*
X6919167Y-16987976D01*
X6938214Y-16978452D01*
X6947738Y-16959405D01*
X6947738Y-16949881D01*
X6938214Y-16930833D01*
X6919167Y-16921310D01*
X6890595Y-16921310D01*
X6871548Y-16911786D01*
X6862024Y-16892738D01*
X6862024Y-16883214D01*
X6871548Y-16864167D01*
X6890595Y-16854643D01*
X6919167Y-16854643D01*
X6938214Y-16864167D01*
X7014405Y-17064167D02*
X7023928Y-17054643D01*
X7042976Y-17026071D01*
X7052500Y-17007024D01*
X7062024Y-16978452D01*
X7071548Y-16930833D01*
X7071548Y-16892738D01*
X7062024Y-16845119D01*
X7052500Y-16816548D01*
X7042976Y-16797500D01*
X7023928Y-16768928D01*
X7014405Y-16759405D01*
X7376309Y-17064167D02*
X7366786Y-17054643D01*
X7347738Y-17026071D01*
X7338214Y-17007024D01*
X7328690Y-16978452D01*
X7319167Y-16930833D01*
X7319167Y-16892738D01*
X7328690Y-16845119D01*
X7338214Y-16816548D01*
X7347738Y-16797500D01*
X7366786Y-16768928D01*
X7376309Y-16759405D01*
X7452500Y-16854643D02*
X7452500Y-16987976D01*
X7452500Y-16873690D02*
X7462024Y-16864167D01*
X7481071Y-16854643D01*
X7509643Y-16854643D01*
X7528690Y-16864167D01*
X7538214Y-16883214D01*
X7538214Y-16987976D01*
X7662024Y-16987976D02*
X7642976Y-16978452D01*
X7633452Y-16968929D01*
X7623928Y-16949881D01*
X7623928Y-16892738D01*
X7633452Y-16873690D01*
X7642976Y-16864167D01*
X7662024Y-16854643D01*
X7690595Y-16854643D01*
X7709643Y-16864167D01*
X7719167Y-16873690D01*
X7728690Y-16892738D01*
X7728690Y-16949881D01*
X7719167Y-16968929D01*
X7709643Y-16978452D01*
X7690595Y-16987976D01*
X7662024Y-16987976D01*
X7785833Y-16854643D02*
X7862024Y-16854643D01*
X7814405Y-16787976D02*
X7814405Y-16959405D01*
X7823928Y-16978452D01*
X7842976Y-16987976D01*
X7862024Y-16987976D01*
X8081071Y-16854643D02*
X8081071Y-17054643D01*
X8081071Y-16864167D02*
X8100119Y-16854643D01*
X8138214Y-16854643D01*
X8157262Y-16864167D01*
X8166786Y-16873690D01*
X8176309Y-16892738D01*
X8176309Y-16949881D01*
X8166786Y-16968929D01*
X8157262Y-16978452D01*
X8138214Y-16987976D01*
X8100119Y-16987976D01*
X8081071Y-16978452D01*
X8290595Y-16987976D02*
X8271548Y-16978452D01*
X8262024Y-16959405D01*
X8262024Y-16787976D01*
X8452500Y-16987976D02*
X8452500Y-16883214D01*
X8442976Y-16864167D01*
X8423929Y-16854643D01*
X8385833Y-16854643D01*
X8366786Y-16864167D01*
X8452500Y-16978452D02*
X8433452Y-16987976D01*
X8385833Y-16987976D01*
X8366786Y-16978452D01*
X8357262Y-16959405D01*
X8357262Y-16940357D01*
X8366786Y-16921310D01*
X8385833Y-16911786D01*
X8433452Y-16911786D01*
X8452500Y-16902262D01*
X8519167Y-16854643D02*
X8595357Y-16854643D01*
X8547738Y-16787976D02*
X8547738Y-16959405D01*
X8557262Y-16978452D01*
X8576310Y-16987976D01*
X8595357Y-16987976D01*
X8738214Y-16978452D02*
X8719167Y-16987976D01*
X8681071Y-16987976D01*
X8662024Y-16978452D01*
X8652500Y-16959405D01*
X8652500Y-16883214D01*
X8662024Y-16864167D01*
X8681071Y-16854643D01*
X8719167Y-16854643D01*
X8738214Y-16864167D01*
X8747738Y-16883214D01*
X8747738Y-16902262D01*
X8652500Y-16921310D01*
X8919167Y-16987976D02*
X8919167Y-16787976D01*
X8919167Y-16978452D02*
X8900119Y-16987976D01*
X8862024Y-16987976D01*
X8842976Y-16978452D01*
X8833452Y-16968929D01*
X8823929Y-16949881D01*
X8823929Y-16892738D01*
X8833452Y-16873690D01*
X8842976Y-16864167D01*
X8862024Y-16854643D01*
X8900119Y-16854643D01*
X8919167Y-16864167D01*
X8995357Y-17064167D02*
X9004881Y-17054643D01*
X9023929Y-17026071D01*
X9033452Y-17007024D01*
X9042976Y-16978452D01*
X9052500Y-16930833D01*
X9052500Y-16892738D01*
X9042976Y-16845119D01*
X9033452Y-16816548D01*
X9023929Y-16797500D01*
X9004881Y-16768928D01*
X8995357Y-16759405D01*
X2242500Y-17161500D02*
G75*
G03*
X2242500Y-17161500I-100000J0D01*
G01*
X2481071Y-17051976D02*
X2604881Y-17051976D01*
X2538214Y-17128167D01*
X2566786Y-17128167D01*
X2585833Y-17137690D01*
X2595357Y-17147214D01*
X2604881Y-17166262D01*
X2604881Y-17213881D01*
X2595357Y-17232929D01*
X2585833Y-17242452D01*
X2566786Y-17251976D01*
X2509643Y-17251976D01*
X2490595Y-17242452D01*
X2481071Y-17232929D01*
X2690595Y-17232929D02*
X2700119Y-17242452D01*
X2690595Y-17251976D01*
X2681071Y-17242452D01*
X2690595Y-17232929D01*
X2690595Y-17251976D01*
X2823928Y-17051976D02*
X2842976Y-17051976D01*
X2862024Y-17061500D01*
X2871548Y-17071024D01*
X2881071Y-17090071D01*
X2890595Y-17128167D01*
X2890595Y-17175786D01*
X2881071Y-17213881D01*
X2871548Y-17232929D01*
X2862024Y-17242452D01*
X2842976Y-17251976D01*
X2823928Y-17251976D01*
X2804881Y-17242452D01*
X2795357Y-17232929D01*
X2785833Y-17213881D01*
X2776310Y-17175786D01*
X2776310Y-17128167D01*
X2785833Y-17090071D01*
X2795357Y-17071024D01*
X2804881Y-17061500D01*
X2823928Y-17051976D01*
X3014405Y-17051976D02*
X3033452Y-17051976D01*
X3052500Y-17061500D01*
X3062024Y-17071024D01*
X3071548Y-17090071D01*
X3081071Y-17128167D01*
X3081071Y-17175786D01*
X3071548Y-17213881D01*
X3062024Y-17232929D01*
X3052500Y-17242452D01*
X3033452Y-17251976D01*
X3014405Y-17251976D01*
X2995357Y-17242452D01*
X2985833Y-17232929D01*
X2976309Y-17213881D01*
X2966786Y-17175786D01*
X2966786Y-17128167D01*
X2976309Y-17090071D01*
X2985833Y-17071024D01*
X2995357Y-17061500D01*
X3014405Y-17051976D01*
X3204881Y-17051976D02*
X3223928Y-17051976D01*
X3242976Y-17061500D01*
X3252500Y-17071024D01*
X3262024Y-17090071D01*
X3271548Y-17128167D01*
X3271548Y-17175786D01*
X3262024Y-17213881D01*
X3252500Y-17232929D01*
X3242976Y-17242452D01*
X3223928Y-17251976D01*
X3204881Y-17251976D01*
X3185833Y-17242452D01*
X3176309Y-17232929D01*
X3166786Y-17213881D01*
X3157262Y-17175786D01*
X3157262Y-17128167D01*
X3166786Y-17090071D01*
X3176309Y-17071024D01*
X3185833Y-17061500D01*
X3204881Y-17051976D01*
X3357262Y-17251976D02*
X3357262Y-17118643D01*
X3357262Y-17137690D02*
X3366786Y-17128167D01*
X3385833Y-17118643D01*
X3414405Y-17118643D01*
X3433452Y-17128167D01*
X3442976Y-17147214D01*
X3442976Y-17251976D01*
X3442976Y-17147214D02*
X3452500Y-17128167D01*
X3471548Y-17118643D01*
X3500119Y-17118643D01*
X3519167Y-17128167D01*
X3528690Y-17147214D01*
X3528690Y-17251976D01*
X3623928Y-17251976D02*
X3623928Y-17118643D01*
X3623928Y-17137690D02*
X3633452Y-17128167D01*
X3652500Y-17118643D01*
X3681071Y-17118643D01*
X3700119Y-17128167D01*
X3709643Y-17147214D01*
X3709643Y-17251976D01*
X3709643Y-17147214D02*
X3719167Y-17128167D01*
X3738214Y-17118643D01*
X3766786Y-17118643D01*
X3785833Y-17128167D01*
X3795357Y-17147214D01*
X3795357Y-17251976D01*
X4185833Y-17042452D02*
X4014405Y-17299595D01*
X4442976Y-17051976D02*
X4462024Y-17051976D01*
X4481071Y-17061500D01*
X4490595Y-17071024D01*
X4500119Y-17090071D01*
X4509643Y-17128167D01*
X4509643Y-17175786D01*
X4500119Y-17213881D01*
X4490595Y-17232929D01*
X4481071Y-17242452D01*
X4462024Y-17251976D01*
X4442976Y-17251976D01*
X4423929Y-17242452D01*
X4414405Y-17232929D01*
X4404881Y-17213881D01*
X4395357Y-17175786D01*
X4395357Y-17128167D01*
X4404881Y-17090071D01*
X4414405Y-17071024D01*
X4423929Y-17061500D01*
X4442976Y-17051976D01*
X4595357Y-17232929D02*
X4604881Y-17242452D01*
X4595357Y-17251976D01*
X4585833Y-17242452D01*
X4595357Y-17232929D01*
X4595357Y-17251976D01*
X4795357Y-17251976D02*
X4681071Y-17251976D01*
X4738214Y-17251976D02*
X4738214Y-17051976D01*
X4719167Y-17080548D01*
X4700119Y-17099595D01*
X4681071Y-17109119D01*
X4985833Y-17251976D02*
X4871548Y-17251976D01*
X4928690Y-17251976D02*
X4928690Y-17051976D01*
X4909643Y-17080548D01*
X4890595Y-17099595D01*
X4871548Y-17109119D01*
X5100119Y-17137690D02*
X5081071Y-17128167D01*
X5071548Y-17118643D01*
X5062024Y-17099595D01*
X5062024Y-17090071D01*
X5071548Y-17071024D01*
X5081071Y-17061500D01*
X5100119Y-17051976D01*
X5138214Y-17051976D01*
X5157262Y-17061500D01*
X5166786Y-17071024D01*
X5176310Y-17090071D01*
X5176310Y-17099595D01*
X5166786Y-17118643D01*
X5157262Y-17128167D01*
X5138214Y-17137690D01*
X5100119Y-17137690D01*
X5081071Y-17147214D01*
X5071548Y-17156738D01*
X5062024Y-17175786D01*
X5062024Y-17213881D01*
X5071548Y-17232929D01*
X5081071Y-17242452D01*
X5100119Y-17251976D01*
X5138214Y-17251976D01*
X5157262Y-17242452D01*
X5166786Y-17232929D01*
X5176310Y-17213881D01*
X5176310Y-17175786D01*
X5166786Y-17156738D01*
X5157262Y-17147214D01*
X5138214Y-17137690D01*
X5366786Y-17251976D02*
X5252500Y-17251976D01*
X5309643Y-17251976D02*
X5309643Y-17051976D01*
X5290595Y-17080548D01*
X5271548Y-17099595D01*
X5252500Y-17109119D01*
X5442976Y-17051976D02*
X5442976Y-17090071D01*
X5519167Y-17051976D02*
X5519167Y-17090071D01*
X5814405Y-17328167D02*
X5804881Y-17318643D01*
X5785833Y-17290071D01*
X5776309Y-17271024D01*
X5766786Y-17242452D01*
X5757262Y-17194833D01*
X5757262Y-17156738D01*
X5766786Y-17109119D01*
X5776309Y-17080548D01*
X5785833Y-17061500D01*
X5804881Y-17032929D01*
X5814405Y-17023405D01*
X5919167Y-17137690D02*
X5900119Y-17128167D01*
X5890595Y-17118643D01*
X5881071Y-17099595D01*
X5881071Y-17090071D01*
X5890595Y-17071024D01*
X5900119Y-17061500D01*
X5919167Y-17051976D01*
X5957262Y-17051976D01*
X5976309Y-17061500D01*
X5985833Y-17071024D01*
X5995357Y-17090071D01*
X5995357Y-17099595D01*
X5985833Y-17118643D01*
X5976309Y-17128167D01*
X5957262Y-17137690D01*
X5919167Y-17137690D01*
X5900119Y-17147214D01*
X5890595Y-17156738D01*
X5881071Y-17175786D01*
X5881071Y-17213881D01*
X5890595Y-17232929D01*
X5900119Y-17242452D01*
X5919167Y-17251976D01*
X5957262Y-17251976D01*
X5976309Y-17242452D01*
X5985833Y-17232929D01*
X5995357Y-17213881D01*
X5995357Y-17175786D01*
X5985833Y-17156738D01*
X5976309Y-17147214D01*
X5957262Y-17137690D01*
X6109643Y-17137690D02*
X6090595Y-17128167D01*
X6081071Y-17118643D01*
X6071548Y-17099595D01*
X6071548Y-17090071D01*
X6081071Y-17071024D01*
X6090595Y-17061500D01*
X6109643Y-17051976D01*
X6147738Y-17051976D01*
X6166786Y-17061500D01*
X6176309Y-17071024D01*
X6185833Y-17090071D01*
X6185833Y-17099595D01*
X6176309Y-17118643D01*
X6166786Y-17128167D01*
X6147738Y-17137690D01*
X6109643Y-17137690D01*
X6090595Y-17147214D01*
X6081071Y-17156738D01*
X6071548Y-17175786D01*
X6071548Y-17213881D01*
X6081071Y-17232929D01*
X6090595Y-17242452D01*
X6109643Y-17251976D01*
X6147738Y-17251976D01*
X6166786Y-17242452D01*
X6176309Y-17232929D01*
X6185833Y-17213881D01*
X6185833Y-17175786D01*
X6176309Y-17156738D01*
X6166786Y-17147214D01*
X6147738Y-17137690D01*
X6423928Y-17251976D02*
X6423928Y-17051976D01*
X6509643Y-17251976D02*
X6509643Y-17147214D01*
X6500119Y-17128167D01*
X6481071Y-17118643D01*
X6452500Y-17118643D01*
X6433452Y-17128167D01*
X6423928Y-17137690D01*
X6633452Y-17251976D02*
X6614405Y-17242452D01*
X6604881Y-17232929D01*
X6595357Y-17213881D01*
X6595357Y-17156738D01*
X6604881Y-17137690D01*
X6614405Y-17128167D01*
X6633452Y-17118643D01*
X6662024Y-17118643D01*
X6681071Y-17128167D01*
X6690595Y-17137690D01*
X6700119Y-17156738D01*
X6700119Y-17213881D01*
X6690595Y-17232929D01*
X6681071Y-17242452D01*
X6662024Y-17251976D01*
X6633452Y-17251976D01*
X6814405Y-17251976D02*
X6795357Y-17242452D01*
X6785833Y-17223405D01*
X6785833Y-17051976D01*
X6966786Y-17242452D02*
X6947738Y-17251976D01*
X6909643Y-17251976D01*
X6890595Y-17242452D01*
X6881071Y-17223405D01*
X6881071Y-17147214D01*
X6890595Y-17128167D01*
X6909643Y-17118643D01*
X6947738Y-17118643D01*
X6966786Y-17128167D01*
X6976309Y-17147214D01*
X6976309Y-17166262D01*
X6881071Y-17185310D01*
X7052500Y-17242452D02*
X7071548Y-17251976D01*
X7109643Y-17251976D01*
X7128690Y-17242452D01*
X7138214Y-17223405D01*
X7138214Y-17213881D01*
X7128690Y-17194833D01*
X7109643Y-17185310D01*
X7081071Y-17185310D01*
X7062024Y-17175786D01*
X7052500Y-17156738D01*
X7052500Y-17147214D01*
X7062024Y-17128167D01*
X7081071Y-17118643D01*
X7109643Y-17118643D01*
X7128690Y-17128167D01*
X7204881Y-17328167D02*
X7214405Y-17318643D01*
X7233452Y-17290071D01*
X7242976Y-17271024D01*
X7252500Y-17242452D01*
X7262024Y-17194833D01*
X7262024Y-17156738D01*
X7252500Y-17109119D01*
X7242976Y-17080548D01*
X7233452Y-17061500D01*
X7214405Y-17032929D01*
X7204881Y-17023405D01*
X7566786Y-17328167D02*
X7557262Y-17318643D01*
X7538214Y-17290071D01*
X7528690Y-17271024D01*
X7519167Y-17242452D01*
X7509643Y-17194833D01*
X7509643Y-17156738D01*
X7519167Y-17109119D01*
X7528690Y-17080548D01*
X7538214Y-17061500D01*
X7557262Y-17032929D01*
X7566786Y-17023405D01*
X7642976Y-17118643D02*
X7642976Y-17251976D01*
X7642976Y-17137690D02*
X7652500Y-17128167D01*
X7671548Y-17118643D01*
X7700119Y-17118643D01*
X7719167Y-17128167D01*
X7728690Y-17147214D01*
X7728690Y-17251976D01*
X7852500Y-17251976D02*
X7833452Y-17242452D01*
X7823928Y-17232929D01*
X7814405Y-17213881D01*
X7814405Y-17156738D01*
X7823928Y-17137690D01*
X7833452Y-17128167D01*
X7852500Y-17118643D01*
X7881071Y-17118643D01*
X7900119Y-17128167D01*
X7909643Y-17137690D01*
X7919167Y-17156738D01*
X7919167Y-17213881D01*
X7909643Y-17232929D01*
X7900119Y-17242452D01*
X7881071Y-17251976D01*
X7852500Y-17251976D01*
X7976309Y-17118643D02*
X8052500Y-17118643D01*
X8004881Y-17051976D02*
X8004881Y-17223405D01*
X8014405Y-17242452D01*
X8033452Y-17251976D01*
X8052500Y-17251976D01*
X8271548Y-17118643D02*
X8271548Y-17318643D01*
X8271548Y-17128167D02*
X8290595Y-17118643D01*
X8328690Y-17118643D01*
X8347738Y-17128167D01*
X8357262Y-17137690D01*
X8366786Y-17156738D01*
X8366786Y-17213881D01*
X8357262Y-17232929D01*
X8347738Y-17242452D01*
X8328690Y-17251976D01*
X8290595Y-17251976D01*
X8271548Y-17242452D01*
X8481071Y-17251976D02*
X8462024Y-17242452D01*
X8452500Y-17223405D01*
X8452500Y-17051976D01*
X8642976Y-17251976D02*
X8642976Y-17147214D01*
X8633452Y-17128167D01*
X8614405Y-17118643D01*
X8576310Y-17118643D01*
X8557262Y-17128167D01*
X8642976Y-17242452D02*
X8623929Y-17251976D01*
X8576310Y-17251976D01*
X8557262Y-17242452D01*
X8547738Y-17223405D01*
X8547738Y-17204357D01*
X8557262Y-17185310D01*
X8576310Y-17175786D01*
X8623929Y-17175786D01*
X8642976Y-17166262D01*
X8709643Y-17118643D02*
X8785833Y-17118643D01*
X8738214Y-17051976D02*
X8738214Y-17223405D01*
X8747738Y-17242452D01*
X8766786Y-17251976D01*
X8785833Y-17251976D01*
X8928690Y-17242452D02*
X8909643Y-17251976D01*
X8871548Y-17251976D01*
X8852500Y-17242452D01*
X8842976Y-17223405D01*
X8842976Y-17147214D01*
X8852500Y-17128167D01*
X8871548Y-17118643D01*
X8909643Y-17118643D01*
X8928690Y-17128167D01*
X8938214Y-17147214D01*
X8938214Y-17166262D01*
X8842976Y-17185310D01*
X9109643Y-17251976D02*
X9109643Y-17051976D01*
X9109643Y-17242452D02*
X9090595Y-17251976D01*
X9052500Y-17251976D01*
X9033452Y-17242452D01*
X9023929Y-17232929D01*
X9014405Y-17213881D01*
X9014405Y-17156738D01*
X9023929Y-17137690D01*
X9033452Y-17128167D01*
X9052500Y-17118643D01*
X9090595Y-17118643D01*
X9109643Y-17128167D01*
X9185833Y-17328167D02*
X9195357Y-17318643D01*
X9214405Y-17290071D01*
X9223929Y-17271024D01*
X9233452Y-17242452D01*
X9242976Y-17194833D01*
X9242976Y-17156738D01*
X9233452Y-17109119D01*
X9223929Y-17080548D01*
X9214405Y-17061500D01*
X9195357Y-17032929D01*
X9185833Y-17023405D01*
X2142500Y-17381500D02*
X2142500Y-17581500D01*
X2042500Y-17481500D02*
X2242500Y-17481500D01*
X2481071Y-17371976D02*
X2604881Y-17371976D01*
X2538214Y-17448167D01*
X2566786Y-17448167D01*
X2585833Y-17457690D01*
X2595357Y-17467214D01*
X2604881Y-17486262D01*
X2604881Y-17533881D01*
X2595357Y-17552929D01*
X2585833Y-17562452D01*
X2566786Y-17571976D01*
X2509643Y-17571976D01*
X2490595Y-17562452D01*
X2481071Y-17552929D01*
X2690595Y-17552929D02*
X2700119Y-17562452D01*
X2690595Y-17571976D01*
X2681071Y-17562452D01*
X2690595Y-17552929D01*
X2690595Y-17571976D01*
X2871548Y-17371976D02*
X2833452Y-17371976D01*
X2814405Y-17381500D01*
X2804881Y-17391024D01*
X2785833Y-17419595D01*
X2776310Y-17457690D01*
X2776310Y-17533881D01*
X2785833Y-17552929D01*
X2795357Y-17562452D01*
X2814405Y-17571976D01*
X2852500Y-17571976D01*
X2871548Y-17562452D01*
X2881071Y-17552929D01*
X2890595Y-17533881D01*
X2890595Y-17486262D01*
X2881071Y-17467214D01*
X2871548Y-17457690D01*
X2852500Y-17448167D01*
X2814405Y-17448167D01*
X2795357Y-17457690D01*
X2785833Y-17467214D01*
X2776310Y-17486262D01*
X3014405Y-17371976D02*
X3033452Y-17371976D01*
X3052500Y-17381500D01*
X3062024Y-17391024D01*
X3071548Y-17410071D01*
X3081071Y-17448167D01*
X3081071Y-17495786D01*
X3071548Y-17533881D01*
X3062024Y-17552929D01*
X3052500Y-17562452D01*
X3033452Y-17571976D01*
X3014405Y-17571976D01*
X2995357Y-17562452D01*
X2985833Y-17552929D01*
X2976309Y-17533881D01*
X2966786Y-17495786D01*
X2966786Y-17448167D01*
X2976309Y-17410071D01*
X2985833Y-17391024D01*
X2995357Y-17381500D01*
X3014405Y-17371976D01*
X3204881Y-17371976D02*
X3223928Y-17371976D01*
X3242976Y-17381500D01*
X3252500Y-17391024D01*
X3262024Y-17410071D01*
X3271548Y-17448167D01*
X3271548Y-17495786D01*
X3262024Y-17533881D01*
X3252500Y-17552929D01*
X3242976Y-17562452D01*
X3223928Y-17571976D01*
X3204881Y-17571976D01*
X3185833Y-17562452D01*
X3176309Y-17552929D01*
X3166786Y-17533881D01*
X3157262Y-17495786D01*
X3157262Y-17448167D01*
X3166786Y-17410071D01*
X3176309Y-17391024D01*
X3185833Y-17381500D01*
X3204881Y-17371976D01*
X3357262Y-17571976D02*
X3357262Y-17438643D01*
X3357262Y-17457690D02*
X3366786Y-17448167D01*
X3385833Y-17438643D01*
X3414405Y-17438643D01*
X3433452Y-17448167D01*
X3442976Y-17467214D01*
X3442976Y-17571976D01*
X3442976Y-17467214D02*
X3452500Y-17448167D01*
X3471548Y-17438643D01*
X3500119Y-17438643D01*
X3519167Y-17448167D01*
X3528690Y-17467214D01*
X3528690Y-17571976D01*
X3623928Y-17571976D02*
X3623928Y-17438643D01*
X3623928Y-17457690D02*
X3633452Y-17448167D01*
X3652500Y-17438643D01*
X3681071Y-17438643D01*
X3700119Y-17448167D01*
X3709643Y-17467214D01*
X3709643Y-17571976D01*
X3709643Y-17467214D02*
X3719167Y-17448167D01*
X3738214Y-17438643D01*
X3766786Y-17438643D01*
X3785833Y-17448167D01*
X3795357Y-17467214D01*
X3795357Y-17571976D01*
X4185833Y-17362452D02*
X4014405Y-17619595D01*
X4442976Y-17371976D02*
X4462024Y-17371976D01*
X4481071Y-17381500D01*
X4490595Y-17391024D01*
X4500119Y-17410071D01*
X4509643Y-17448167D01*
X4509643Y-17495786D01*
X4500119Y-17533881D01*
X4490595Y-17552929D01*
X4481071Y-17562452D01*
X4462024Y-17571976D01*
X4442976Y-17571976D01*
X4423929Y-17562452D01*
X4414405Y-17552929D01*
X4404881Y-17533881D01*
X4395357Y-17495786D01*
X4395357Y-17448167D01*
X4404881Y-17410071D01*
X4414405Y-17391024D01*
X4423929Y-17381500D01*
X4442976Y-17371976D01*
X4595357Y-17552929D02*
X4604881Y-17562452D01*
X4595357Y-17571976D01*
X4585833Y-17562452D01*
X4595357Y-17552929D01*
X4595357Y-17571976D01*
X4795357Y-17571976D02*
X4681071Y-17571976D01*
X4738214Y-17571976D02*
X4738214Y-17371976D01*
X4719167Y-17400548D01*
X4700119Y-17419595D01*
X4681071Y-17429119D01*
X4966786Y-17438643D02*
X4966786Y-17571976D01*
X4919167Y-17362452D02*
X4871548Y-17505310D01*
X4995357Y-17505310D01*
X5176310Y-17571976D02*
X5062024Y-17571976D01*
X5119167Y-17571976D02*
X5119167Y-17371976D01*
X5100119Y-17400548D01*
X5081071Y-17419595D01*
X5062024Y-17429119D01*
X5242976Y-17371976D02*
X5376310Y-17371976D01*
X5290595Y-17571976D01*
X5442976Y-17371976D02*
X5442976Y-17410071D01*
X5519167Y-17371976D02*
X5519167Y-17410071D01*
X5814405Y-17648167D02*
X5804881Y-17638643D01*
X5785833Y-17610071D01*
X5776309Y-17591024D01*
X5766786Y-17562452D01*
X5757262Y-17514833D01*
X5757262Y-17476738D01*
X5766786Y-17429119D01*
X5776309Y-17400548D01*
X5785833Y-17381500D01*
X5804881Y-17352929D01*
X5814405Y-17343405D01*
X5995357Y-17571976D02*
X5881071Y-17571976D01*
X5938214Y-17571976D02*
X5938214Y-17371976D01*
X5919167Y-17400548D01*
X5900119Y-17419595D01*
X5881071Y-17429119D01*
X6062024Y-17371976D02*
X6185833Y-17371976D01*
X6119167Y-17448167D01*
X6147738Y-17448167D01*
X6166786Y-17457690D01*
X6176309Y-17467214D01*
X6185833Y-17486262D01*
X6185833Y-17533881D01*
X6176309Y-17552929D01*
X6166786Y-17562452D01*
X6147738Y-17571976D01*
X6090595Y-17571976D01*
X6071548Y-17562452D01*
X6062024Y-17552929D01*
X6423928Y-17571976D02*
X6423928Y-17371976D01*
X6509643Y-17571976D02*
X6509643Y-17467214D01*
X6500119Y-17448167D01*
X6481071Y-17438643D01*
X6452500Y-17438643D01*
X6433452Y-17448167D01*
X6423928Y-17457690D01*
X6633452Y-17571976D02*
X6614405Y-17562452D01*
X6604881Y-17552929D01*
X6595357Y-17533881D01*
X6595357Y-17476738D01*
X6604881Y-17457690D01*
X6614405Y-17448167D01*
X6633452Y-17438643D01*
X6662024Y-17438643D01*
X6681071Y-17448167D01*
X6690595Y-17457690D01*
X6700119Y-17476738D01*
X6700119Y-17533881D01*
X6690595Y-17552929D01*
X6681071Y-17562452D01*
X6662024Y-17571976D01*
X6633452Y-17571976D01*
X6814405Y-17571976D02*
X6795357Y-17562452D01*
X6785833Y-17543405D01*
X6785833Y-17371976D01*
X6966786Y-17562452D02*
X6947738Y-17571976D01*
X6909643Y-17571976D01*
X6890595Y-17562452D01*
X6881071Y-17543405D01*
X6881071Y-17467214D01*
X6890595Y-17448167D01*
X6909643Y-17438643D01*
X6947738Y-17438643D01*
X6966786Y-17448167D01*
X6976309Y-17467214D01*
X6976309Y-17486262D01*
X6881071Y-17505310D01*
X7052500Y-17562452D02*
X7071548Y-17571976D01*
X7109643Y-17571976D01*
X7128690Y-17562452D01*
X7138214Y-17543405D01*
X7138214Y-17533881D01*
X7128690Y-17514833D01*
X7109643Y-17505310D01*
X7081071Y-17505310D01*
X7062024Y-17495786D01*
X7052500Y-17476738D01*
X7052500Y-17467214D01*
X7062024Y-17448167D01*
X7081071Y-17438643D01*
X7109643Y-17438643D01*
X7128690Y-17448167D01*
X7204881Y-17648167D02*
X7214405Y-17638643D01*
X7233452Y-17610071D01*
X7242976Y-17591024D01*
X7252500Y-17562452D01*
X7262024Y-17514833D01*
X7262024Y-17476738D01*
X7252500Y-17429119D01*
X7242976Y-17400548D01*
X7233452Y-17381500D01*
X7214405Y-17352929D01*
X7204881Y-17343405D01*
X7566786Y-17648167D02*
X7557262Y-17638643D01*
X7538214Y-17610071D01*
X7528690Y-17591024D01*
X7519167Y-17562452D01*
X7509643Y-17514833D01*
X7509643Y-17476738D01*
X7519167Y-17429119D01*
X7528690Y-17400548D01*
X7538214Y-17381500D01*
X7557262Y-17352929D01*
X7566786Y-17343405D01*
X7642976Y-17438643D02*
X7642976Y-17571976D01*
X7642976Y-17457690D02*
X7652500Y-17448167D01*
X7671548Y-17438643D01*
X7700119Y-17438643D01*
X7719167Y-17448167D01*
X7728690Y-17467214D01*
X7728690Y-17571976D01*
X7852500Y-17571976D02*
X7833452Y-17562452D01*
X7823928Y-17552929D01*
X7814405Y-17533881D01*
X7814405Y-17476738D01*
X7823928Y-17457690D01*
X7833452Y-17448167D01*
X7852500Y-17438643D01*
X7881071Y-17438643D01*
X7900119Y-17448167D01*
X7909643Y-17457690D01*
X7919167Y-17476738D01*
X7919167Y-17533881D01*
X7909643Y-17552929D01*
X7900119Y-17562452D01*
X7881071Y-17571976D01*
X7852500Y-17571976D01*
X7976309Y-17438643D02*
X8052500Y-17438643D01*
X8004881Y-17371976D02*
X8004881Y-17543405D01*
X8014405Y-17562452D01*
X8033452Y-17571976D01*
X8052500Y-17571976D01*
X8271548Y-17438643D02*
X8271548Y-17638643D01*
X8271548Y-17448167D02*
X8290595Y-17438643D01*
X8328690Y-17438643D01*
X8347738Y-17448167D01*
X8357262Y-17457690D01*
X8366786Y-17476738D01*
X8366786Y-17533881D01*
X8357262Y-17552929D01*
X8347738Y-17562452D01*
X8328690Y-17571976D01*
X8290595Y-17571976D01*
X8271548Y-17562452D01*
X8481071Y-17571976D02*
X8462024Y-17562452D01*
X8452500Y-17543405D01*
X8452500Y-17371976D01*
X8642976Y-17571976D02*
X8642976Y-17467214D01*
X8633452Y-17448167D01*
X8614405Y-17438643D01*
X8576310Y-17438643D01*
X8557262Y-17448167D01*
X8642976Y-17562452D02*
X8623929Y-17571976D01*
X8576310Y-17571976D01*
X8557262Y-17562452D01*
X8547738Y-17543405D01*
X8547738Y-17524357D01*
X8557262Y-17505310D01*
X8576310Y-17495786D01*
X8623929Y-17495786D01*
X8642976Y-17486262D01*
X8709643Y-17438643D02*
X8785833Y-17438643D01*
X8738214Y-17371976D02*
X8738214Y-17543405D01*
X8747738Y-17562452D01*
X8766786Y-17571976D01*
X8785833Y-17571976D01*
X8928690Y-17562452D02*
X8909643Y-17571976D01*
X8871548Y-17571976D01*
X8852500Y-17562452D01*
X8842976Y-17543405D01*
X8842976Y-17467214D01*
X8852500Y-17448167D01*
X8871548Y-17438643D01*
X8909643Y-17438643D01*
X8928690Y-17448167D01*
X8938214Y-17467214D01*
X8938214Y-17486262D01*
X8842976Y-17505310D01*
X9109643Y-17571976D02*
X9109643Y-17371976D01*
X9109643Y-17562452D02*
X9090595Y-17571976D01*
X9052500Y-17571976D01*
X9033452Y-17562452D01*
X9023929Y-17552929D01*
X9014405Y-17533881D01*
X9014405Y-17476738D01*
X9023929Y-17457690D01*
X9033452Y-17448167D01*
X9052500Y-17438643D01*
X9090595Y-17438643D01*
X9109643Y-17448167D01*
X9185833Y-17648167D02*
X9195357Y-17638643D01*
X9214405Y-17610071D01*
X9223929Y-17591024D01*
X9233452Y-17562452D01*
X9242976Y-17514833D01*
X9242976Y-17476738D01*
X9233452Y-17429119D01*
X9223929Y-17400548D01*
X9214405Y-17381500D01*
X9195357Y-17352929D01*
X9185833Y-17343405D01*
X2213211Y-17872211D02*
X2213211Y-17730789D01*
X2071789Y-17730789D01*
X2071789Y-17872211D01*
X2213211Y-17872211D01*
X2585833Y-17758643D02*
X2585833Y-17891976D01*
X2538214Y-17682452D02*
X2490595Y-17825310D01*
X2614405Y-17825310D01*
X2690595Y-17872929D02*
X2700119Y-17882452D01*
X2690595Y-17891976D01*
X2681071Y-17882452D01*
X2690595Y-17872929D01*
X2690595Y-17891976D01*
X2823928Y-17691976D02*
X2842976Y-17691976D01*
X2862024Y-17701500D01*
X2871548Y-17711024D01*
X2881071Y-17730071D01*
X2890595Y-17768167D01*
X2890595Y-17815786D01*
X2881071Y-17853881D01*
X2871548Y-17872929D01*
X2862024Y-17882452D01*
X2842976Y-17891976D01*
X2823928Y-17891976D01*
X2804881Y-17882452D01*
X2795357Y-17872929D01*
X2785833Y-17853881D01*
X2776310Y-17815786D01*
X2776310Y-17768167D01*
X2785833Y-17730071D01*
X2795357Y-17711024D01*
X2804881Y-17701500D01*
X2823928Y-17691976D01*
X3014405Y-17691976D02*
X3033452Y-17691976D01*
X3052500Y-17701500D01*
X3062024Y-17711024D01*
X3071548Y-17730071D01*
X3081071Y-17768167D01*
X3081071Y-17815786D01*
X3071548Y-17853881D01*
X3062024Y-17872929D01*
X3052500Y-17882452D01*
X3033452Y-17891976D01*
X3014405Y-17891976D01*
X2995357Y-17882452D01*
X2985833Y-17872929D01*
X2976309Y-17853881D01*
X2966786Y-17815786D01*
X2966786Y-17768167D01*
X2976309Y-17730071D01*
X2985833Y-17711024D01*
X2995357Y-17701500D01*
X3014405Y-17691976D01*
X3204881Y-17691976D02*
X3223928Y-17691976D01*
X3242976Y-17701500D01*
X3252500Y-17711024D01*
X3262024Y-17730071D01*
X3271548Y-17768167D01*
X3271548Y-17815786D01*
X3262024Y-17853881D01*
X3252500Y-17872929D01*
X3242976Y-17882452D01*
X3223928Y-17891976D01*
X3204881Y-17891976D01*
X3185833Y-17882452D01*
X3176309Y-17872929D01*
X3166786Y-17853881D01*
X3157262Y-17815786D01*
X3157262Y-17768167D01*
X3166786Y-17730071D01*
X3176309Y-17711024D01*
X3185833Y-17701500D01*
X3204881Y-17691976D01*
X3357262Y-17891976D02*
X3357262Y-17758643D01*
X3357262Y-17777690D02*
X3366786Y-17768167D01*
X3385833Y-17758643D01*
X3414405Y-17758643D01*
X3433452Y-17768167D01*
X3442976Y-17787214D01*
X3442976Y-17891976D01*
X3442976Y-17787214D02*
X3452500Y-17768167D01*
X3471548Y-17758643D01*
X3500119Y-17758643D01*
X3519167Y-17768167D01*
X3528690Y-17787214D01*
X3528690Y-17891976D01*
X3623928Y-17891976D02*
X3623928Y-17758643D01*
X3623928Y-17777690D02*
X3633452Y-17768167D01*
X3652500Y-17758643D01*
X3681071Y-17758643D01*
X3700119Y-17768167D01*
X3709643Y-17787214D01*
X3709643Y-17891976D01*
X3709643Y-17787214D02*
X3719167Y-17768167D01*
X3738214Y-17758643D01*
X3766786Y-17758643D01*
X3785833Y-17768167D01*
X3795357Y-17787214D01*
X3795357Y-17891976D01*
X4185833Y-17682452D02*
X4014405Y-17939595D01*
X4442976Y-17691976D02*
X4462024Y-17691976D01*
X4481071Y-17701500D01*
X4490595Y-17711024D01*
X4500119Y-17730071D01*
X4509643Y-17768167D01*
X4509643Y-17815786D01*
X4500119Y-17853881D01*
X4490595Y-17872929D01*
X4481071Y-17882452D01*
X4462024Y-17891976D01*
X4442976Y-17891976D01*
X4423929Y-17882452D01*
X4414405Y-17872929D01*
X4404881Y-17853881D01*
X4395357Y-17815786D01*
X4395357Y-17768167D01*
X4404881Y-17730071D01*
X4414405Y-17711024D01*
X4423929Y-17701500D01*
X4442976Y-17691976D01*
X4595357Y-17872929D02*
X4604881Y-17882452D01*
X4595357Y-17891976D01*
X4585833Y-17882452D01*
X4595357Y-17872929D01*
X4595357Y-17891976D01*
X4795357Y-17891976D02*
X4681071Y-17891976D01*
X4738214Y-17891976D02*
X4738214Y-17691976D01*
X4719167Y-17720548D01*
X4700119Y-17739595D01*
X4681071Y-17749119D01*
X4976310Y-17691976D02*
X4881071Y-17691976D01*
X4871548Y-17787214D01*
X4881071Y-17777690D01*
X4900119Y-17768167D01*
X4947738Y-17768167D01*
X4966786Y-17777690D01*
X4976310Y-17787214D01*
X4985833Y-17806262D01*
X4985833Y-17853881D01*
X4976310Y-17872929D01*
X4966786Y-17882452D01*
X4947738Y-17891976D01*
X4900119Y-17891976D01*
X4881071Y-17882452D01*
X4871548Y-17872929D01*
X5052500Y-17691976D02*
X5185833Y-17691976D01*
X5100119Y-17891976D01*
X5357262Y-17691976D02*
X5262024Y-17691976D01*
X5252500Y-17787214D01*
X5262024Y-17777690D01*
X5281071Y-17768167D01*
X5328690Y-17768167D01*
X5347738Y-17777690D01*
X5357262Y-17787214D01*
X5366786Y-17806262D01*
X5366786Y-17853881D01*
X5357262Y-17872929D01*
X5347738Y-17882452D01*
X5328690Y-17891976D01*
X5281071Y-17891976D01*
X5262024Y-17882452D01*
X5252500Y-17872929D01*
X5442976Y-17691976D02*
X5442976Y-17730071D01*
X5519167Y-17691976D02*
X5519167Y-17730071D01*
X5814405Y-17968167D02*
X5804881Y-17958643D01*
X5785833Y-17930071D01*
X5776309Y-17911024D01*
X5766786Y-17882452D01*
X5757262Y-17834833D01*
X5757262Y-17796738D01*
X5766786Y-17749119D01*
X5776309Y-17720548D01*
X5785833Y-17701500D01*
X5804881Y-17672929D01*
X5814405Y-17663405D01*
X5976309Y-17758643D02*
X5976309Y-17891976D01*
X5928690Y-17682452D02*
X5881071Y-17825310D01*
X6004881Y-17825310D01*
X6166786Y-17758643D02*
X6166786Y-17891976D01*
X6119167Y-17682452D02*
X6071548Y-17825310D01*
X6195357Y-17825310D01*
X6423928Y-17891976D02*
X6423928Y-17691976D01*
X6509643Y-17891976D02*
X6509643Y-17787214D01*
X6500119Y-17768167D01*
X6481071Y-17758643D01*
X6452500Y-17758643D01*
X6433452Y-17768167D01*
X6423928Y-17777690D01*
X6633452Y-17891976D02*
X6614405Y-17882452D01*
X6604881Y-17872929D01*
X6595357Y-17853881D01*
X6595357Y-17796738D01*
X6604881Y-17777690D01*
X6614405Y-17768167D01*
X6633452Y-17758643D01*
X6662024Y-17758643D01*
X6681071Y-17768167D01*
X6690595Y-17777690D01*
X6700119Y-17796738D01*
X6700119Y-17853881D01*
X6690595Y-17872929D01*
X6681071Y-17882452D01*
X6662024Y-17891976D01*
X6633452Y-17891976D01*
X6814405Y-17891976D02*
X6795357Y-17882452D01*
X6785833Y-17863405D01*
X6785833Y-17691976D01*
X6966786Y-17882452D02*
X6947738Y-17891976D01*
X6909643Y-17891976D01*
X6890595Y-17882452D01*
X6881071Y-17863405D01*
X6881071Y-17787214D01*
X6890595Y-17768167D01*
X6909643Y-17758643D01*
X6947738Y-17758643D01*
X6966786Y-17768167D01*
X6976309Y-17787214D01*
X6976309Y-17806262D01*
X6881071Y-17825310D01*
X7052500Y-17882452D02*
X7071548Y-17891976D01*
X7109643Y-17891976D01*
X7128690Y-17882452D01*
X7138214Y-17863405D01*
X7138214Y-17853881D01*
X7128690Y-17834833D01*
X7109643Y-17825310D01*
X7081071Y-17825310D01*
X7062024Y-17815786D01*
X7052500Y-17796738D01*
X7052500Y-17787214D01*
X7062024Y-17768167D01*
X7081071Y-17758643D01*
X7109643Y-17758643D01*
X7128690Y-17768167D01*
X7204881Y-17968167D02*
X7214405Y-17958643D01*
X7233452Y-17930071D01*
X7242976Y-17911024D01*
X7252500Y-17882452D01*
X7262024Y-17834833D01*
X7262024Y-17796738D01*
X7252500Y-17749119D01*
X7242976Y-17720548D01*
X7233452Y-17701500D01*
X7214405Y-17672929D01*
X7204881Y-17663405D01*
X7566786Y-17968167D02*
X7557262Y-17958643D01*
X7538214Y-17930071D01*
X7528690Y-17911024D01*
X7519167Y-17882452D01*
X7509643Y-17834833D01*
X7509643Y-17796738D01*
X7519167Y-17749119D01*
X7528690Y-17720548D01*
X7538214Y-17701500D01*
X7557262Y-17672929D01*
X7566786Y-17663405D01*
X7642976Y-17758643D02*
X7642976Y-17891976D01*
X7642976Y-17777690D02*
X7652500Y-17768167D01*
X7671548Y-17758643D01*
X7700119Y-17758643D01*
X7719167Y-17768167D01*
X7728690Y-17787214D01*
X7728690Y-17891976D01*
X7852500Y-17891976D02*
X7833452Y-17882452D01*
X7823928Y-17872929D01*
X7814405Y-17853881D01*
X7814405Y-17796738D01*
X7823928Y-17777690D01*
X7833452Y-17768167D01*
X7852500Y-17758643D01*
X7881071Y-17758643D01*
X7900119Y-17768167D01*
X7909643Y-17777690D01*
X7919167Y-17796738D01*
X7919167Y-17853881D01*
X7909643Y-17872929D01*
X7900119Y-17882452D01*
X7881071Y-17891976D01*
X7852500Y-17891976D01*
X7976309Y-17758643D02*
X8052500Y-17758643D01*
X8004881Y-17691976D02*
X8004881Y-17863405D01*
X8014405Y-17882452D01*
X8033452Y-17891976D01*
X8052500Y-17891976D01*
X8271548Y-17758643D02*
X8271548Y-17958643D01*
X8271548Y-17768167D02*
X8290595Y-17758643D01*
X8328690Y-17758643D01*
X8347738Y-17768167D01*
X8357262Y-17777690D01*
X8366786Y-17796738D01*
X8366786Y-17853881D01*
X8357262Y-17872929D01*
X8347738Y-17882452D01*
X8328690Y-17891976D01*
X8290595Y-17891976D01*
X8271548Y-17882452D01*
X8481071Y-17891976D02*
X8462024Y-17882452D01*
X8452500Y-17863405D01*
X8452500Y-17691976D01*
X8642976Y-17891976D02*
X8642976Y-17787214D01*
X8633452Y-17768167D01*
X8614405Y-17758643D01*
X8576310Y-17758643D01*
X8557262Y-17768167D01*
X8642976Y-17882452D02*
X8623929Y-17891976D01*
X8576310Y-17891976D01*
X8557262Y-17882452D01*
X8547738Y-17863405D01*
X8547738Y-17844357D01*
X8557262Y-17825310D01*
X8576310Y-17815786D01*
X8623929Y-17815786D01*
X8642976Y-17806262D01*
X8709643Y-17758643D02*
X8785833Y-17758643D01*
X8738214Y-17691976D02*
X8738214Y-17863405D01*
X8747738Y-17882452D01*
X8766786Y-17891976D01*
X8785833Y-17891976D01*
X8928690Y-17882452D02*
X8909643Y-17891976D01*
X8871548Y-17891976D01*
X8852500Y-17882452D01*
X8842976Y-17863405D01*
X8842976Y-17787214D01*
X8852500Y-17768167D01*
X8871548Y-17758643D01*
X8909643Y-17758643D01*
X8928690Y-17768167D01*
X8938214Y-17787214D01*
X8938214Y-17806262D01*
X8842976Y-17825310D01*
X9109643Y-17891976D02*
X9109643Y-17691976D01*
X9109643Y-17882452D02*
X9090595Y-17891976D01*
X9052500Y-17891976D01*
X9033452Y-17882452D01*
X9023929Y-17872929D01*
X9014405Y-17853881D01*
X9014405Y-17796738D01*
X9023929Y-17777690D01*
X9033452Y-17768167D01*
X9052500Y-17758643D01*
X9090595Y-17758643D01*
X9109643Y-17768167D01*
X9185833Y-17968167D02*
X9195357Y-17958643D01*
X9214405Y-17930071D01*
X9223929Y-17911024D01*
X9233452Y-17882452D01*
X9242976Y-17834833D01*
X9242976Y-17796738D01*
X9233452Y-17749119D01*
X9223929Y-17720548D01*
X9214405Y-17701500D01*
X9195357Y-17672929D01*
X9185833Y-17663405D01*
M02*
