M48
; DRILL file {KiCad (6.0.7)} date Sun Feb  5 05:31:53 2023
; FORMAT={-:-/ absolute / metric / decimal}
; #@! TF.CreationDate,2023-02-05T05:31:53+01:00
; #@! TF.GenerationSoftware,Kicad,Pcbnew,(6.0.7)
; #@! TF.FileFunction,Plated,1,2,PTH
FMAT,2
METRIC
; #@! TA.AperFunction,Plated,PTH,ViaDrill
T1C0.400
; #@! TA.AperFunction,Plated,PTH,ComponentDrill
T2C0.600
; #@! TA.AperFunction,Plated,PTH,ComponentDrill
T3C0.800
; #@! TA.AperFunction,Plated,PTH,ComponentDrill
T4C0.991
; #@! TA.AperFunction,Plated,PTH,ComponentDrill
T5C1.000
%
G90
G05
T1
X28.8Y-54.7
X28.8Y-73.8
X28.8Y-160.8
X29.4Y-122.9
X30.0Y-142.4
X33.5Y-103.7
X47.0Y-54.7
X47.0Y-73.8
X47.0Y-122.9
X47.0Y-142.4
X47.0Y-160.8
X61.2Y-103.7
X65.9Y-142.4
X66.0Y-54.7
X66.0Y-73.8
X66.0Y-122.9
X66.0Y-160.8
X96.0Y-54.7
X96.0Y-73.8
X96.0Y-103.7
X96.0Y-122.9
X96.0Y-142.4
X112.6Y-160.8
X115.0Y-54.7
X115.0Y-73.8
X115.0Y-103.7
X115.0Y-122.9
X115.0Y-142.4
X129.55Y-68.5
X130.65Y-75.15
X131.7Y-48.75
X132.0Y-46.9
X133.25Y-76.55
X134.0Y-54.7
X134.0Y-73.8
X134.0Y-103.7
X134.0Y-122.9
X134.0Y-142.4
X147.41Y-56.0
X150.7Y-160.8
X152.9Y-54.7
X153.0Y-73.8
X153.0Y-103.7
X153.0Y-122.9
X153.0Y-142.4
X154.9Y-146.2
X156.7Y-127.2
X157.1Y-40.2
X157.1Y-59.3
X157.2Y-89.1
X157.3Y-108.1
X167.7Y-149.9
X168.5Y-69.1
X171.3Y-47.5
X171.8Y-75.4
X172.3Y-76.5
X173.0Y-71.5
X173.3Y-56.0
X173.6Y-69.1
X178.2Y-69.1
X178.6Y-56.0
X181.0Y-67.8
X183.8Y-73.8
X188.6Y-54.7
X193.5Y-86.8
X196.0Y-85.1
X196.41Y-63.9
X198.5Y-83.2
X201.0Y-97.4
X201.1Y-87.7
X201.9Y-73.8
X203.5Y-89.6
X204.7Y-91.5
X206.2Y-88.7
X207.3Y-96.4
X207.452Y-85.0
X208.5Y-84.1
X209.4Y-99.7
X211.3Y-73.8
X215.2Y-54.7
X218.1Y-70.7
X219.7Y-73.8
X221.4Y-98.7
X224.0Y-97.5
X224.9Y-59.3
X225.0Y-56.05
X227.663Y-80.572
T3
X185.87Y-79.38
X185.87Y-94.62
X188.41Y-79.38
X188.41Y-94.62
X190.95Y-79.38
X190.95Y-94.62
X193.49Y-79.38
X193.49Y-94.62
X196.03Y-79.38
X196.03Y-94.62
X198.57Y-79.38
X198.57Y-94.62
X201.11Y-79.38
X201.11Y-94.62
X203.65Y-79.38
X203.65Y-94.62
X206.19Y-79.38
X206.19Y-94.62
X208.73Y-79.38
X208.73Y-94.62
X211.27Y-79.38
X211.27Y-94.62
X213.81Y-79.38
X213.81Y-94.62
X216.35Y-79.38
X216.35Y-94.62
X218.89Y-79.38
X218.89Y-94.62
X221.43Y-79.38
X221.43Y-94.62
X223.97Y-79.38
X223.97Y-94.62
X226.51Y-79.38
X226.51Y-94.62
X229.05Y-79.38
X229.05Y-94.62
X231.59Y-79.38
X231.59Y-94.62
X234.13Y-79.38
X234.13Y-94.62
T4
X32.73Y-41.92
X32.73Y-60.92
X32.73Y-109.92
X32.73Y-128.92
X32.73Y-147.92
X35.27Y-41.92
X35.27Y-60.92
X35.27Y-109.92
X35.27Y-128.92
X35.27Y-147.92
X37.48Y-90.92
X40.02Y-90.92
X51.73Y-41.92
X51.73Y-60.92
X51.73Y-109.92
X51.73Y-128.92
X51.73Y-147.92
X54.27Y-41.92
X54.27Y-60.92
X54.27Y-109.92
X54.27Y-128.92
X54.27Y-147.92
X66.03Y-90.92
X68.57Y-90.92
X70.73Y-41.92
X70.73Y-60.92
X70.73Y-109.92
X70.73Y-128.92
X70.73Y-147.92
X73.27Y-41.92
X73.27Y-60.92
X73.27Y-109.92
X73.27Y-128.92
X73.27Y-147.92
X100.73Y-41.92
X100.73Y-60.92
X100.73Y-90.92
X100.73Y-109.92
X100.73Y-128.92
X103.27Y-41.92
X103.27Y-60.92
X103.27Y-90.92
X103.27Y-109.92
X103.27Y-128.92
X117.33Y-147.92
X119.73Y-41.92
X119.73Y-60.92
X119.73Y-90.92
X119.73Y-109.92
X119.73Y-128.92
X119.87Y-147.92
X122.27Y-41.92
X122.27Y-60.92
X122.27Y-90.92
X122.27Y-109.92
X122.27Y-128.92
X138.73Y-41.92
X138.73Y-60.92
X138.73Y-90.92
X138.73Y-109.92
X138.73Y-128.92
X141.27Y-41.92
X141.27Y-60.92
X141.27Y-90.92
X141.27Y-109.92
X141.27Y-128.92
X155.43Y-147.92
X157.73Y-41.92
X157.73Y-60.92
X157.73Y-90.92
X157.73Y-109.92
X157.73Y-128.92
X157.97Y-147.92
X160.27Y-41.92
X160.27Y-60.92
X160.27Y-90.92
X160.27Y-109.92
X160.27Y-128.92
X187.73Y-60.92
X190.27Y-60.92
X192.48Y-41.92
X195.02Y-41.92
X206.73Y-60.92
X209.27Y-60.92
X220.98Y-41.92
X223.52Y-41.92
X225.73Y-60.92
X228.27Y-60.92
T5
X226.92Y-101.5
X229.46Y-101.5
X232.0Y-101.5
X234.54Y-101.5
T2
X126.68Y-39.16G85X126.68Y-39.96
G05
X126.68Y-43.18G85X126.68Y-44.28
G05
X135.32Y-39.16G85X135.32Y-39.96
G05
X135.32Y-43.18G85X135.32Y-44.28
G05
T0
M30
