G04 #@! TF.GenerationSoftware,KiCad,Pcbnew,(6.0.7)*
G04 #@! TF.CreationDate,2023-02-05T05:30:46+01:00*
G04 #@! TF.ProjectId,DaVinciKbd,44615669-6e63-4694-9b62-642e6b696361,rev?*
G04 #@! TF.SameCoordinates,Original*
G04 #@! TF.FileFunction,Copper,L2,Bot*
G04 #@! TF.FilePolarity,Positive*
%FSLAX46Y46*%
G04 Gerber Fmt 4.6, Leading zero omitted, Abs format (unit mm)*
G04 Created by KiCad (PCBNEW (6.0.7)) date 2023-02-05 05:30:46*
%MOMM*%
%LPD*%
G01*
G04 APERTURE LIST*
G04 Aperture macros list*
%AMRoundRect*
0 Rectangle with rounded corners*
0 $1 Rounding radius*
0 $2 $3 $4 $5 $6 $7 $8 $9 X,Y pos of 4 corners*
0 Add a 4 corners polygon primitive as box body*
4,1,4,$2,$3,$4,$5,$6,$7,$8,$9,$2,$3,0*
0 Add four circle primitives for the rounded corners*
1,1,$1+$1,$2,$3*
1,1,$1+$1,$4,$5*
1,1,$1+$1,$6,$7*
1,1,$1+$1,$8,$9*
0 Add four rect primitives between the rounded corners*
20,1,$1+$1,$2,$3,$4,$5,0*
20,1,$1+$1,$4,$5,$6,$7,0*
20,1,$1+$1,$6,$7,$8,$9,0*
20,1,$1+$1,$8,$9,$2,$3,0*%
G04 Aperture macros list end*
G04 #@! TA.AperFunction,SMDPad,CuDef*
%ADD10R,2.550000X2.500000*%
G04 #@! TD*
G04 #@! TA.AperFunction,ComponentPad*
%ADD11C,1.690600*%
G04 #@! TD*
G04 #@! TA.AperFunction,SMDPad,CuDef*
%ADD12RoundRect,0.218750X-0.218750X-0.256250X0.218750X-0.256250X0.218750X0.256250X-0.218750X0.256250X0*%
G04 #@! TD*
G04 #@! TA.AperFunction,ComponentPad*
%ADD13R,1.700000X1.700000*%
G04 #@! TD*
G04 #@! TA.AperFunction,ComponentPad*
%ADD14O,1.700000X1.700000*%
G04 #@! TD*
G04 #@! TA.AperFunction,SMDPad,CuDef*
%ADD15RoundRect,0.218750X-0.256250X0.218750X-0.256250X-0.218750X0.256250X-0.218750X0.256250X0.218750X0*%
G04 #@! TD*
G04 #@! TA.AperFunction,ComponentPad*
%ADD16C,1.524000*%
G04 #@! TD*
G04 #@! TA.AperFunction,SMDPad,CuDef*
%ADD17RoundRect,0.218750X0.256250X-0.218750X0.256250X0.218750X-0.256250X0.218750X-0.256250X-0.218750X0*%
G04 #@! TD*
G04 #@! TA.AperFunction,SMDPad,CuDef*
%ADD18R,0.600000X1.160000*%
G04 #@! TD*
G04 #@! TA.AperFunction,SMDPad,CuDef*
%ADD19R,0.300000X1.160000*%
G04 #@! TD*
G04 #@! TA.AperFunction,ComponentPad*
%ADD20O,0.900000X1.700000*%
G04 #@! TD*
G04 #@! TA.AperFunction,ComponentPad*
%ADD21O,0.900000X2.000000*%
G04 #@! TD*
G04 #@! TA.AperFunction,SMDPad,CuDef*
%ADD22R,2.500000X1.800000*%
G04 #@! TD*
G04 #@! TA.AperFunction,ViaPad*
%ADD23C,0.800000*%
G04 #@! TD*
G04 #@! TA.AperFunction,Conductor*
%ADD24C,0.600000*%
G04 #@! TD*
G04 #@! TA.AperFunction,Conductor*
%ADD25C,0.400000*%
G04 #@! TD*
G04 #@! TA.AperFunction,Conductor*
%ADD26C,0.800000*%
G04 #@! TD*
G04 #@! TA.AperFunction,Conductor*
%ADD27C,0.250000*%
G04 #@! TD*
G04 APERTURE END LIST*
D10*
X41410000Y-49540000D03*
X27985000Y-52080000D03*
D11*
X35270000Y-41920000D03*
X32730000Y-41920000D03*
D10*
X41410000Y-68540000D03*
X27985000Y-71080000D03*
D11*
X35270000Y-60920000D03*
X32730000Y-60920000D03*
D10*
X41410000Y-117540000D03*
X27985000Y-120080000D03*
D11*
X35270000Y-109920000D03*
X32730000Y-109920000D03*
D10*
X41410000Y-136540000D03*
X27985000Y-139080000D03*
D11*
X35270000Y-128920000D03*
X32730000Y-128920000D03*
D10*
X41410000Y-155540000D03*
X27985000Y-158080000D03*
D11*
X35270000Y-147920000D03*
X32730000Y-147920000D03*
D10*
X60410000Y-49540000D03*
X46985000Y-52080000D03*
D11*
X54270000Y-41920000D03*
X51730000Y-41920000D03*
D10*
X60410000Y-68540000D03*
X46985000Y-71080000D03*
D11*
X54270000Y-60920000D03*
X51730000Y-60920000D03*
D10*
X60410000Y-117540000D03*
X46985000Y-120080000D03*
D11*
X54270000Y-109920000D03*
X51730000Y-109920000D03*
D10*
X60410000Y-136540000D03*
X46985000Y-139080000D03*
D11*
X54270000Y-128920000D03*
X51730000Y-128920000D03*
D10*
X60410000Y-155540000D03*
X46985000Y-158080000D03*
D11*
X54270000Y-147920000D03*
X51730000Y-147920000D03*
D10*
X79410000Y-49540000D03*
X65985000Y-52080000D03*
D11*
X73270000Y-41920000D03*
X70730000Y-41920000D03*
D10*
X79410000Y-68540000D03*
X65985000Y-71080000D03*
D11*
X73270000Y-60920000D03*
X70730000Y-60920000D03*
D10*
X79410000Y-117540000D03*
X65985000Y-120080000D03*
D11*
X73270000Y-109920000D03*
X70730000Y-109920000D03*
D10*
X79410000Y-136540000D03*
X65985000Y-139080000D03*
D11*
X73270000Y-128920000D03*
X70730000Y-128920000D03*
D10*
X79410000Y-155540000D03*
X65985000Y-158080000D03*
D11*
X73270000Y-147920000D03*
X70730000Y-147920000D03*
D10*
X201160000Y-49540000D03*
X187735000Y-52080000D03*
D11*
X195020000Y-41920000D03*
X192480000Y-41920000D03*
D10*
X196410000Y-68540000D03*
X182985000Y-71080000D03*
D11*
X190270000Y-60920000D03*
X187730000Y-60920000D03*
D10*
X215410000Y-68540000D03*
X201985000Y-71080000D03*
D11*
X209270000Y-60920000D03*
X206730000Y-60920000D03*
D10*
X234410000Y-68540000D03*
X220985000Y-71080000D03*
D11*
X228270000Y-60920000D03*
X225730000Y-60920000D03*
D10*
X46160000Y-98540000D03*
X32735000Y-101080000D03*
D11*
X40020000Y-90920000D03*
X37480000Y-90920000D03*
D10*
X109410000Y-68540000D03*
X95985000Y-71080000D03*
D11*
X103270000Y-60920000D03*
X100730000Y-60920000D03*
D10*
X147410000Y-49540000D03*
X133985000Y-52080000D03*
D11*
X141270000Y-41920000D03*
X138730000Y-41920000D03*
D10*
X128410000Y-68540000D03*
X114985000Y-71080000D03*
D11*
X122270000Y-60920000D03*
X119730000Y-60920000D03*
D10*
X109410000Y-49540000D03*
X95985000Y-52080000D03*
D11*
X103270000Y-41920000D03*
X100730000Y-41920000D03*
D10*
X147410000Y-68540000D03*
X133985000Y-71080000D03*
D11*
X141270000Y-60920000D03*
X138730000Y-60920000D03*
D10*
X128410000Y-49540000D03*
X114985000Y-52080000D03*
D11*
X122270000Y-41920000D03*
X119730000Y-41920000D03*
D10*
X166410000Y-68540000D03*
X152985000Y-71080000D03*
D11*
X160270000Y-60920000D03*
X157730000Y-60920000D03*
D10*
X166410000Y-49540000D03*
X152985000Y-52080000D03*
D11*
X160270000Y-41920000D03*
X157730000Y-41920000D03*
D10*
X164110000Y-155540000D03*
X150685000Y-158080000D03*
D11*
X157970000Y-147920000D03*
X155430000Y-147920000D03*
D10*
X166410000Y-136540000D03*
X152985000Y-139080000D03*
D11*
X160270000Y-128920000D03*
X157730000Y-128920000D03*
D10*
X166410000Y-98540000D03*
X152985000Y-101080000D03*
D11*
X160270000Y-90920000D03*
X157730000Y-90920000D03*
D10*
X147410000Y-136540000D03*
X133985000Y-139080000D03*
D11*
X141270000Y-128920000D03*
X138730000Y-128920000D03*
D10*
X147410000Y-117540000D03*
X133985000Y-120080000D03*
D11*
X141270000Y-109920000D03*
X138730000Y-109920000D03*
D10*
X128410000Y-117540000D03*
X114985000Y-120080000D03*
D11*
X122270000Y-109920000D03*
X119730000Y-109920000D03*
D10*
X109410000Y-117540000D03*
X95985000Y-120080000D03*
D11*
X103270000Y-109920000D03*
X100730000Y-109920000D03*
D10*
X147410000Y-98540000D03*
X133985000Y-101080000D03*
D11*
X141270000Y-90920000D03*
X138730000Y-90920000D03*
D10*
X126010000Y-155540000D03*
X112585000Y-158080000D03*
D11*
X119870000Y-147920000D03*
X117330000Y-147920000D03*
D10*
X166410000Y-117540000D03*
X152985000Y-120080000D03*
D11*
X160270000Y-109920000D03*
X157730000Y-109920000D03*
D10*
X128410000Y-136540000D03*
X114985000Y-139080000D03*
D11*
X122270000Y-128920000D03*
X119730000Y-128920000D03*
D10*
X109410000Y-136540000D03*
X95985000Y-139080000D03*
D11*
X103270000Y-128920000D03*
X100730000Y-128920000D03*
D10*
X128410000Y-98540000D03*
X114985000Y-101080000D03*
D11*
X122270000Y-90920000D03*
X119730000Y-90920000D03*
D10*
X229660000Y-49540000D03*
X216235000Y-52080000D03*
D11*
X223520000Y-41920000D03*
X220980000Y-41920000D03*
D10*
X74710000Y-98540000D03*
X61285000Y-101080000D03*
D11*
X68570000Y-90920000D03*
X66030000Y-90920000D03*
D10*
X109410000Y-98540000D03*
X95985000Y-101080000D03*
D11*
X103270000Y-90920000D03*
X100730000Y-90920000D03*
D12*
X124212500Y-129000000D03*
X125787500Y-129000000D03*
D13*
X226920000Y-101500000D03*
D14*
X229460000Y-101500000D03*
X232000000Y-101500000D03*
X234540000Y-101500000D03*
D15*
X155700000Y-40312500D03*
X155700000Y-41887500D03*
X155700000Y-59412500D03*
X155700000Y-60987500D03*
X155600000Y-89212500D03*
X155600000Y-90787500D03*
X153400000Y-146212500D03*
X153400000Y-147787500D03*
X223700000Y-59412500D03*
X223700000Y-60987500D03*
D12*
X37500000Y-148000000D03*
X39075000Y-148000000D03*
X56500000Y-148000000D03*
X58075000Y-148000000D03*
X75712500Y-148000000D03*
X77287500Y-148000000D03*
X122212500Y-148000000D03*
X123787500Y-148000000D03*
X143212500Y-129000000D03*
X144787500Y-129000000D03*
X160212500Y-148000000D03*
X161787500Y-148000000D03*
D16*
X229050000Y-79380000D03*
X185870000Y-94620000D03*
X190950000Y-94620000D03*
X188410000Y-94620000D03*
X234130000Y-79380000D03*
X231590000Y-79380000D03*
X226510000Y-79380000D03*
X196030000Y-79380000D03*
X198570000Y-79380000D03*
X201110000Y-79380000D03*
X203650000Y-79380000D03*
X206190000Y-79380000D03*
X208730000Y-79380000D03*
X211270000Y-79380000D03*
X213810000Y-79380000D03*
X223970000Y-94620000D03*
X221430000Y-94620000D03*
X218890000Y-94620000D03*
X216350000Y-94620000D03*
X213810000Y-94620000D03*
X211270000Y-94620000D03*
X216350000Y-79380000D03*
X218890000Y-79380000D03*
X208730000Y-94620000D03*
X206190000Y-94620000D03*
X203650000Y-94620000D03*
X201110000Y-94620000D03*
X198570000Y-94620000D03*
X196030000Y-94620000D03*
X193490000Y-94620000D03*
X221430000Y-79380000D03*
X223970000Y-79380000D03*
X234130000Y-94620000D03*
X231590000Y-94620000D03*
X229050000Y-94620000D03*
X226510000Y-94620000D03*
X188410000Y-79380000D03*
X190950000Y-79380000D03*
X193490000Y-79380000D03*
X185870000Y-79380000D03*
D17*
X235550000Y-52787500D03*
X235550000Y-51212500D03*
D15*
X155400000Y-127312500D03*
X155400000Y-128887500D03*
X155700000Y-108412500D03*
X155700000Y-109987500D03*
D17*
X124500000Y-45087500D03*
X124500000Y-43512500D03*
X137300000Y-45087500D03*
X137300000Y-43512500D03*
X233900000Y-52787500D03*
X233900000Y-51212500D03*
D18*
X127800000Y-44310000D03*
X128600000Y-44310000D03*
D19*
X129750000Y-44310000D03*
X130750000Y-44310000D03*
X131250000Y-44310000D03*
X132250000Y-44310000D03*
D18*
X133400000Y-44310000D03*
X134200000Y-44310000D03*
X134200000Y-44310000D03*
X133400000Y-44310000D03*
D19*
X132750000Y-44310000D03*
X131750000Y-44310000D03*
X130250000Y-44310000D03*
X129250000Y-44310000D03*
D18*
X128600000Y-44310000D03*
X127800000Y-44310000D03*
D20*
X126680000Y-39560000D03*
X135320000Y-39560000D03*
D21*
X126680000Y-43730000D03*
X135320000Y-43730000D03*
D22*
X184300000Y-101400000D03*
X180300000Y-101400000D03*
D23*
X221400000Y-98700000D03*
X224000000Y-97500000D03*
X208499988Y-84099988D03*
X152900000Y-54700000D03*
X47000000Y-54700000D03*
X115000000Y-54700000D03*
X28800000Y-54700000D03*
X134000000Y-54700000D03*
X96000000Y-54700000D03*
X66000000Y-54700000D03*
X157100000Y-40200000D03*
X28800000Y-73800000D03*
X96000000Y-73800000D03*
X198500000Y-83200000D03*
X47000000Y-73800000D03*
X66000000Y-73800000D03*
X134000000Y-73800000D03*
X153000000Y-73800000D03*
X115000000Y-73800000D03*
X153000000Y-103700000D03*
X201100000Y-87700000D03*
X115000000Y-103700000D03*
X96000000Y-103700000D03*
X134000000Y-103700000D03*
X61200000Y-103700000D03*
X33500000Y-103700000D03*
X157100000Y-59300000D03*
X115000000Y-122900000D03*
X204700000Y-91500000D03*
X29400000Y-122900000D03*
X134000000Y-122900000D03*
X47000000Y-122900000D03*
X66000000Y-122900000D03*
X96000000Y-122900000D03*
X153000000Y-122900000D03*
X157200000Y-89100000D03*
X157300000Y-108100000D03*
X207300000Y-96400000D03*
X96000000Y-142400000D03*
X30000000Y-142400000D03*
X65900000Y-142400000D03*
X134000000Y-142400000D03*
X153000000Y-142400000D03*
X47000000Y-142400000D03*
X115000000Y-142400000D03*
X66000000Y-160800000D03*
X112600000Y-160800000D03*
X28800000Y-160800000D03*
X215200000Y-54700000D03*
X150700000Y-160800000D03*
X209400000Y-99700000D03*
X188600000Y-54700000D03*
X47000000Y-160800000D03*
X156700000Y-127200000D03*
X206200000Y-88700000D03*
X203500000Y-89600000D03*
X201000000Y-97400000D03*
X207452001Y-84999990D03*
X196000000Y-85099979D03*
X193500000Y-86800000D03*
X154900000Y-146200000D03*
X201900000Y-73800000D03*
X219700000Y-73800000D03*
X211300000Y-73800000D03*
X183800000Y-73800000D03*
X196410000Y-63900000D03*
X173000000Y-71500000D03*
X181000000Y-67800000D03*
X129550000Y-68500000D03*
X178600000Y-56000000D03*
X147410000Y-56000000D03*
X173300000Y-56000000D03*
X225000000Y-56050000D03*
X178200000Y-69100000D03*
X173600000Y-69100000D03*
X168500000Y-69100000D03*
X218100000Y-70700000D03*
X227662821Y-80572001D03*
X224900000Y-59300000D03*
X171300000Y-47500000D03*
X167700000Y-149900000D03*
X133250000Y-76550000D03*
X131700000Y-48750000D03*
X132000000Y-46900000D03*
X172300000Y-76500000D03*
X171800000Y-75400000D03*
X130650000Y-75150000D03*
D24*
X229050000Y-80457630D02*
X227772001Y-81735629D01*
X227772001Y-99197999D02*
X226920000Y-100050000D01*
X229050000Y-79380000D02*
X229050000Y-80457630D01*
X226920000Y-100050000D02*
X226920000Y-101500000D01*
X227772001Y-81735629D02*
X227772001Y-99197999D01*
X221430000Y-94620000D02*
X221430000Y-98670000D01*
X221430000Y-98670000D02*
X221400000Y-98700000D01*
X223970000Y-97470000D02*
X224000000Y-97500000D01*
X223970000Y-94620000D02*
X223970000Y-97470000D01*
X35270000Y-51970002D02*
X31499999Y-48200001D01*
X31499999Y-116200001D02*
X31499999Y-113690001D01*
X40020000Y-90920000D02*
X40020000Y-76679998D01*
X31499999Y-113690001D02*
X34424701Y-110765299D01*
X208730000Y-94620000D02*
X208730000Y-93542370D01*
X34424701Y-61765299D02*
X35270000Y-60920000D01*
X35270000Y-109920000D02*
X38210001Y-106979999D01*
X38210001Y-106979999D02*
X38210001Y-100119999D01*
X31499999Y-48200001D02*
X31499999Y-45690001D01*
X37500000Y-148000000D02*
X35350000Y-148000000D01*
X35350000Y-148000000D02*
X35270000Y-147920000D01*
X34424701Y-42765299D02*
X35270000Y-41920000D01*
X39174701Y-91765299D02*
X40020000Y-90920000D01*
X35270000Y-128920000D02*
X35270000Y-119970002D01*
X40020000Y-76679998D02*
X31499999Y-68159997D01*
X31499999Y-45690001D02*
X34424701Y-42765299D01*
X35270000Y-147920000D02*
X35270000Y-138970002D01*
X31499999Y-64690001D02*
X34424701Y-61765299D01*
X38210001Y-100119999D02*
X36249999Y-98159997D01*
X208730000Y-84330000D02*
X208499988Y-84099988D01*
X35270000Y-138970002D02*
X31499999Y-135200001D01*
X31499999Y-68159997D02*
X31499999Y-64690001D01*
X34424701Y-129765299D02*
X35270000Y-128920000D01*
X208730000Y-93542370D02*
X208730000Y-84330000D01*
X31499999Y-132690001D02*
X34424701Y-129765299D01*
X31499999Y-135200001D02*
X31499999Y-132690001D01*
X36249999Y-94690001D02*
X39174701Y-91765299D01*
X35270000Y-119970002D02*
X31499999Y-116200001D01*
X35270000Y-60920000D02*
X35270000Y-51970002D01*
X208730000Y-93542370D02*
X208700000Y-93512370D01*
X36249999Y-98159997D02*
X36249999Y-94690001D01*
X34424701Y-110765299D02*
X35270000Y-109920000D01*
X133985000Y-52080000D02*
X133985000Y-54685000D01*
X46985000Y-54685000D02*
X47000000Y-54700000D01*
X65985000Y-52080000D02*
X65985000Y-54685000D01*
X46985000Y-52080000D02*
X46985000Y-54685000D01*
X95985000Y-52080000D02*
X95985000Y-54685000D01*
X27985000Y-52080000D02*
X27985000Y-53885000D01*
X95985000Y-54685000D02*
X96000000Y-54700000D01*
X27985000Y-53885000D02*
X28800000Y-54700000D01*
X114985000Y-52080000D02*
X114985000Y-54685000D01*
X133985000Y-54685000D02*
X134000000Y-54700000D01*
X152900000Y-54700000D02*
X152900000Y-52165000D01*
X114985000Y-54685000D02*
X115000000Y-54700000D01*
X152900000Y-52165000D02*
X152985000Y-52080000D01*
X65985000Y-54685000D02*
X66000000Y-54700000D01*
X157100000Y-40200000D02*
X155812500Y-40200000D01*
X155812500Y-40200000D02*
X155700000Y-40312500D01*
X65985000Y-71080000D02*
X65985000Y-73785000D01*
X95985000Y-71080000D02*
X95985000Y-73785000D01*
X46985000Y-71080000D02*
X46985000Y-73785000D01*
X46985000Y-73785000D02*
X47000000Y-73800000D01*
X153000000Y-71095000D02*
X152985000Y-71080000D01*
X65985000Y-73785000D02*
X66000000Y-73800000D01*
X114985000Y-71080000D02*
X114985000Y-73785000D01*
X153000000Y-73800000D02*
X153000000Y-71095000D01*
X133985000Y-71080000D02*
X133985000Y-73785000D01*
X114985000Y-73785000D02*
X115000000Y-73800000D01*
X95985000Y-73785000D02*
X96000000Y-73800000D01*
X133985000Y-73785000D02*
X134000000Y-73800000D01*
X198500000Y-79450000D02*
X198570000Y-79380000D01*
X27985000Y-72985000D02*
X28800000Y-73800000D01*
X198500000Y-83200000D02*
X198500000Y-79450000D01*
X27985000Y-71080000D02*
X27985000Y-72985000D01*
X61235000Y-101080000D02*
X61235000Y-103665000D01*
X153000000Y-101095000D02*
X152985000Y-101080000D01*
X95985000Y-103685000D02*
X96000000Y-103700000D01*
X133985000Y-101080000D02*
X133985000Y-103685000D01*
X201110000Y-79380000D02*
X201110000Y-87690000D01*
X32735000Y-102935000D02*
X33500000Y-103700000D01*
X133985000Y-103685000D02*
X134000000Y-103700000D01*
X32735000Y-101080000D02*
X32735000Y-102935000D01*
X95985000Y-101080000D02*
X95985000Y-103685000D01*
X114985000Y-101080000D02*
X114985000Y-103685000D01*
X114985000Y-103685000D02*
X115000000Y-103700000D01*
X153000000Y-103700000D02*
X153000000Y-101095000D01*
X201110000Y-87690000D02*
X201100000Y-87700000D01*
X61235000Y-103665000D02*
X61200000Y-103700000D01*
X155812500Y-59300000D02*
X155700000Y-59412500D01*
X157100000Y-59300000D02*
X155812500Y-59300000D01*
X133985000Y-120080000D02*
X133985000Y-122885000D01*
X133985000Y-122885000D02*
X134000000Y-122900000D01*
X153000000Y-122900000D02*
X153000000Y-120095000D01*
X114985000Y-122885000D02*
X115000000Y-122900000D01*
X95985000Y-122885000D02*
X96000000Y-122900000D01*
X65985000Y-120080000D02*
X65985000Y-122885000D01*
X46985000Y-120080000D02*
X46985000Y-122885000D01*
X95985000Y-120080000D02*
X95985000Y-122885000D01*
X27985000Y-120080000D02*
X27985000Y-121485000D01*
X153000000Y-120095000D02*
X152985000Y-120080000D01*
X204700000Y-80430000D02*
X203650000Y-79380000D01*
X46985000Y-122885000D02*
X47000000Y-122900000D01*
X27985000Y-121485000D02*
X29400000Y-122900000D01*
X114985000Y-120080000D02*
X114985000Y-122885000D01*
X204700000Y-91500000D02*
X204700000Y-80430000D01*
X65985000Y-122885000D02*
X66000000Y-122900000D01*
X157200000Y-89100000D02*
X155712500Y-89100000D01*
X155712500Y-89100000D02*
X155600000Y-89212500D01*
X157300000Y-108100000D02*
X156012500Y-108100000D01*
X156012500Y-108100000D02*
X155700000Y-108412500D01*
X207452001Y-95682314D02*
X207452001Y-87252001D01*
X133985000Y-139080000D02*
X133985000Y-142385000D01*
X27985000Y-140385000D02*
X30000000Y-142400000D01*
X95985000Y-139080000D02*
X95985000Y-142385000D01*
X46985000Y-142385000D02*
X47000000Y-142400000D01*
X153000000Y-142400000D02*
X153000000Y-139095000D01*
X133985000Y-142385000D02*
X134000000Y-142400000D01*
X27985000Y-139080000D02*
X27985000Y-140385000D01*
X207300000Y-95834315D02*
X207452001Y-95682314D01*
X153000000Y-139095000D02*
X152985000Y-139080000D01*
X207300000Y-96400000D02*
X207300000Y-95834315D01*
X46985000Y-139080000D02*
X46985000Y-142385000D01*
X95985000Y-142385000D02*
X96000000Y-142400000D01*
X114985000Y-139080000D02*
X114985000Y-142385000D01*
X207452001Y-87252001D02*
X206190000Y-85990000D01*
X206190000Y-79380000D02*
X206190000Y-80457630D01*
X65985000Y-139080000D02*
X65985000Y-142315000D01*
X206190000Y-85990000D02*
X206190000Y-79380000D01*
X65985000Y-142315000D02*
X65900000Y-142400000D01*
X114985000Y-142385000D02*
X115000000Y-142400000D01*
X46985000Y-158080000D02*
X46985000Y-160785000D01*
X150700000Y-160800000D02*
X150700000Y-158095000D01*
D25*
X208730000Y-79380000D02*
X208730000Y-68822002D01*
D24*
X112585000Y-158080000D02*
X112585000Y-160785000D01*
X209992001Y-80642001D02*
X209491999Y-80141999D01*
X150700000Y-158095000D02*
X150685000Y-158080000D01*
X65985000Y-160785000D02*
X66000000Y-160800000D01*
X187735000Y-53835000D02*
X188600000Y-54700000D01*
X215200000Y-54700000D02*
X216235000Y-53665000D01*
X27985000Y-158080000D02*
X27985000Y-159985000D01*
X209400000Y-99134315D02*
X209992001Y-98542314D01*
X209491999Y-80141999D02*
X208730000Y-79380000D01*
X65985000Y-158080000D02*
X65985000Y-160785000D01*
D25*
X208730000Y-68822002D02*
X215200000Y-62352002D01*
D24*
X209992001Y-98542314D02*
X209992001Y-80642001D01*
X112585000Y-160785000D02*
X112600000Y-160800000D01*
D25*
X215200000Y-62352002D02*
X215200000Y-55265685D01*
D24*
X216235000Y-53665000D02*
X216235000Y-52080000D01*
X209400000Y-99700000D02*
X209400000Y-99134315D01*
D25*
X215200000Y-55265685D02*
X215200000Y-54700000D01*
D24*
X46985000Y-160785000D02*
X47000000Y-160800000D01*
X187735000Y-52080000D02*
X187735000Y-53835000D01*
X27985000Y-159985000D02*
X28800000Y-160800000D01*
X156700000Y-127200000D02*
X155512500Y-127200000D01*
X155512500Y-127200000D02*
X155400000Y-127312500D01*
X55115299Y-109074701D02*
X55115299Y-71815301D01*
X50499999Y-67200001D02*
X50499999Y-64690001D01*
X54270000Y-128920000D02*
X54270000Y-119970002D01*
X56420000Y-147920000D02*
X56500000Y-148000000D01*
X54270000Y-109920000D02*
X55115299Y-109074701D01*
X55115299Y-71815301D02*
X50499999Y-67200001D01*
X50499999Y-132690001D02*
X53424701Y-129765299D01*
X50499999Y-113690001D02*
X53424701Y-110765299D01*
X53424701Y-129765299D02*
X54270000Y-128920000D01*
X206200000Y-88700000D02*
X206200000Y-94610000D01*
X53424701Y-110765299D02*
X54270000Y-109920000D01*
X50499999Y-48200001D02*
X50499999Y-45690001D01*
X50499999Y-64690001D02*
X53424701Y-61765299D01*
X50499999Y-135200001D02*
X50499999Y-132690001D01*
X50499999Y-116200001D02*
X50499999Y-113690001D01*
X54270000Y-119970002D02*
X50499999Y-116200001D01*
X206200000Y-94610000D02*
X206190000Y-94620000D01*
X54270000Y-147920000D02*
X56420000Y-147920000D01*
X54270000Y-51970002D02*
X50499999Y-48200001D01*
X54270000Y-60920000D02*
X54270000Y-51970002D01*
X53424701Y-61765299D02*
X54270000Y-60920000D01*
X50499999Y-45690001D02*
X53424701Y-42765299D01*
X54270000Y-147920000D02*
X54270000Y-138970002D01*
X53424701Y-42765299D02*
X54270000Y-41920000D01*
X54270000Y-138970002D02*
X50499999Y-135200001D01*
X72424701Y-109074701D02*
X72424701Y-104874703D01*
X69499999Y-135200001D02*
X69499999Y-132690001D01*
X69499999Y-64690001D02*
X72424701Y-61765299D01*
X73270000Y-138970002D02*
X69499999Y-135200001D01*
X71460001Y-87979999D02*
X71460001Y-69160003D01*
X73270000Y-147920000D02*
X73270000Y-138970002D01*
X203500000Y-89600000D02*
X203500000Y-94470000D01*
X72424701Y-104874703D02*
X64749999Y-97200001D01*
X64749999Y-97200001D02*
X64749999Y-94690001D01*
X69499999Y-45690001D02*
X72424701Y-42765299D01*
X73270000Y-128920000D02*
X73270000Y-119970002D01*
X73270000Y-51970002D02*
X69499999Y-48200001D01*
X73270000Y-119970002D02*
X69499999Y-116200001D01*
X75712500Y-148000000D02*
X73350000Y-148000000D01*
X73350000Y-148000000D02*
X73270000Y-147920000D01*
X203500000Y-94470000D02*
X203650000Y-94620000D01*
X64749999Y-94690001D02*
X67674701Y-91765299D01*
X72424701Y-61765299D02*
X73270000Y-60920000D01*
X69499999Y-67200001D02*
X69499999Y-64690001D01*
X69499999Y-113690001D02*
X72424701Y-110765299D01*
X72424701Y-110765299D02*
X73270000Y-109920000D01*
X69499999Y-48200001D02*
X69499999Y-45690001D01*
X69499999Y-116200001D02*
X69499999Y-113690001D01*
X68520000Y-90920000D02*
X71460001Y-87979999D01*
X71460001Y-69160003D02*
X69499999Y-67200001D01*
X67674701Y-91765299D02*
X68520000Y-90920000D01*
X73270000Y-109920000D02*
X72424701Y-109074701D01*
X72424701Y-42765299D02*
X73270000Y-41920000D01*
X72424701Y-129765299D02*
X73270000Y-128920000D01*
X69499999Y-132690001D02*
X72424701Y-129765299D01*
X73270000Y-60920000D02*
X73270000Y-51970002D01*
X201000000Y-97400000D02*
X201000000Y-94730000D01*
X102424701Y-61765299D02*
X103270000Y-60920000D01*
X103270000Y-90920000D02*
X103270000Y-70970002D01*
X102424701Y-110765299D02*
X103270000Y-109920000D01*
X103270000Y-70970002D02*
X99499999Y-67200001D01*
X110874697Y-146574699D02*
X99499999Y-135200001D01*
X102424701Y-91765299D02*
X103270000Y-90920000D01*
X102424701Y-42765299D02*
X103270000Y-41920000D01*
X99499999Y-132690001D02*
X102424701Y-129765299D01*
X103270000Y-60920000D02*
X103270000Y-51970002D01*
X99499999Y-45690001D02*
X102424701Y-42765299D01*
X103270000Y-109920000D02*
X103270000Y-100970002D01*
X99499999Y-97200001D02*
X99499999Y-94690001D01*
X99499999Y-116200001D02*
X99499999Y-113690001D01*
X118524699Y-146574699D02*
X110874697Y-146574699D01*
X103270000Y-100970002D02*
X99499999Y-97200001D01*
X99499999Y-94690001D02*
X102424701Y-91765299D01*
X201000000Y-94730000D02*
X201110000Y-94620000D01*
X102424701Y-129765299D02*
X103270000Y-128920000D01*
X103270000Y-51970002D02*
X99499999Y-48200001D01*
X122212500Y-148000000D02*
X119950000Y-148000000D01*
X99499999Y-113690001D02*
X102424701Y-110765299D01*
X119950000Y-148000000D02*
X119870000Y-147920000D01*
X99499999Y-135200001D02*
X99499999Y-132690001D01*
X119870000Y-147920000D02*
X118524699Y-146574699D01*
X103270000Y-128920000D02*
X103270000Y-119970002D01*
X99499999Y-67200001D02*
X99499999Y-64690001D01*
X99499999Y-48200001D02*
X99499999Y-45690001D01*
X99499999Y-64690001D02*
X102424701Y-61765299D01*
X103270000Y-119970002D02*
X99499999Y-116200001D01*
X192212001Y-72912003D02*
X186499999Y-67200001D01*
X122270000Y-90920000D02*
X122270000Y-70970002D01*
X189424701Y-61765299D02*
X190270000Y-60920000D01*
X121424701Y-110765299D02*
X122270000Y-109920000D01*
X194252238Y-97250000D02*
X192212001Y-95209763D01*
X122270000Y-60920000D02*
X122270000Y-51970002D01*
X122270000Y-100970002D02*
X118499999Y-97200001D01*
X118499999Y-113690001D02*
X121424701Y-110765299D01*
X186499999Y-67200001D02*
X186499999Y-64690001D01*
X118499999Y-67200001D02*
X118499999Y-64690001D01*
X118499999Y-45690001D02*
X121424701Y-42765299D01*
X122270000Y-128920000D02*
X122270000Y-119970002D01*
X192212001Y-95209763D02*
X192212001Y-72912003D01*
X122270000Y-51970002D02*
X118499999Y-48200001D01*
X198570000Y-94620000D02*
X195940000Y-97250000D01*
X121424701Y-61765299D02*
X122270000Y-60920000D01*
X121424701Y-91765299D02*
X122270000Y-90920000D01*
X122270000Y-109920000D02*
X122270000Y-100970002D01*
X186499999Y-64690001D02*
X189424701Y-61765299D01*
X118499999Y-48200001D02*
X118499999Y-45690001D01*
X121424701Y-42765299D02*
X122270000Y-41920000D01*
X193210001Y-57979999D02*
X193210001Y-50160003D01*
X124132500Y-128920000D02*
X124212500Y-129000000D01*
X122270000Y-128920000D02*
X124132500Y-128920000D01*
X118499999Y-97200001D02*
X118499999Y-94690001D01*
X122270000Y-119970002D02*
X118499999Y-116200001D01*
X118499999Y-116200001D02*
X118499999Y-113690001D01*
X195940000Y-97250000D02*
X194252238Y-97250000D01*
X190270000Y-60920000D02*
X193210001Y-57979999D01*
X193210001Y-50160003D02*
X191249999Y-48200001D01*
X194174701Y-42765299D02*
X195020000Y-41920000D01*
X122270000Y-70970002D02*
X118499999Y-67200001D01*
X118499999Y-64690001D02*
X121424701Y-61765299D01*
X118499999Y-94690001D02*
X121424701Y-91765299D01*
X191249999Y-45690001D02*
X194174701Y-42765299D01*
X191249999Y-48200001D02*
X191249999Y-45690001D01*
X137499999Y-113690001D02*
X140424701Y-110765299D01*
D25*
X142400001Y-43050001D02*
X142400001Y-48137997D01*
D24*
X205499999Y-64690001D02*
X205499999Y-67200001D01*
X141270000Y-100970002D02*
X137499999Y-97200001D01*
X209270000Y-60920000D02*
X205499999Y-64690001D01*
D25*
X141270000Y-41920000D02*
X142400001Y-43050001D01*
X141270000Y-49267998D02*
X141270000Y-51970002D01*
D24*
X205499999Y-67200001D02*
X207460001Y-69160003D01*
X143212500Y-129000000D02*
X141350000Y-129000000D01*
X209270000Y-60920000D02*
X210115299Y-60074701D01*
X141270000Y-90920000D02*
X141270000Y-70970002D01*
X137499999Y-67200001D02*
X137499999Y-64690001D01*
X207460001Y-72989435D02*
X207452001Y-72997435D01*
X137499999Y-116200001D02*
X137499999Y-113690001D01*
X137499999Y-97200001D02*
X137499999Y-94690001D01*
X141270000Y-70970002D02*
X137499999Y-67200001D01*
X140424701Y-110765299D02*
X141270000Y-109920000D01*
X140424701Y-91765299D02*
X141270000Y-90920000D01*
X140424701Y-61765299D02*
X141270000Y-60920000D01*
X141270000Y-109920000D02*
X141270000Y-100970002D01*
X196030000Y-85129979D02*
X196000000Y-85099979D01*
X222124699Y-42765299D02*
X222674701Y-42765299D01*
X222674701Y-42765299D02*
X223520000Y-41920000D01*
X141270000Y-119970002D02*
X137499999Y-116200001D01*
X141350000Y-129000000D02*
X141270000Y-128920000D01*
X210115299Y-60074701D02*
X210115299Y-54774699D01*
X207460001Y-69160003D02*
X207460001Y-72989435D01*
X141270000Y-128920000D02*
X141270000Y-119970002D01*
X137499999Y-94690001D02*
X140424701Y-91765299D01*
X207452001Y-72997435D02*
X207452001Y-84434305D01*
X210115299Y-54774699D02*
X222124699Y-42765299D01*
X207452001Y-84434305D02*
X207452001Y-84999990D01*
X137499999Y-64690001D02*
X140424701Y-61765299D01*
X196030000Y-94620000D02*
X196030000Y-85129979D01*
D25*
X142400001Y-48137997D02*
X141270000Y-49267998D01*
D24*
X141270000Y-60920000D02*
X141270000Y-51970002D01*
X156499999Y-132690001D02*
X159424701Y-129765299D01*
X160270000Y-90920000D02*
X160270000Y-70970002D01*
X156499999Y-113690001D02*
X159424701Y-110765299D01*
X159424701Y-110765299D02*
X160270000Y-109920000D01*
X159424701Y-61765299D02*
X160270000Y-60920000D01*
X160270000Y-119970002D02*
X156499999Y-116200001D01*
X160270000Y-128920000D02*
X160270000Y-119970002D01*
X193490000Y-94620000D02*
X193490000Y-86810000D01*
X156499999Y-116200001D02*
X156499999Y-113690001D01*
X159424701Y-42765299D02*
X160270000Y-41920000D01*
X193490000Y-86810000D02*
X193500000Y-86800000D01*
X160270000Y-51970002D02*
X156499999Y-48200001D01*
X160212500Y-148000000D02*
X160212500Y-138912502D01*
X156499999Y-45690001D02*
X159424701Y-42765299D01*
X156499999Y-67200001D02*
X156499999Y-64690001D01*
X160270000Y-100970002D02*
X156499999Y-97200001D01*
X158050000Y-148000000D02*
X157970000Y-147920000D01*
X159424701Y-91765299D02*
X160270000Y-90920000D01*
X160270000Y-70970002D02*
X156499999Y-67200001D01*
X156499999Y-94690001D02*
X159424701Y-91765299D01*
X160212500Y-148000000D02*
X158050000Y-148000000D01*
X160212500Y-138912502D02*
X156499999Y-135200001D01*
X160270000Y-60920000D02*
X160270000Y-51970002D01*
X160270000Y-109920000D02*
X160270000Y-100970002D01*
X156499999Y-135200001D02*
X156499999Y-132690001D01*
X156499999Y-48200001D02*
X156499999Y-45690001D01*
X159424701Y-129765299D02*
X160270000Y-128920000D01*
X156499999Y-97200001D02*
X156499999Y-94690001D01*
X156499999Y-64690001D02*
X159424701Y-61765299D01*
X154900000Y-146200000D02*
X153412500Y-146200000D01*
X153412500Y-146200000D02*
X153400000Y-146212500D01*
X220985000Y-72515000D02*
X220985000Y-71080000D01*
X201985000Y-73715000D02*
X201900000Y-73800000D01*
X211270000Y-79380000D02*
X211270000Y-73830000D01*
X201985000Y-71080000D02*
X201985000Y-73715000D01*
X182985000Y-72985000D02*
X183800000Y-73800000D01*
X182985000Y-71080000D02*
X182985000Y-72985000D01*
X219700000Y-73800000D02*
X220985000Y-72515000D01*
X211270000Y-73830000D02*
X211300000Y-73800000D01*
X46135000Y-98540000D02*
X46160000Y-98540000D01*
X46160000Y-98540000D02*
X46160000Y-112815000D01*
X41410000Y-148000000D02*
X41410000Y-155540000D01*
X41435000Y-117540000D02*
X41410000Y-117540000D01*
X39075000Y-148000000D02*
X41410000Y-148000000D01*
X41410000Y-68540000D02*
X41410000Y-93815000D01*
X41410000Y-51390000D02*
X41410000Y-68540000D01*
X41410000Y-117540000D02*
X41410000Y-119390000D01*
X41410000Y-119390000D02*
X41410000Y-136540000D01*
X41410000Y-136540000D02*
X41410000Y-148000000D01*
X46160000Y-112815000D02*
X41435000Y-117540000D01*
X41410000Y-93815000D02*
X46135000Y-98540000D01*
X41410000Y-49540000D02*
X41410000Y-51390000D01*
X60310000Y-148000000D02*
X60410000Y-147900000D01*
X60410000Y-68540000D02*
X60410000Y-70390000D01*
X60410000Y-70390000D02*
X59459999Y-71340001D01*
X60410000Y-49540000D02*
X60410000Y-51390000D01*
X58075000Y-148000000D02*
X60310000Y-148000000D01*
X59459999Y-71340001D02*
X59459999Y-114739999D01*
X60410000Y-136540000D02*
X60410000Y-147900000D01*
X60410000Y-51390000D02*
X60410000Y-68540000D01*
X60410000Y-147900000D02*
X60410000Y-155540000D01*
X60410000Y-119390000D02*
X60410000Y-136540000D01*
X60410000Y-117540000D02*
X60410000Y-119390000D01*
X59459999Y-114739999D02*
X60410000Y-115690000D01*
X60410000Y-115690000D02*
X60410000Y-117540000D01*
X79410000Y-49540000D02*
X79410000Y-68540000D01*
X79410000Y-117540000D02*
X79410000Y-136540000D01*
X79410000Y-148000000D02*
X79410000Y-155540000D01*
X76595000Y-98600000D02*
X79410000Y-98600000D01*
X77287500Y-148000000D02*
X79410000Y-148000000D01*
X79410000Y-98600000D02*
X79410000Y-117540000D01*
X74660000Y-98540000D02*
X76535000Y-98540000D01*
X79410000Y-68540000D02*
X79410000Y-98600000D01*
X76535000Y-98540000D02*
X76595000Y-98600000D01*
X79410000Y-136540000D02*
X79410000Y-138390000D01*
X79410000Y-138390000D02*
X79410000Y-148000000D01*
X111274688Y-145774688D02*
X121562188Y-145774688D01*
X109500000Y-144000000D02*
X111274688Y-145774688D01*
X109410000Y-115690000D02*
X109410000Y-98540000D01*
X109410000Y-136540000D02*
X109410000Y-134690000D01*
X109410000Y-134690000D02*
X109410000Y-117540000D01*
X109410000Y-138390000D02*
X109500000Y-138480000D01*
X109410000Y-68540000D02*
X109410000Y-66690000D01*
X109410000Y-98540000D02*
X109410000Y-96690000D01*
X109410000Y-96690000D02*
X109410000Y-68540000D01*
X126010000Y-150222500D02*
X123787500Y-148000000D01*
X109410000Y-117540000D02*
X109410000Y-115690000D01*
X109500000Y-138480000D02*
X109500000Y-144000000D01*
X109410000Y-66690000D02*
X109410000Y-49540000D01*
X121562188Y-145774688D02*
X123787500Y-148000000D01*
X126010000Y-155540000D02*
X126010000Y-150222500D01*
X109410000Y-136540000D02*
X109410000Y-138390000D01*
X128410000Y-70390000D02*
X128410000Y-98540000D01*
X201135000Y-49540000D02*
X201160000Y-49540000D01*
X128410000Y-129000000D02*
X128410000Y-136540000D01*
X196410000Y-63900000D02*
X196410000Y-54265000D01*
X128410000Y-49540000D02*
X128410000Y-68540000D01*
X128410000Y-117540000D02*
X128410000Y-129000000D01*
X128410000Y-98540000D02*
X128410000Y-117540000D01*
X128410000Y-68540000D02*
X128410000Y-70390000D01*
X125787500Y-129000000D02*
X128410000Y-129000000D01*
X196410000Y-68540000D02*
X196410000Y-63900000D01*
X128410000Y-68540000D02*
X128450000Y-68500000D01*
X177300000Y-71500000D02*
X181000000Y-67800000D01*
X196410000Y-54265000D02*
X201135000Y-49540000D01*
X128450000Y-68500000D02*
X128984315Y-68500000D01*
X173000000Y-71500000D02*
X177300000Y-71500000D01*
X128984315Y-68500000D02*
X129550000Y-68500000D01*
X215410000Y-68540000D02*
X215410000Y-66690000D01*
X218100000Y-64000000D02*
X218100000Y-62950000D01*
X229660000Y-51390000D02*
X229660000Y-49540000D01*
X215410000Y-66690000D02*
X218100000Y-64000000D01*
X147410000Y-117540000D02*
X147410000Y-129000000D01*
X218100000Y-62950000D02*
X229660000Y-51390000D01*
X147410000Y-49540000D02*
X147410000Y-56000000D01*
X147410000Y-129000000D02*
X147410000Y-136540000D01*
X147410000Y-56000000D02*
X147410000Y-68540000D01*
X147410000Y-68540000D02*
X147410000Y-70390000D01*
X173300000Y-56000000D02*
X178600000Y-56000000D01*
X147410000Y-70390000D02*
X147410000Y-98540000D01*
X144787500Y-129000000D02*
X147410000Y-129000000D01*
X147410000Y-100390000D02*
X147410000Y-117540000D01*
X147410000Y-98540000D02*
X147410000Y-100390000D01*
X234385000Y-68540000D02*
X232384999Y-70540001D01*
X164110000Y-148000000D02*
X164110000Y-138815000D01*
X166410000Y-136540000D02*
X166410000Y-117540000D01*
X234410000Y-68540000D02*
X234385000Y-68540000D01*
X227849998Y-68540000D02*
X220260000Y-68540000D01*
X168500000Y-69100000D02*
X166970000Y-69100000D01*
X178200000Y-69100000D02*
X173600000Y-69100000D01*
X166385000Y-136540000D02*
X166410000Y-136540000D01*
X166970000Y-69100000D02*
X166410000Y-68540000D01*
X166410000Y-98540000D02*
X166410000Y-68540000D01*
X164110000Y-138815000D02*
X166385000Y-136540000D01*
X164110000Y-155540000D02*
X164110000Y-148000000D01*
X232384999Y-70540001D02*
X229849999Y-70540001D01*
X161787500Y-148000000D02*
X164110000Y-148000000D01*
X220260000Y-68540000D02*
X218100000Y-70700000D01*
X166410000Y-117540000D02*
X166410000Y-98540000D01*
X166410000Y-68540000D02*
X166410000Y-49540000D01*
X229849999Y-70540001D02*
X227849998Y-68540000D01*
X227262822Y-80972000D02*
X227662821Y-80572001D01*
X223812500Y-59300000D02*
X223700000Y-59412500D01*
X224900000Y-59300000D02*
X223812500Y-59300000D01*
X226510000Y-94620000D02*
X226510000Y-81724822D01*
X226510000Y-81724822D02*
X227262822Y-80972000D01*
X100650000Y-42000000D02*
X100730000Y-41920000D01*
X157697500Y-41887500D02*
X157730000Y-41920000D01*
X119650000Y-42000000D02*
X119730000Y-41920000D01*
X155700000Y-41887500D02*
X157697500Y-41887500D01*
X155700000Y-60987500D02*
X157662500Y-60987500D01*
X157662500Y-60987500D02*
X157730000Y-60920000D01*
X157597500Y-90787500D02*
X157730000Y-90920000D01*
X157650000Y-91000000D02*
X157730000Y-90920000D01*
X155600000Y-90787500D02*
X157597500Y-90787500D01*
X155700000Y-109987500D02*
X157662500Y-109987500D01*
X157662500Y-109987500D02*
X157730000Y-109920000D01*
X157650000Y-110000000D02*
X157730000Y-109920000D01*
X157697500Y-128887500D02*
X157730000Y-128920000D01*
X155400000Y-128887500D02*
X157697500Y-128887500D01*
X169900000Y-48900000D02*
X169900000Y-147700000D01*
X153400000Y-147787500D02*
X155297500Y-147787500D01*
X169900000Y-147700000D02*
X167700000Y-149900000D01*
X171300000Y-47500000D02*
X169900000Y-48900000D01*
X155297500Y-147787500D02*
X155430000Y-147920000D01*
X187650000Y-61000000D02*
X187730000Y-60920000D01*
X225662500Y-60987500D02*
X225730000Y-60920000D01*
X225650000Y-61000000D02*
X225730000Y-60920000D01*
X223700000Y-60987500D02*
X225662500Y-60987500D01*
X184300000Y-101270000D02*
X184300000Y-101400000D01*
D26*
X190950000Y-94620000D02*
X184300000Y-101270000D01*
X180300000Y-82750000D02*
X174050000Y-76500000D01*
X131700000Y-48750000D02*
X131750000Y-48800000D01*
D24*
X133400000Y-45500000D02*
X133400000Y-44310000D01*
X132000000Y-46900000D02*
X133400000Y-45500000D01*
D26*
X132850001Y-76150001D02*
X133250000Y-76550000D01*
D24*
X128600000Y-45800000D02*
X129700000Y-46900000D01*
D26*
X131750000Y-75050000D02*
X132850001Y-76150001D01*
D24*
X129700000Y-46900000D02*
X132000000Y-46900000D01*
D26*
X174050000Y-76500000D02*
X172300000Y-76500000D01*
X180300000Y-101400000D02*
X180300000Y-82750000D01*
X131750000Y-48800000D02*
X131750000Y-75050000D01*
D24*
X128600000Y-44310000D02*
X128600000Y-45800000D01*
D26*
X174950000Y-75400000D02*
X172365685Y-75400000D01*
D27*
X124961612Y-45549112D02*
X127749112Y-45549112D01*
D26*
X130650000Y-47850000D02*
X130650000Y-74584315D01*
D24*
X127800000Y-44310000D02*
X127800000Y-45600000D01*
X132500000Y-47800000D02*
X134200000Y-46100000D01*
X130700000Y-47800000D02*
X132500000Y-47800000D01*
X134200000Y-46100000D02*
X134200000Y-44310000D01*
X231590000Y-79380000D02*
X231590000Y-80457630D01*
X127800000Y-45600000D02*
X127800000Y-46700000D01*
X130095002Y-47800000D02*
X130700000Y-47800000D01*
D26*
X172365685Y-75400000D02*
X171800000Y-75400000D01*
X188410000Y-88860000D02*
X174950000Y-75400000D01*
D24*
X230327999Y-100632001D02*
X230309999Y-100650001D01*
D26*
X188410000Y-94620000D02*
X188410000Y-88860000D01*
D24*
X130700000Y-47800000D02*
X130650000Y-47850000D01*
D27*
X127749112Y-45549112D02*
X127800000Y-45600000D01*
X136825000Y-46100000D02*
X134200000Y-46100000D01*
D24*
X127800000Y-46700000D02*
X128889999Y-47789999D01*
D27*
X124500000Y-45087500D02*
X124961612Y-45549112D01*
D24*
X230309999Y-100650001D02*
X229460000Y-101500000D01*
X130085001Y-47789999D02*
X130095002Y-47800000D01*
D26*
X130650000Y-74584315D02*
X130650000Y-75150000D01*
D24*
X230327999Y-81719631D02*
X230327999Y-100632001D01*
X128889999Y-47789999D02*
X130085001Y-47789999D01*
X231590000Y-80457630D02*
X230327999Y-81719631D01*
D27*
X137300000Y-45087500D02*
X137300000Y-45625000D01*
X137300000Y-45625000D02*
X136825000Y-46100000D01*
X125812500Y-42200000D02*
X124500000Y-43512500D01*
X129750000Y-44310000D02*
X129750000Y-43050000D01*
X128900000Y-42200000D02*
X125812500Y-42200000D01*
X129750000Y-43050000D02*
X128900000Y-42200000D01*
X136600000Y-42812500D02*
X137300000Y-43512500D01*
X132750000Y-44310000D02*
X132750000Y-42850000D01*
X136600000Y-42600000D02*
X136600000Y-42812500D01*
X132750000Y-42850000D02*
X133400000Y-42200000D01*
X133400000Y-42200000D02*
X136200000Y-42200000D01*
X136200000Y-42200000D02*
X136600000Y-42600000D01*
X132750000Y-44310000D02*
X132774999Y-44310000D01*
X131250000Y-43350000D02*
X131250000Y-44310000D01*
X130530000Y-43200000D02*
X130650000Y-43200000D01*
X138300000Y-38350000D02*
X225650000Y-38350000D01*
X130250000Y-43480000D02*
X130530000Y-43200000D01*
X235550000Y-48250000D02*
X235550000Y-51212500D01*
X131100000Y-43200000D02*
X131250000Y-43350000D01*
X130530000Y-43200000D02*
X131100000Y-43200000D01*
X130250000Y-44310000D02*
X130250000Y-43480000D01*
X135850000Y-40800000D02*
X138300000Y-38350000D01*
X130650000Y-43200000D02*
X133050000Y-40800000D01*
X225650000Y-38350000D02*
X235550000Y-48250000D01*
X133050000Y-40800000D02*
X135850000Y-40800000D01*
X216350000Y-93542370D02*
X217802999Y-92089371D01*
X236600000Y-57000000D02*
X235550000Y-55950000D01*
X217802999Y-78858239D02*
X220211238Y-76450000D01*
X220211238Y-76450000D02*
X233300000Y-76450000D01*
X236600000Y-73150000D02*
X236600000Y-57000000D01*
X235550000Y-55950000D02*
X235550000Y-52787500D01*
X233300000Y-76450000D02*
X236600000Y-73150000D01*
X216350000Y-94620000D02*
X216350000Y-93542370D01*
X217802999Y-92089371D02*
X217802999Y-78858239D01*
X212722999Y-76977001D02*
X214500000Y-75200000D01*
X233900000Y-55250000D02*
X233900000Y-52787500D01*
X236150000Y-71450000D02*
X236150000Y-57500000D01*
X213810000Y-94620000D02*
X212722999Y-93532999D01*
X236150000Y-57500000D02*
X233900000Y-55250000D01*
X212722999Y-93532999D02*
X212722999Y-76977001D01*
X232400000Y-75200000D02*
X236150000Y-71450000D01*
X214500000Y-75200000D02*
X232400000Y-75200000D01*
X131750000Y-43480000D02*
X131800000Y-43430000D01*
X131800000Y-43430000D02*
X131800000Y-43000000D01*
X131750000Y-44310000D02*
X131750000Y-45250000D01*
X131600000Y-45400000D02*
X131010000Y-45400000D01*
X130750000Y-45140000D02*
X130750000Y-44310000D01*
X133200000Y-41600000D02*
X136900000Y-41600000D01*
X139650000Y-38850000D02*
X225300000Y-38850000D01*
X131750000Y-45250000D02*
X131600000Y-45400000D01*
X131750000Y-44310000D02*
X131750000Y-43480000D01*
X225300000Y-38850000D02*
X233900000Y-47450000D01*
X131010000Y-45400000D02*
X130750000Y-45140000D01*
X233900000Y-47450000D02*
X233900000Y-51212500D01*
X136900000Y-41600000D02*
X139650000Y-38850000D01*
X131800000Y-43000000D02*
X133200000Y-41600000D01*
M02*
