M48
; DRILL file {KiCad (6.0.7)} date Sun Feb  5 05:31:53 2023
; FORMAT={-:-/ absolute / metric / decimal}
; #@! TF.CreationDate,2023-02-05T05:31:53+01:00
; #@! TF.GenerationSoftware,Kicad,Pcbnew,(6.0.7)
; #@! TF.FileFunction,NonPlated,1,2,NPTH
FMAT,2
METRIC
; #@! TA.AperFunction,NonPlated,NPTH,ComponentDrill
T1C0.600
; #@! TA.AperFunction,NonPlated,NPTH,ComponentDrill
T2C3.000
; #@! TA.AperFunction,NonPlated,NPTH,ComponentDrill
T3C3.600
; #@! TA.AperFunction,NonPlated,NPTH,ComponentDrill
T4C4.000
%
G90
G05
T1
X128.11Y-43.25
X133.89Y-43.25
T2
X31.46Y-52.08
X31.46Y-71.08
X31.46Y-120.08
X31.46Y-139.08
X31.46Y-158.08
X36.21Y-101.08
X37.81Y-49.54
X37.81Y-68.54
X37.81Y-117.54
X37.81Y-136.54
X37.81Y-155.54
X42.56Y-98.54
X50.46Y-52.08
X50.46Y-71.08
X50.46Y-120.08
X50.46Y-139.08
X50.46Y-158.08
X56.81Y-49.54
X56.81Y-68.54
X56.81Y-117.54
X56.81Y-136.54
X56.81Y-155.54
X64.76Y-101.08
X69.46Y-52.08
X69.46Y-71.08
X69.46Y-120.08
X69.46Y-139.08
X69.46Y-158.08
X71.11Y-98.54
X75.81Y-49.54
X75.81Y-68.54
X75.81Y-117.54
X75.81Y-136.54
X75.81Y-155.54
X99.46Y-52.08
X99.46Y-71.08
X99.46Y-101.08
X99.46Y-120.08
X99.46Y-139.08
X105.81Y-49.54
X105.81Y-68.54
X105.81Y-98.54
X105.81Y-117.54
X105.81Y-136.54
X116.06Y-158.08
X118.46Y-52.08
X118.46Y-71.08
X118.46Y-101.08
X118.46Y-120.08
X118.46Y-139.08
X122.41Y-155.54
X124.81Y-49.54
X124.81Y-68.54
X124.81Y-98.54
X124.81Y-117.54
X124.81Y-136.54
X137.46Y-52.08
X137.46Y-71.08
X137.46Y-101.08
X137.46Y-120.08
X137.46Y-139.08
X143.81Y-49.54
X143.81Y-68.54
X143.81Y-98.54
X143.81Y-117.54
X143.81Y-136.54
X154.16Y-158.08
X156.46Y-52.08
X156.46Y-71.08
X156.46Y-101.08
X156.46Y-120.08
X156.46Y-139.08
X160.51Y-155.54
X162.81Y-49.54
X162.81Y-68.54
X162.81Y-98.54
X162.81Y-117.54
X162.81Y-136.54
X186.46Y-71.08
X191.21Y-52.08
X192.81Y-68.54
X197.56Y-49.54
X205.46Y-71.08
X211.81Y-68.54
X219.71Y-52.08
X224.46Y-71.08
X226.06Y-49.54
X230.81Y-68.54
T3
X27.0Y-82.0
X87.0Y-41.0
X87.0Y-82.0
X87.0Y-158.0
X174.0Y-41.0
X174.0Y-82.0
X174.0Y-158.0
X186.0Y-142.7
X208.0Y-104.6
X230.0Y-142.7
X234.0Y-41.0
X234.0Y-109.0
X234.0Y-158.0
T4
X34.0Y-47.0
X34.0Y-66.0
X34.0Y-115.0
X34.0Y-134.0
X34.0Y-153.0
X38.75Y-96.0
X53.0Y-47.0
X53.0Y-66.0
X53.0Y-115.0
X53.0Y-134.0
X53.0Y-153.0
X67.3Y-96.0
X72.0Y-47.0
X72.0Y-66.0
X72.0Y-115.0
X72.0Y-134.0
X72.0Y-153.0
X102.0Y-47.0
X102.0Y-66.0
X102.0Y-96.0
X102.0Y-115.0
X102.0Y-134.0
X118.6Y-153.0
X121.0Y-47.0
X121.0Y-66.0
X121.0Y-96.0
X121.0Y-115.0
X121.0Y-134.0
X140.0Y-47.0
X140.0Y-66.0
X140.0Y-96.0
X140.0Y-115.0
X140.0Y-134.0
X156.7Y-153.0
X159.0Y-47.0
X159.0Y-66.0
X159.0Y-96.0
X159.0Y-115.0
X159.0Y-134.0
X189.0Y-66.0
X193.75Y-47.0
X208.0Y-66.0
X222.25Y-47.0
X227.0Y-66.0
T0
M30
