G04 #@! TF.GenerationSoftware,KiCad,Pcbnew,(6.0.7)*
G04 #@! TF.CreationDate,2023-02-05T05:30:46+01:00*
G04 #@! TF.ProjectId,DaVinciKbd,44615669-6e63-4694-9b62-642e6b696361,rev?*
G04 #@! TF.SameCoordinates,Original*
G04 #@! TF.FileFunction,Copper,L1,Top*
G04 #@! TF.FilePolarity,Positive*
%FSLAX46Y46*%
G04 Gerber Fmt 4.6, Leading zero omitted, Abs format (unit mm)*
G04 Created by KiCad (PCBNEW (6.0.7)) date 2023-02-05 05:30:46*
%MOMM*%
%LPD*%
G01*
G04 APERTURE LIST*
G04 #@! TA.AperFunction,ComponentPad*
%ADD10C,1.690600*%
G04 #@! TD*
G04 #@! TA.AperFunction,ComponentPad*
%ADD11R,1.700000X1.700000*%
G04 #@! TD*
G04 #@! TA.AperFunction,ComponentPad*
%ADD12O,1.700000X1.700000*%
G04 #@! TD*
G04 #@! TA.AperFunction,ComponentPad*
%ADD13C,1.524000*%
G04 #@! TD*
G04 #@! TA.AperFunction,ComponentPad*
%ADD14O,0.900000X1.700000*%
G04 #@! TD*
G04 #@! TA.AperFunction,ComponentPad*
%ADD15O,0.900000X2.000000*%
G04 #@! TD*
G04 #@! TA.AperFunction,ViaPad*
%ADD16C,0.800000*%
G04 #@! TD*
G04 #@! TA.AperFunction,Conductor*
%ADD17C,0.600000*%
G04 #@! TD*
G04 #@! TA.AperFunction,Conductor*
%ADD18C,0.800000*%
G04 #@! TD*
G04 APERTURE END LIST*
D10*
X35270000Y-41920000D03*
X32730000Y-41920000D03*
X35270000Y-60920000D03*
X32730000Y-60920000D03*
X35270000Y-109920000D03*
X32730000Y-109920000D03*
X35270000Y-128920000D03*
X32730000Y-128920000D03*
X35270000Y-147920000D03*
X32730000Y-147920000D03*
X54270000Y-41920000D03*
X51730000Y-41920000D03*
X54270000Y-60920000D03*
X51730000Y-60920000D03*
X54270000Y-109920000D03*
X51730000Y-109920000D03*
X54270000Y-128920000D03*
X51730000Y-128920000D03*
X54270000Y-147920000D03*
X51730000Y-147920000D03*
X73270000Y-41920000D03*
X70730000Y-41920000D03*
X73270000Y-60920000D03*
X70730000Y-60920000D03*
X73270000Y-109920000D03*
X70730000Y-109920000D03*
X73270000Y-128920000D03*
X70730000Y-128920000D03*
X73270000Y-147920000D03*
X70730000Y-147920000D03*
X195020000Y-41920000D03*
X192480000Y-41920000D03*
X190270000Y-60920000D03*
X187730000Y-60920000D03*
X209270000Y-60920000D03*
X206730000Y-60920000D03*
X228270000Y-60920000D03*
X225730000Y-60920000D03*
X40020000Y-90920000D03*
X37480000Y-90920000D03*
X103270000Y-60920000D03*
X100730000Y-60920000D03*
X141270000Y-41920000D03*
X138730000Y-41920000D03*
X122270000Y-60920000D03*
X119730000Y-60920000D03*
X103270000Y-41920000D03*
X100730000Y-41920000D03*
X141270000Y-60920000D03*
X138730000Y-60920000D03*
X122270000Y-41920000D03*
X119730000Y-41920000D03*
X160270000Y-60920000D03*
X157730000Y-60920000D03*
X160270000Y-41920000D03*
X157730000Y-41920000D03*
X157970000Y-147920000D03*
X155430000Y-147920000D03*
X160270000Y-128920000D03*
X157730000Y-128920000D03*
X160270000Y-90920000D03*
X157730000Y-90920000D03*
X141270000Y-128920000D03*
X138730000Y-128920000D03*
X141270000Y-109920000D03*
X138730000Y-109920000D03*
X122270000Y-109920000D03*
X119730000Y-109920000D03*
X103270000Y-109920000D03*
X100730000Y-109920000D03*
X141270000Y-90920000D03*
X138730000Y-90920000D03*
X119870000Y-147920000D03*
X117330000Y-147920000D03*
X160270000Y-109920000D03*
X157730000Y-109920000D03*
X122270000Y-128920000D03*
X119730000Y-128920000D03*
X103270000Y-128920000D03*
X100730000Y-128920000D03*
X122270000Y-90920000D03*
X119730000Y-90920000D03*
X223520000Y-41920000D03*
X220980000Y-41920000D03*
X68570000Y-90920000D03*
X66030000Y-90920000D03*
X103270000Y-90920000D03*
X100730000Y-90920000D03*
D11*
X226920000Y-101500000D03*
D12*
X229460000Y-101500000D03*
X232000000Y-101500000D03*
X234540000Y-101500000D03*
D13*
X229050000Y-79380000D03*
X185870000Y-94620000D03*
X190950000Y-94620000D03*
X188410000Y-94620000D03*
X234130000Y-79380000D03*
X231590000Y-79380000D03*
X226510000Y-79380000D03*
X196030000Y-79380000D03*
X198570000Y-79380000D03*
X201110000Y-79380000D03*
X203650000Y-79380000D03*
X206190000Y-79380000D03*
X208730000Y-79380000D03*
X211270000Y-79380000D03*
X213810000Y-79380000D03*
X223970000Y-94620000D03*
X221430000Y-94620000D03*
X218890000Y-94620000D03*
X216350000Y-94620000D03*
X213810000Y-94620000D03*
X211270000Y-94620000D03*
X216350000Y-79380000D03*
X218890000Y-79380000D03*
X208730000Y-94620000D03*
X206190000Y-94620000D03*
X203650000Y-94620000D03*
X201110000Y-94620000D03*
X198570000Y-94620000D03*
X196030000Y-94620000D03*
X193490000Y-94620000D03*
X221430000Y-79380000D03*
X223970000Y-79380000D03*
X234130000Y-94620000D03*
X231590000Y-94620000D03*
X229050000Y-94620000D03*
X226510000Y-94620000D03*
X188410000Y-79380000D03*
X190950000Y-79380000D03*
X193490000Y-79380000D03*
X185870000Y-79380000D03*
D14*
X126680000Y-39560000D03*
X135320000Y-39560000D03*
D15*
X126680000Y-43730000D03*
X135320000Y-43730000D03*
D16*
X221400000Y-98700000D03*
X224000000Y-97500000D03*
X208499988Y-84099988D03*
X152900000Y-54700000D03*
X47000000Y-54700000D03*
X115000000Y-54700000D03*
X28800000Y-54700000D03*
X134000000Y-54700000D03*
X96000000Y-54700000D03*
X66000000Y-54700000D03*
X157100000Y-40200000D03*
X28800000Y-73800000D03*
X96000000Y-73800000D03*
X198500000Y-83200000D03*
X47000000Y-73800000D03*
X66000000Y-73800000D03*
X134000000Y-73800000D03*
X153000000Y-73800000D03*
X115000000Y-73800000D03*
X153000000Y-103700000D03*
X201100000Y-87700000D03*
X115000000Y-103700000D03*
X96000000Y-103700000D03*
X134000000Y-103700000D03*
X61200000Y-103700000D03*
X33500000Y-103700000D03*
X157100000Y-59300000D03*
X115000000Y-122900000D03*
X204700000Y-91500000D03*
X29400000Y-122900000D03*
X134000000Y-122900000D03*
X47000000Y-122900000D03*
X66000000Y-122900000D03*
X96000000Y-122900000D03*
X153000000Y-122900000D03*
X157200000Y-89100000D03*
X157300000Y-108100000D03*
X207300000Y-96400000D03*
X96000000Y-142400000D03*
X30000000Y-142400000D03*
X65900000Y-142400000D03*
X134000000Y-142400000D03*
X153000000Y-142400000D03*
X47000000Y-142400000D03*
X115000000Y-142400000D03*
X66000000Y-160800000D03*
X112600000Y-160800000D03*
X28800000Y-160800000D03*
X215200000Y-54700000D03*
X150700000Y-160800000D03*
X209400000Y-99700000D03*
X188600000Y-54700000D03*
X47000000Y-160800000D03*
X156700000Y-127200000D03*
X206200000Y-88700000D03*
X203500000Y-89600000D03*
X201000000Y-97400000D03*
X207452001Y-84999990D03*
X196000000Y-85099979D03*
X193500000Y-86800000D03*
X154900000Y-146200000D03*
X201900000Y-73800000D03*
X219700000Y-73800000D03*
X211300000Y-73800000D03*
X183800000Y-73800000D03*
X196410000Y-63900000D03*
X173000000Y-71500000D03*
X181000000Y-67800000D03*
X129550000Y-68500000D03*
X178600000Y-56000000D03*
X147410000Y-56000000D03*
X173300000Y-56000000D03*
X225000000Y-56050000D03*
X178200000Y-69100000D03*
X173600000Y-69100000D03*
X168500000Y-69100000D03*
X218100000Y-70700000D03*
X227662821Y-80572001D03*
X224900000Y-59300000D03*
X171300000Y-47500000D03*
X167700000Y-149900000D03*
X133250000Y-76550000D03*
X131700000Y-48750000D03*
X132000000Y-46900000D03*
X172300000Y-76500000D03*
X171800000Y-75400000D03*
X130650000Y-75150000D03*
D17*
X229200000Y-98700000D02*
X221965685Y-98700000D01*
X221965685Y-98700000D02*
X221400000Y-98700000D01*
X232000000Y-101500000D02*
X229200000Y-98700000D01*
X224399999Y-97899999D02*
X230939999Y-97899999D01*
X230939999Y-97899999D02*
X233690001Y-100650001D01*
X233690001Y-100650001D02*
X234540000Y-101500000D01*
X224000000Y-97500000D02*
X224399999Y-97899999D01*
X174968613Y-84300001D02*
X175068636Y-84199978D01*
X40020000Y-90920000D02*
X46639999Y-84300001D01*
X207019999Y-84099988D02*
X207934303Y-84099988D01*
X207934303Y-84099988D02*
X208499988Y-84099988D01*
X208499988Y-84099988D02*
X208600000Y-84200000D01*
X206920009Y-84199978D02*
X207019999Y-84099988D01*
X46639999Y-84300001D02*
X174968613Y-84300001D01*
X175068636Y-84199978D02*
X206920009Y-84199978D01*
X115000000Y-54700000D02*
X134000000Y-54700000D01*
X152900000Y-54700000D02*
X173700000Y-54700000D01*
X194210000Y-81200000D02*
X196030000Y-79380000D01*
X47000000Y-54700000D02*
X66000000Y-54700000D01*
X66000000Y-54700000D02*
X96000000Y-54700000D01*
X28800000Y-54700000D02*
X47000000Y-54700000D01*
X176000000Y-57000000D02*
X176000000Y-74000000D01*
X176000000Y-74000000D02*
X183200000Y-81200000D01*
X134000000Y-54700000D02*
X152900000Y-54700000D01*
X183200000Y-81200000D02*
X194210000Y-81200000D01*
X173700000Y-54700000D02*
X176000000Y-57000000D01*
X96000000Y-54700000D02*
X115000000Y-54700000D01*
X177000000Y-56200000D02*
X161000000Y-40200000D01*
X161000000Y-40200000D02*
X157100000Y-40200000D01*
X216350000Y-77650000D02*
X215800000Y-77100000D01*
X215800000Y-77100000D02*
X182900000Y-77100000D01*
X182900000Y-77100000D02*
X177000000Y-71200000D01*
X216350000Y-79380000D02*
X216350000Y-77650000D01*
X177000000Y-71200000D02*
X177000000Y-56200000D01*
X66000000Y-73800000D02*
X96000000Y-73800000D01*
X96000000Y-73800000D02*
X115000000Y-73800000D01*
X172100000Y-73800000D02*
X181500000Y-83200000D01*
X181500000Y-83200000D02*
X198500000Y-83200000D01*
X47000000Y-73800000D02*
X66000000Y-73800000D01*
X28800000Y-73800000D02*
X47000000Y-73800000D01*
X115000000Y-73800000D02*
X134000000Y-73800000D01*
X153000000Y-73800000D02*
X172100000Y-73800000D01*
X134000000Y-73800000D02*
X153000000Y-73800000D01*
X96000000Y-103700000D02*
X115000000Y-103700000D01*
X33500000Y-103700000D02*
X61200000Y-103700000D01*
X160610002Y-103700000D02*
X176610002Y-87700000D01*
X200534315Y-87700000D02*
X201100000Y-87700000D01*
X176610002Y-87700000D02*
X200534315Y-87700000D01*
X134000000Y-103700000D02*
X153000000Y-103700000D01*
X153000000Y-103700000D02*
X160610002Y-103700000D01*
X61200000Y-103700000D02*
X96000000Y-103700000D01*
X115000000Y-103700000D02*
X134000000Y-103700000D01*
X174900000Y-65300000D02*
X174900000Y-63800000D01*
X174900000Y-63800000D02*
X170400000Y-59300000D01*
X174900000Y-75000000D02*
X182100000Y-82200000D01*
X170400000Y-59300000D02*
X157100000Y-59300000D01*
X182100000Y-82200000D02*
X218610000Y-82200000D01*
X218610000Y-82200000D02*
X221430000Y-79380000D01*
X174900000Y-65300000D02*
X174900000Y-75000000D01*
X115000000Y-122900000D02*
X134000000Y-122900000D01*
X185200000Y-91500000D02*
X204700000Y-91500000D01*
X29400000Y-122900000D02*
X29965685Y-122900000D01*
X153000000Y-122900000D02*
X164600000Y-122900000D01*
X66000000Y-122900000D02*
X96000000Y-122900000D01*
X96000000Y-122900000D02*
X115000000Y-122900000D01*
X47000000Y-122900000D02*
X66000000Y-122900000D01*
X169800000Y-106900000D02*
X185200000Y-91500000D01*
X134000000Y-122900000D02*
X153000000Y-122900000D01*
X164600000Y-122900000D02*
X169800000Y-117700000D01*
X29965685Y-122900000D02*
X47000000Y-122900000D01*
X169800000Y-117700000D02*
X169800000Y-106900000D01*
X193067999Y-85899999D02*
X193932001Y-85899999D01*
X193932001Y-85899999D02*
X194031991Y-85999989D01*
X217450000Y-85900000D02*
X223208001Y-80141999D01*
X196432003Y-85999989D02*
X196531992Y-85900000D01*
X192968009Y-85999989D02*
X193067999Y-85899999D01*
X196531992Y-85900000D02*
X217450000Y-85900000D01*
X160334326Y-85999989D02*
X192968009Y-85999989D01*
X194031991Y-85999989D02*
X196432003Y-85999989D01*
X160334326Y-85999989D02*
X160300011Y-85999989D01*
X160300011Y-85999989D02*
X157200000Y-89100000D01*
X223208001Y-80141999D02*
X223970000Y-79380000D01*
X233800000Y-90600000D02*
X184600000Y-90600000D01*
X234130000Y-94620000D02*
X234130000Y-90930000D01*
X234130000Y-90930000D02*
X233800000Y-90600000D01*
X184600000Y-90600000D02*
X167100000Y-108100000D01*
X167100000Y-108100000D02*
X157300000Y-108100000D01*
X65900000Y-142400000D02*
X96000000Y-142400000D01*
X96000000Y-142400000D02*
X115000000Y-142400000D01*
X153000000Y-142400000D02*
X165600000Y-142400000D01*
X192700000Y-96400000D02*
X207300000Y-96400000D01*
X165600000Y-142400000D02*
X171800000Y-136200000D01*
X171800000Y-117300000D02*
X192700000Y-96400000D01*
X30000000Y-142400000D02*
X47000000Y-142400000D01*
X115000000Y-142400000D02*
X134000000Y-142400000D01*
X47000000Y-142400000D02*
X65900000Y-142400000D01*
X171800000Y-136200000D02*
X171800000Y-117300000D01*
X134000000Y-142400000D02*
X153000000Y-142400000D01*
X66000000Y-160800000D02*
X112600000Y-160800000D01*
X188600000Y-54700000D02*
X215200000Y-54700000D01*
X28800000Y-160800000D02*
X47000000Y-160800000D01*
X47000000Y-160800000D02*
X66000000Y-160800000D01*
X160400000Y-160800000D02*
X174700000Y-146500000D01*
X174700000Y-119500000D02*
X194500000Y-99700000D01*
X208834315Y-99700000D02*
X209400000Y-99700000D01*
X194500000Y-99700000D02*
X208834315Y-99700000D01*
X112600000Y-160800000D02*
X150700000Y-160800000D01*
X174700000Y-146500000D02*
X174700000Y-119500000D01*
X150700000Y-160800000D02*
X160400000Y-160800000D01*
X170800000Y-107300000D02*
X185400000Y-92700000D01*
X231300000Y-92700000D02*
X231590000Y-92990000D01*
X185400000Y-92700000D02*
X231300000Y-92700000D01*
X170800000Y-120381046D02*
X170800000Y-107300000D01*
X164000000Y-127200000D02*
X168500000Y-122700000D01*
X156700000Y-127200000D02*
X164000000Y-127200000D01*
X231590000Y-92990000D02*
X231590000Y-94620000D01*
X168500000Y-122700000D02*
X168500000Y-122681046D01*
X168500000Y-122681046D02*
X170800000Y-120381046D01*
X178600000Y-88700000D02*
X206200000Y-88700000D01*
X168900000Y-98200000D02*
X169100000Y-98200000D01*
X169100000Y-98200000D02*
X178600000Y-88700000D01*
X161900000Y-105200000D02*
X168900000Y-98200000D01*
X54270000Y-109920000D02*
X58990000Y-105200000D01*
X58990000Y-105200000D02*
X161900000Y-105200000D01*
X179600000Y-89600000D02*
X203500000Y-89600000D01*
X73270000Y-109920000D02*
X76690000Y-106500000D01*
X162700000Y-106500000D02*
X179600000Y-89600000D01*
X76690000Y-106500000D02*
X162700000Y-106500000D01*
X172800000Y-118400000D02*
X193800000Y-97400000D01*
X119870000Y-147920000D02*
X123590000Y-144200000D01*
X123590000Y-144200000D02*
X165400000Y-144200000D01*
X172800000Y-136800000D02*
X172800000Y-118400000D01*
X193800000Y-97400000D02*
X201000000Y-97400000D01*
X165400000Y-144200000D02*
X172800000Y-136800000D01*
X191200000Y-38100000D02*
X194174701Y-41074701D01*
X122270000Y-41920000D02*
X126090000Y-38100000D01*
X194174701Y-41074701D02*
X195020000Y-41920000D01*
X126090000Y-38100000D02*
X191200000Y-38100000D01*
X141270000Y-90920000D02*
X146990022Y-85199978D01*
X146990022Y-85199978D02*
X175200022Y-85199978D01*
X175200022Y-85199978D02*
X175400010Y-84999990D01*
X175400010Y-84999990D02*
X206886316Y-84999990D01*
X206886316Y-84999990D02*
X207452001Y-84999990D01*
X225247999Y-73252003D02*
X226460001Y-72040001D01*
X165585434Y-86800000D02*
X193500000Y-86800000D01*
X161465434Y-90920000D02*
X165585434Y-86800000D01*
X225247999Y-82502001D02*
X225247999Y-73252003D01*
X193500000Y-86800000D02*
X220950000Y-86800000D01*
X226460001Y-72040001D02*
X226460001Y-69160003D01*
X224499999Y-64690001D02*
X228270000Y-60920000D01*
X226460001Y-69160003D02*
X224499999Y-67200001D01*
X160270000Y-90920000D02*
X161465434Y-90920000D01*
X220950000Y-86800000D02*
X225247999Y-82502001D01*
X224499999Y-67200001D02*
X224499999Y-64690001D01*
X223467998Y-96700000D02*
X211900000Y-96700000D01*
X173700000Y-137500000D02*
X165000000Y-146200000D01*
X194350000Y-98500000D02*
X173700000Y-119150000D01*
X210100000Y-98500000D02*
X194350000Y-98500000D01*
X173700000Y-119150000D02*
X173700000Y-137500000D01*
X227070001Y-96599999D02*
X223567999Y-96599999D01*
X165000000Y-146200000D02*
X154900000Y-146200000D01*
X211900000Y-96700000D02*
X210100000Y-98500000D01*
X223567999Y-96599999D02*
X223467998Y-96700000D01*
X229050000Y-94620000D02*
X227070001Y-96599999D01*
X201900000Y-73800000D02*
X219700000Y-73800000D01*
X183800000Y-73800000D02*
X201900000Y-73800000D01*
X181000000Y-67800000D02*
X183499998Y-67800000D01*
X190200001Y-63499999D02*
X190600002Y-63900000D01*
X130115685Y-68500000D02*
X129550000Y-68500000D01*
X187799999Y-63499999D02*
X190200001Y-63499999D01*
X155499999Y-69079999D02*
X154039997Y-70540001D01*
X140809998Y-68500000D02*
X130115685Y-68500000D01*
X154039997Y-70540001D02*
X142849999Y-70540001D01*
X190600002Y-63900000D02*
X196410000Y-63900000D01*
X183499998Y-67800000D02*
X187799999Y-63499999D01*
X162809998Y-71500000D02*
X160389997Y-69079999D01*
X160389997Y-69079999D02*
X155499999Y-69079999D01*
X142849999Y-70540001D02*
X140809998Y-68500000D01*
X173000000Y-71500000D02*
X162809998Y-71500000D01*
X224950000Y-56000000D02*
X225000000Y-56050000D01*
X147410000Y-56000000D02*
X173300000Y-56000000D01*
X178600000Y-56000000D02*
X224950000Y-56000000D01*
X206420001Y-69079999D02*
X195230003Y-69079999D01*
X188880003Y-70540001D02*
X187420001Y-69079999D01*
X173600000Y-69100000D02*
X168500000Y-69100000D01*
X195230003Y-69079999D02*
X193770001Y-70540001D01*
X187420001Y-69079999D02*
X178220001Y-69079999D01*
X178220001Y-69079999D02*
X178200000Y-69100000D01*
X208040002Y-70700000D02*
X206420001Y-69079999D01*
X218100000Y-70700000D02*
X208040002Y-70700000D01*
X193770001Y-70540001D02*
X188880003Y-70540001D01*
X227662821Y-80006316D02*
X227662821Y-80572001D01*
X228641046Y-59300000D02*
X232810001Y-63468955D01*
X232810001Y-63468955D02*
X232810001Y-69500001D01*
X227787999Y-79881138D02*
X227662821Y-80006316D01*
X227787999Y-74522003D02*
X232810001Y-69500001D01*
X227787999Y-74522003D02*
X227787999Y-79881138D01*
X228641046Y-59300000D02*
X224900000Y-59300000D01*
X138730000Y-41920000D02*
X138730000Y-43115434D01*
X100730000Y-41920000D02*
X100730000Y-44070000D01*
X136900000Y-46000000D02*
X123700002Y-46000000D01*
X70700000Y-44100000D02*
X51700000Y-44100000D01*
X34910000Y-44100000D02*
X32730000Y-41920000D01*
X119600000Y-43245434D02*
X119600000Y-44100000D01*
X70700000Y-43145434D02*
X70700000Y-44100000D01*
X119600000Y-44100000D02*
X100700000Y-44100000D01*
X138800000Y-43185434D02*
X138800000Y-44100000D01*
X51700000Y-44100000D02*
X34910000Y-44100000D01*
X70730000Y-43115434D02*
X70700000Y-43145434D01*
X156745434Y-44100000D02*
X138800000Y-44100000D01*
X157730000Y-43115434D02*
X156745434Y-44100000D01*
X138800000Y-44100000D02*
X136900000Y-46000000D01*
X119700000Y-44200000D02*
X119600000Y-44100000D01*
X119730000Y-43115434D02*
X119600000Y-43245434D01*
X51730000Y-41920000D02*
X51730000Y-44070000D01*
X51730000Y-44070000D02*
X51700000Y-44100000D01*
X123700002Y-46000000D02*
X121900002Y-44200000D01*
X157730000Y-41920000D02*
X157730000Y-43115434D01*
X100700000Y-44100000D02*
X70700000Y-44100000D01*
X121900002Y-44200000D02*
X119700000Y-44200000D01*
X138730000Y-43115434D02*
X138800000Y-43185434D01*
X100730000Y-44070000D02*
X100700000Y-44100000D01*
X70730000Y-41920000D02*
X70730000Y-43115434D01*
X119730000Y-41920000D02*
X119730000Y-43115434D01*
X155850000Y-62800000D02*
X138800000Y-62800000D01*
X70730000Y-60920000D02*
X70730000Y-62115434D01*
X119700000Y-62800000D02*
X100700000Y-62800000D01*
X138800000Y-62800000D02*
X119700000Y-62800000D01*
X70700000Y-62800000D02*
X51700000Y-62800000D01*
X157730000Y-60920000D02*
X155850000Y-62800000D01*
X138730000Y-62730000D02*
X138800000Y-62800000D01*
X138730000Y-60920000D02*
X138730000Y-62730000D01*
X100730000Y-62770000D02*
X100700000Y-62800000D01*
X51700000Y-62145434D02*
X51700000Y-62800000D01*
X100730000Y-60920000D02*
X100730000Y-62770000D01*
X70700000Y-62145434D02*
X70700000Y-62800000D01*
X119730000Y-60920000D02*
X119730000Y-62770000D01*
X51730000Y-62115434D02*
X51700000Y-62145434D01*
X51730000Y-60920000D02*
X51730000Y-62115434D01*
X119730000Y-62770000D02*
X119700000Y-62800000D01*
X70730000Y-62115434D02*
X70700000Y-62145434D01*
X100700000Y-62800000D02*
X70700000Y-62800000D01*
X34610000Y-62800000D02*
X32730000Y-60920000D01*
X51700000Y-62800000D02*
X34610000Y-62800000D01*
X119730000Y-92670000D02*
X119700000Y-92700000D01*
X156000000Y-92700000D02*
X138700000Y-92700000D01*
X138700000Y-92145434D02*
X138700000Y-92700000D01*
X138730000Y-92115434D02*
X138700000Y-92145434D01*
X138730000Y-90920000D02*
X138730000Y-92115434D01*
X100700000Y-92700000D02*
X66100000Y-92700000D01*
X66030000Y-90920000D02*
X66030000Y-92630000D01*
X156884701Y-91765299D02*
X156884701Y-91815299D01*
X66100000Y-92700000D02*
X39260000Y-92700000D01*
X119700000Y-92700000D02*
X100700000Y-92700000D01*
X157730000Y-90920000D02*
X156884701Y-91765299D01*
X156884701Y-91815299D02*
X156000000Y-92700000D01*
X119730000Y-90920000D02*
X119730000Y-92670000D01*
X100730000Y-90920000D02*
X100730000Y-92670000D01*
X66030000Y-92630000D02*
X66100000Y-92700000D01*
X39260000Y-92700000D02*
X37480000Y-90920000D01*
X100730000Y-92670000D02*
X100700000Y-92700000D01*
X138700000Y-92700000D02*
X119700000Y-92700000D01*
X119730000Y-111115434D02*
X119700000Y-111145434D01*
X119700000Y-111145434D02*
X119700000Y-111900000D01*
X70700000Y-111900000D02*
X100800000Y-111900000D01*
X138730000Y-111870000D02*
X138700000Y-111900000D01*
X119730000Y-109920000D02*
X119730000Y-111115434D01*
X100730000Y-111115434D02*
X100800000Y-111185434D01*
X51730000Y-111870000D02*
X51700000Y-111900000D01*
X51700000Y-111900000D02*
X70700000Y-111900000D01*
X100800000Y-111185434D02*
X100800000Y-111900000D01*
X51700000Y-111900000D02*
X34710000Y-111900000D01*
X34710000Y-111900000D02*
X32730000Y-109920000D01*
X119700000Y-111900000D02*
X138700000Y-111900000D01*
X70730000Y-109920000D02*
X70730000Y-111870000D01*
X70730000Y-111870000D02*
X70700000Y-111900000D01*
X100730000Y-109920000D02*
X100730000Y-111115434D01*
X155750000Y-111900000D02*
X157730000Y-109920000D01*
X138730000Y-109920000D02*
X138730000Y-111870000D01*
X138700000Y-111900000D02*
X155750000Y-111900000D01*
X100800000Y-111900000D02*
X119700000Y-111900000D01*
X51730000Y-109920000D02*
X51730000Y-111870000D01*
X138730000Y-130870000D02*
X138700000Y-130900000D01*
X154200000Y-130900000D02*
X155700000Y-130900000D01*
X51700000Y-130900000D02*
X67100000Y-130900000D01*
X51700000Y-130900000D02*
X34710000Y-130900000D01*
X138700000Y-130900000D02*
X154200000Y-130900000D01*
X119800000Y-130900000D02*
X135300000Y-130900000D01*
X70730000Y-130870000D02*
X70700000Y-130900000D01*
X51730000Y-128920000D02*
X51730000Y-130115434D01*
X156884701Y-129765299D02*
X156834701Y-129765299D01*
X100730000Y-130870000D02*
X100700000Y-130900000D01*
X67100000Y-130900000D02*
X70700000Y-130900000D01*
X34710000Y-130900000D02*
X32730000Y-128920000D01*
X119730000Y-128920000D02*
X119730000Y-130830000D01*
X135300000Y-130900000D02*
X138700000Y-130900000D01*
X97200000Y-130900000D02*
X100700000Y-130900000D01*
X70730000Y-128920000D02*
X70730000Y-130870000D01*
X100700000Y-130900000D02*
X116300000Y-130900000D01*
X51700000Y-130145434D02*
X51700000Y-130900000D01*
X138730000Y-128920000D02*
X138730000Y-130870000D01*
X70700000Y-130900000D02*
X97200000Y-130900000D01*
X51730000Y-130115434D02*
X51700000Y-130145434D01*
X119730000Y-130830000D02*
X119800000Y-130900000D01*
X157730000Y-128920000D02*
X156884701Y-129765299D01*
X116300000Y-130900000D02*
X119800000Y-130900000D01*
X156834701Y-129765299D02*
X155700000Y-130900000D01*
X100730000Y-128920000D02*
X100730000Y-130870000D01*
X175500000Y-47400000D02*
X175400000Y-47500000D01*
X155430000Y-149115434D02*
X155300000Y-149245434D01*
X220134701Y-42765299D02*
X219200000Y-43700000D01*
X175400000Y-47500000D02*
X171300000Y-47500000D01*
X155300000Y-149245434D02*
X155300000Y-149900000D01*
X34710000Y-149900000D02*
X32730000Y-147920000D01*
X155300000Y-149900000D02*
X153450000Y-149900000D01*
X70730000Y-147920000D02*
X70730000Y-149115434D01*
X117300000Y-149145434D02*
X117300000Y-149900000D01*
X51800000Y-149900000D02*
X34710000Y-149900000D01*
X51730000Y-149830000D02*
X51800000Y-149900000D01*
X192400000Y-43700000D02*
X179200000Y-43700000D01*
X70800000Y-149900000D02*
X117300000Y-149900000D01*
X179200000Y-43700000D02*
X175500000Y-47400000D01*
X155430000Y-147920000D02*
X155430000Y-149115434D01*
X70800000Y-149185434D02*
X70800000Y-149900000D01*
X117330000Y-149115434D02*
X117300000Y-149145434D01*
X192400000Y-43195434D02*
X192400000Y-43700000D01*
X192480000Y-43115434D02*
X192400000Y-43195434D01*
X117300000Y-149900000D02*
X153450000Y-149900000D01*
X192480000Y-41920000D02*
X192480000Y-43115434D01*
X51800000Y-149900000D02*
X70800000Y-149900000D01*
X219200000Y-43700000D02*
X192400000Y-43700000D01*
X51730000Y-147920000D02*
X51730000Y-149830000D01*
X167700000Y-149900000D02*
X155300000Y-149900000D01*
X220980000Y-41920000D02*
X220134701Y-42765299D01*
X117330000Y-147920000D02*
X117330000Y-149115434D01*
X70730000Y-149115434D02*
X70800000Y-149185434D01*
X206800000Y-62500000D02*
X189310000Y-62500000D01*
X206730000Y-60920000D02*
X206730000Y-62430000D01*
X224734701Y-61765299D02*
X224000000Y-62500000D01*
X224884701Y-61765299D02*
X224734701Y-61765299D01*
X225730000Y-60920000D02*
X224884701Y-61765299D01*
X189310000Y-62500000D02*
X187730000Y-60920000D01*
X224000000Y-62500000D02*
X206800000Y-62500000D01*
X206730000Y-62430000D02*
X206800000Y-62500000D01*
D18*
X172300000Y-76500000D02*
X133300000Y-76500000D01*
X132000000Y-46900000D02*
X132000000Y-48450000D01*
X132000000Y-48450000D02*
X131700000Y-48750000D01*
D17*
X133300000Y-76500000D02*
X133250000Y-76550000D01*
D18*
X171800000Y-75400000D02*
X130900000Y-75400000D01*
D17*
X130900000Y-75400000D02*
X130650000Y-75150000D01*
M02*
