G04 #@! TF.GenerationSoftware,KiCad,Pcbnew,(6.0.7)*
G04 #@! TF.CreationDate,2023-02-05T05:30:46+01:00*
G04 #@! TF.ProjectId,DaVinciKbd,44615669-6e63-4694-9b62-642e6b696361,rev?*
G04 #@! TF.SameCoordinates,Original*
G04 #@! TF.FileFunction,Soldermask,Bot*
G04 #@! TF.FilePolarity,Negative*
%FSLAX46Y46*%
G04 Gerber Fmt 4.6, Leading zero omitted, Abs format (unit mm)*
G04 Created by KiCad (PCBNEW (6.0.7)) date 2023-02-05 05:30:46*
%MOMM*%
%LPD*%
G01*
G04 APERTURE LIST*
G04 Aperture macros list*
%AMRoundRect*
0 Rectangle with rounded corners*
0 $1 Rounding radius*
0 $2 $3 $4 $5 $6 $7 $8 $9 X,Y pos of 4 corners*
0 Add a 4 corners polygon primitive as box body*
4,1,4,$2,$3,$4,$5,$6,$7,$8,$9,$2,$3,0*
0 Add four circle primitives for the rounded corners*
1,1,$1+$1,$2,$3*
1,1,$1+$1,$4,$5*
1,1,$1+$1,$6,$7*
1,1,$1+$1,$8,$9*
0 Add four rect primitives between the rounded corners*
20,1,$1+$1,$2,$3,$4,$5,0*
20,1,$1+$1,$4,$5,$6,$7,0*
20,1,$1+$1,$6,$7,$8,$9,0*
20,1,$1+$1,$8,$9,$2,$3,0*%
G04 Aperture macros list end*
%ADD10C,3.102000*%
%ADD11C,4.102000*%
%ADD12RoundRect,0.051000X1.275000X1.250000X-1.275000X1.250000X-1.275000X-1.250000X1.275000X-1.250000X0*%
%ADD13C,1.792600*%
%ADD14C,3.702000*%
%ADD15RoundRect,0.269750X-0.218750X-0.256250X0.218750X-0.256250X0.218750X0.256250X-0.218750X0.256250X0*%
%ADD16RoundRect,0.051000X-0.850000X0.850000X-0.850000X-0.850000X0.850000X-0.850000X0.850000X0.850000X0*%
%ADD17O,1.802000X1.802000*%
%ADD18RoundRect,0.269750X-0.256250X0.218750X-0.256250X-0.218750X0.256250X-0.218750X0.256250X0.218750X0*%
%ADD19C,1.626000*%
%ADD20RoundRect,0.269750X0.256250X-0.218750X0.256250X0.218750X-0.256250X0.218750X-0.256250X-0.218750X0*%
%ADD21C,0.702000*%
%ADD22RoundRect,0.051000X-0.300000X-0.580000X0.300000X-0.580000X0.300000X0.580000X-0.300000X0.580000X0*%
%ADD23RoundRect,0.051000X0.150000X0.580000X-0.150000X0.580000X-0.150000X-0.580000X0.150000X-0.580000X0*%
%ADD24O,1.002000X1.802000*%
%ADD25O,1.002000X2.102000*%
%ADD26RoundRect,0.051000X1.250000X0.900000X-1.250000X0.900000X-1.250000X-0.900000X1.250000X-0.900000X0*%
G04 APERTURE END LIST*
D10*
X37810000Y-49540000D03*
D11*
X34000000Y-47000000D03*
D10*
X31460000Y-52080000D03*
D12*
X41410000Y-49540000D03*
X27985000Y-52080000D03*
D13*
X35270000Y-41920000D03*
X32730000Y-41920000D03*
D10*
X31460000Y-71080000D03*
D11*
X34000000Y-66000000D03*
D10*
X37810000Y-68540000D03*
D12*
X41410000Y-68540000D03*
X27985000Y-71080000D03*
D13*
X35270000Y-60920000D03*
X32730000Y-60920000D03*
D10*
X37810000Y-117540000D03*
D11*
X34000000Y-115000000D03*
D10*
X31460000Y-120080000D03*
D12*
X41410000Y-117540000D03*
X27985000Y-120080000D03*
D13*
X35270000Y-109920000D03*
X32730000Y-109920000D03*
D11*
X34000000Y-134000000D03*
D10*
X37810000Y-136540000D03*
X31460000Y-139080000D03*
D12*
X41410000Y-136540000D03*
X27985000Y-139080000D03*
D13*
X35270000Y-128920000D03*
X32730000Y-128920000D03*
D10*
X37810000Y-155540000D03*
D11*
X34000000Y-153000000D03*
D10*
X31460000Y-158080000D03*
D12*
X41410000Y-155540000D03*
X27985000Y-158080000D03*
D13*
X35270000Y-147920000D03*
X32730000Y-147920000D03*
D10*
X56810000Y-49540000D03*
D11*
X53000000Y-47000000D03*
D10*
X50460000Y-52080000D03*
D12*
X60410000Y-49540000D03*
X46985000Y-52080000D03*
D13*
X54270000Y-41920000D03*
X51730000Y-41920000D03*
D10*
X50460000Y-71080000D03*
D11*
X53000000Y-66000000D03*
D10*
X56810000Y-68540000D03*
D12*
X60410000Y-68540000D03*
X46985000Y-71080000D03*
D13*
X54270000Y-60920000D03*
X51730000Y-60920000D03*
D10*
X56810000Y-117540000D03*
D11*
X53000000Y-115000000D03*
D10*
X50460000Y-120080000D03*
D12*
X60410000Y-117540000D03*
X46985000Y-120080000D03*
D13*
X54270000Y-109920000D03*
X51730000Y-109920000D03*
D10*
X56810000Y-136540000D03*
D11*
X53000000Y-134000000D03*
D10*
X50460000Y-139080000D03*
D12*
X60410000Y-136540000D03*
X46985000Y-139080000D03*
D13*
X54270000Y-128920000D03*
X51730000Y-128920000D03*
D10*
X50460000Y-158080000D03*
X56810000Y-155540000D03*
D11*
X53000000Y-153000000D03*
D12*
X60410000Y-155540000D03*
X46985000Y-158080000D03*
D13*
X54270000Y-147920000D03*
X51730000Y-147920000D03*
D10*
X75810000Y-49540000D03*
X69460000Y-52080000D03*
D11*
X72000000Y-47000000D03*
D12*
X79410000Y-49540000D03*
X65985000Y-52080000D03*
D13*
X73270000Y-41920000D03*
X70730000Y-41920000D03*
D10*
X75810000Y-68540000D03*
X69460000Y-71080000D03*
D11*
X72000000Y-66000000D03*
D12*
X79410000Y-68540000D03*
X65985000Y-71080000D03*
D13*
X73270000Y-60920000D03*
X70730000Y-60920000D03*
D11*
X72000000Y-115000000D03*
D10*
X69460000Y-120080000D03*
X75810000Y-117540000D03*
D12*
X79410000Y-117540000D03*
X65985000Y-120080000D03*
D13*
X73270000Y-109920000D03*
X70730000Y-109920000D03*
D10*
X75810000Y-136540000D03*
X69460000Y-139080000D03*
D11*
X72000000Y-134000000D03*
D12*
X79410000Y-136540000D03*
X65985000Y-139080000D03*
D13*
X73270000Y-128920000D03*
X70730000Y-128920000D03*
D10*
X75810000Y-155540000D03*
D11*
X72000000Y-153000000D03*
D10*
X69460000Y-158080000D03*
D12*
X79410000Y-155540000D03*
X65985000Y-158080000D03*
D13*
X73270000Y-147920000D03*
X70730000Y-147920000D03*
D11*
X193750000Y-47000000D03*
D10*
X197560000Y-49540000D03*
X191210000Y-52080000D03*
D12*
X201160000Y-49540000D03*
X187735000Y-52080000D03*
D13*
X195020000Y-41920000D03*
X192480000Y-41920000D03*
D10*
X186460000Y-71080000D03*
X192810000Y-68540000D03*
D11*
X189000000Y-66000000D03*
D12*
X196410000Y-68540000D03*
X182985000Y-71080000D03*
D13*
X190270000Y-60920000D03*
X187730000Y-60920000D03*
D10*
X205460000Y-71080000D03*
X211810000Y-68540000D03*
D11*
X208000000Y-66000000D03*
D12*
X215410000Y-68540000D03*
X201985000Y-71080000D03*
D13*
X209270000Y-60920000D03*
X206730000Y-60920000D03*
D10*
X230810000Y-68540000D03*
X224460000Y-71080000D03*
D11*
X227000000Y-66000000D03*
D12*
X234410000Y-68540000D03*
X220985000Y-71080000D03*
D13*
X228270000Y-60920000D03*
X225730000Y-60920000D03*
D11*
X38750000Y-96000000D03*
D10*
X36210000Y-101080000D03*
X42560000Y-98540000D03*
D12*
X46160000Y-98540000D03*
X32735000Y-101080000D03*
D13*
X40020000Y-90920000D03*
X37480000Y-90920000D03*
D10*
X99460000Y-71080000D03*
D11*
X102000000Y-66000000D03*
D10*
X105810000Y-68540000D03*
D12*
X109410000Y-68540000D03*
X95985000Y-71080000D03*
D13*
X103270000Y-60920000D03*
X100730000Y-60920000D03*
D10*
X137460000Y-52080000D03*
D11*
X140000000Y-47000000D03*
D10*
X143810000Y-49540000D03*
D12*
X147410000Y-49540000D03*
X133985000Y-52080000D03*
D13*
X141270000Y-41920000D03*
X138730000Y-41920000D03*
D11*
X121000000Y-66000000D03*
D10*
X124810000Y-68540000D03*
X118460000Y-71080000D03*
D12*
X128410000Y-68540000D03*
X114985000Y-71080000D03*
D13*
X122270000Y-60920000D03*
X119730000Y-60920000D03*
D10*
X99460000Y-52080000D03*
D11*
X102000000Y-47000000D03*
D10*
X105810000Y-49540000D03*
D12*
X109410000Y-49540000D03*
X95985000Y-52080000D03*
D13*
X103270000Y-41920000D03*
X100730000Y-41920000D03*
D10*
X143810000Y-68540000D03*
X137460000Y-71080000D03*
D11*
X140000000Y-66000000D03*
D12*
X147410000Y-68540000D03*
X133985000Y-71080000D03*
D13*
X141270000Y-60920000D03*
X138730000Y-60920000D03*
D10*
X118460000Y-52080000D03*
D11*
X121000000Y-47000000D03*
D10*
X124810000Y-49540000D03*
D12*
X128410000Y-49540000D03*
X114985000Y-52080000D03*
D13*
X122270000Y-41920000D03*
X119730000Y-41920000D03*
D10*
X156460000Y-71080000D03*
X162810000Y-68540000D03*
D11*
X159000000Y-66000000D03*
D12*
X166410000Y-68540000D03*
X152985000Y-71080000D03*
D13*
X160270000Y-60920000D03*
X157730000Y-60920000D03*
D10*
X156460000Y-52080000D03*
X162810000Y-49540000D03*
D11*
X159000000Y-47000000D03*
D12*
X166410000Y-49540000D03*
X152985000Y-52080000D03*
D13*
X160270000Y-41920000D03*
X157730000Y-41920000D03*
D10*
X160510000Y-155540000D03*
D11*
X156700000Y-153000000D03*
D10*
X154160000Y-158080000D03*
D12*
X164110000Y-155540000D03*
X150685000Y-158080000D03*
D13*
X157970000Y-147920000D03*
X155430000Y-147920000D03*
D11*
X159000000Y-134000000D03*
D10*
X162810000Y-136540000D03*
X156460000Y-139080000D03*
D12*
X166410000Y-136540000D03*
X152985000Y-139080000D03*
D13*
X160270000Y-128920000D03*
X157730000Y-128920000D03*
D10*
X156460000Y-101080000D03*
X162810000Y-98540000D03*
D11*
X159000000Y-96000000D03*
D12*
X166410000Y-98540000D03*
X152985000Y-101080000D03*
D13*
X160270000Y-90920000D03*
X157730000Y-90920000D03*
D11*
X140000000Y-134000000D03*
D10*
X143810000Y-136540000D03*
X137460000Y-139080000D03*
D12*
X147410000Y-136540000D03*
X133985000Y-139080000D03*
D13*
X141270000Y-128920000D03*
X138730000Y-128920000D03*
D10*
X137460000Y-120080000D03*
D11*
X140000000Y-115000000D03*
D10*
X143810000Y-117540000D03*
D12*
X147410000Y-117540000D03*
X133985000Y-120080000D03*
D13*
X141270000Y-109920000D03*
X138730000Y-109920000D03*
D11*
X121000000Y-115000000D03*
D10*
X124810000Y-117540000D03*
X118460000Y-120080000D03*
D12*
X128410000Y-117540000D03*
X114985000Y-120080000D03*
D13*
X122270000Y-109920000D03*
X119730000Y-109920000D03*
D10*
X99460000Y-120080000D03*
D11*
X102000000Y-115000000D03*
D10*
X105810000Y-117540000D03*
D12*
X109410000Y-117540000D03*
X95985000Y-120080000D03*
D13*
X103270000Y-109920000D03*
X100730000Y-109920000D03*
D10*
X137460000Y-101080000D03*
D11*
X140000000Y-96000000D03*
D10*
X143810000Y-98540000D03*
D12*
X147410000Y-98540000D03*
X133985000Y-101080000D03*
D13*
X141270000Y-90920000D03*
X138730000Y-90920000D03*
D10*
X122410000Y-155540000D03*
D11*
X118600000Y-153000000D03*
D10*
X116060000Y-158080000D03*
D12*
X126010000Y-155540000D03*
X112585000Y-158080000D03*
D13*
X119870000Y-147920000D03*
X117330000Y-147920000D03*
D11*
X159000000Y-115000000D03*
D10*
X156460000Y-120080000D03*
X162810000Y-117540000D03*
D12*
X166410000Y-117540000D03*
X152985000Y-120080000D03*
D13*
X160270000Y-109920000D03*
X157730000Y-109920000D03*
D10*
X118460000Y-139080000D03*
X124810000Y-136540000D03*
D11*
X121000000Y-134000000D03*
D12*
X128410000Y-136540000D03*
X114985000Y-139080000D03*
D13*
X122270000Y-128920000D03*
X119730000Y-128920000D03*
D10*
X99460000Y-139080000D03*
X105810000Y-136540000D03*
D11*
X102000000Y-134000000D03*
D12*
X109410000Y-136540000D03*
X95985000Y-139080000D03*
D13*
X103270000Y-128920000D03*
X100730000Y-128920000D03*
D10*
X118460000Y-101080000D03*
X124810000Y-98540000D03*
D11*
X121000000Y-96000000D03*
D12*
X128410000Y-98540000D03*
X114985000Y-101080000D03*
D13*
X122270000Y-90920000D03*
X119730000Y-90920000D03*
D14*
X186000000Y-142700000D03*
X230000000Y-142700000D03*
X208000000Y-104600000D03*
X87000000Y-41000000D03*
X174000000Y-41000000D03*
X234000000Y-41000000D03*
X234000000Y-109000000D03*
X234000000Y-158000000D03*
X174000000Y-158000000D03*
X174000000Y-82000000D03*
X87000000Y-158000000D03*
X27000000Y-82000000D03*
X87000000Y-82000000D03*
D10*
X226060000Y-49540000D03*
D11*
X222250000Y-47000000D03*
D10*
X219710000Y-52080000D03*
D12*
X229660000Y-49540000D03*
X216235000Y-52080000D03*
D13*
X223520000Y-41920000D03*
X220980000Y-41920000D03*
D10*
X71110000Y-98540000D03*
X64760000Y-101080000D03*
D11*
X67300000Y-96000000D03*
D12*
X74710000Y-98540000D03*
X61285000Y-101080000D03*
D13*
X68570000Y-90920000D03*
X66030000Y-90920000D03*
D10*
X105810000Y-98540000D03*
D11*
X102000000Y-96000000D03*
D10*
X99460000Y-101080000D03*
D12*
X109410000Y-98540000D03*
X95985000Y-101080000D03*
D13*
X103270000Y-90920000D03*
X100730000Y-90920000D03*
D15*
X124212500Y-129000000D03*
X125787500Y-129000000D03*
D16*
X226920000Y-101500000D03*
D17*
X229460000Y-101500000D03*
X232000000Y-101500000D03*
X234540000Y-101500000D03*
D18*
X155700000Y-40312500D03*
X155700000Y-41887500D03*
X155700000Y-59412500D03*
X155700000Y-60987500D03*
X155600000Y-89212500D03*
X155600000Y-90787500D03*
X153400000Y-146212500D03*
X153400000Y-147787500D03*
X223700000Y-59412500D03*
X223700000Y-60987500D03*
D15*
X37500000Y-148000000D03*
X39075000Y-148000000D03*
X56500000Y-148000000D03*
X58075000Y-148000000D03*
X75712500Y-148000000D03*
X77287500Y-148000000D03*
X122212500Y-148000000D03*
X123787500Y-148000000D03*
X143212500Y-129000000D03*
X144787500Y-129000000D03*
X160212500Y-148000000D03*
X161787500Y-148000000D03*
D19*
X229050000Y-79380000D03*
X185870000Y-94620000D03*
X190950000Y-94620000D03*
X188410000Y-94620000D03*
X234130000Y-79380000D03*
X231590000Y-79380000D03*
X226510000Y-79380000D03*
X196030000Y-79380000D03*
X198570000Y-79380000D03*
X201110000Y-79380000D03*
X203650000Y-79380000D03*
X206190000Y-79380000D03*
X208730000Y-79380000D03*
X211270000Y-79380000D03*
X213810000Y-79380000D03*
X223970000Y-94620000D03*
X221430000Y-94620000D03*
X218890000Y-94620000D03*
X216350000Y-94620000D03*
X213810000Y-94620000D03*
X211270000Y-94620000D03*
X216350000Y-79380000D03*
X218890000Y-79380000D03*
X208730000Y-94620000D03*
X206190000Y-94620000D03*
X203650000Y-94620000D03*
X201110000Y-94620000D03*
X198570000Y-94620000D03*
X196030000Y-94620000D03*
X193490000Y-94620000D03*
X221430000Y-79380000D03*
X223970000Y-79380000D03*
X234130000Y-94620000D03*
X231590000Y-94620000D03*
X229050000Y-94620000D03*
X226510000Y-94620000D03*
X188410000Y-79380000D03*
X190950000Y-79380000D03*
X193490000Y-79380000D03*
X185870000Y-79380000D03*
D20*
X235550000Y-52787500D03*
X235550000Y-51212500D03*
D18*
X155400000Y-127312500D03*
X155400000Y-128887500D03*
X155700000Y-108412500D03*
X155700000Y-109987500D03*
D20*
X124500000Y-45087500D03*
X124500000Y-43512500D03*
X137300000Y-45087500D03*
X137300000Y-43512500D03*
X233900000Y-52787500D03*
X233900000Y-51212500D03*
D21*
X133890000Y-43250000D03*
X128110000Y-43250000D03*
D22*
X127800000Y-44310000D03*
X128600000Y-44310000D03*
D23*
X129750000Y-44310000D03*
X130750000Y-44310000D03*
X131250000Y-44310000D03*
X132250000Y-44310000D03*
D22*
X133400000Y-44310000D03*
X134200000Y-44310000D03*
X134200000Y-44310000D03*
X133400000Y-44310000D03*
D23*
X132750000Y-44310000D03*
X131750000Y-44310000D03*
X130250000Y-44310000D03*
X129250000Y-44310000D03*
D22*
X128600000Y-44310000D03*
X127800000Y-44310000D03*
D24*
X126680000Y-39560000D03*
X135320000Y-39560000D03*
D25*
X126680000Y-43730000D03*
X135320000Y-43730000D03*
D26*
X184300000Y-101400000D03*
X180300000Y-101400000D03*
G36*
X131064633Y-43693517D02*
G01*
X131065197Y-43695436D01*
X131064916Y-43696075D01*
X131054767Y-43711263D01*
X131051000Y-43730199D01*
X131051000Y-44889801D01*
X131054767Y-44908738D01*
X131064814Y-44923773D01*
X131064945Y-44925768D01*
X131063282Y-44926880D01*
X131062553Y-44926793D01*
X131002212Y-44907898D01*
X130937310Y-44926955D01*
X130935367Y-44926483D01*
X130934803Y-44924564D01*
X130935084Y-44923925D01*
X130945233Y-44908737D01*
X130949000Y-44889801D01*
X130949000Y-43730199D01*
X130945233Y-43711262D01*
X130935186Y-43696227D01*
X130935055Y-43694232D01*
X130936718Y-43693120D01*
X130937447Y-43693207D01*
X130997788Y-43712102D01*
X131062690Y-43693045D01*
X131064633Y-43693517D01*
G37*
G36*
X133064633Y-43693517D02*
G01*
X133065197Y-43695436D01*
X133064916Y-43696075D01*
X133054767Y-43711263D01*
X133051000Y-43730199D01*
X133051000Y-44889801D01*
X133054767Y-44908738D01*
X133064814Y-44923773D01*
X133064945Y-44925768D01*
X133063282Y-44926880D01*
X133062553Y-44926793D01*
X133002212Y-44907898D01*
X132937310Y-44926955D01*
X132935367Y-44926483D01*
X132934803Y-44924564D01*
X132935084Y-44923925D01*
X132945233Y-44908737D01*
X132949000Y-44889801D01*
X132949000Y-43730199D01*
X132945233Y-43711262D01*
X132935186Y-43696227D01*
X132935055Y-43694232D01*
X132936718Y-43693120D01*
X132937447Y-43693207D01*
X132997788Y-43712102D01*
X133062690Y-43693045D01*
X133064633Y-43693517D01*
G37*
G36*
X130564633Y-43693517D02*
G01*
X130565197Y-43695436D01*
X130564916Y-43696075D01*
X130554767Y-43711263D01*
X130551000Y-43730199D01*
X130551000Y-44889801D01*
X130554767Y-44908738D01*
X130564814Y-44923773D01*
X130564945Y-44925768D01*
X130563282Y-44926880D01*
X130562553Y-44926793D01*
X130502212Y-44907898D01*
X130437310Y-44926955D01*
X130435367Y-44926483D01*
X130434803Y-44924564D01*
X130435084Y-44923925D01*
X130445233Y-44908737D01*
X130449000Y-44889801D01*
X130449000Y-43730199D01*
X130445233Y-43711262D01*
X130435186Y-43696227D01*
X130435055Y-43694232D01*
X130436718Y-43693120D01*
X130437447Y-43693207D01*
X130497788Y-43712102D01*
X130562690Y-43693045D01*
X130564633Y-43693517D01*
G37*
G36*
X132564633Y-43693517D02*
G01*
X132565197Y-43695436D01*
X132564916Y-43696075D01*
X132554767Y-43711263D01*
X132551000Y-43730199D01*
X132551000Y-44889801D01*
X132554767Y-44908738D01*
X132564814Y-44923773D01*
X132564945Y-44925768D01*
X132563282Y-44926880D01*
X132562553Y-44926793D01*
X132502212Y-44907898D01*
X132437310Y-44926955D01*
X132435367Y-44926483D01*
X132434803Y-44924564D01*
X132435084Y-44923925D01*
X132445233Y-44908737D01*
X132449000Y-44889801D01*
X132449000Y-43730199D01*
X132445233Y-43711262D01*
X132435186Y-43696227D01*
X132435055Y-43694232D01*
X132436718Y-43693120D01*
X132437447Y-43693207D01*
X132497788Y-43712102D01*
X132562690Y-43693045D01*
X132564633Y-43693517D01*
G37*
G36*
X130064633Y-43693517D02*
G01*
X130065197Y-43695436D01*
X130064916Y-43696075D01*
X130054767Y-43711263D01*
X130051000Y-43730199D01*
X130051000Y-44889801D01*
X130054767Y-44908738D01*
X130064814Y-44923773D01*
X130064945Y-44925768D01*
X130063282Y-44926880D01*
X130062553Y-44926793D01*
X130002212Y-44907898D01*
X129937310Y-44926955D01*
X129935367Y-44926483D01*
X129934803Y-44924564D01*
X129935084Y-44923925D01*
X129945233Y-44908737D01*
X129949000Y-44889801D01*
X129949000Y-43730199D01*
X129945233Y-43711262D01*
X129935186Y-43696227D01*
X129935055Y-43694232D01*
X129936718Y-43693120D01*
X129937447Y-43693207D01*
X129997788Y-43712102D01*
X130062690Y-43693045D01*
X130064633Y-43693517D01*
G37*
G36*
X128377351Y-43474341D02*
G01*
X128377220Y-43475729D01*
X128349125Y-43533880D01*
X128357495Y-43602628D01*
X128401699Y-43655932D01*
X128470963Y-43677087D01*
X128472328Y-43678550D01*
X128471743Y-43680462D01*
X128470379Y-43681000D01*
X128300199Y-43681000D01*
X128281262Y-43684767D01*
X128265380Y-43695380D01*
X128254767Y-43711262D01*
X128251000Y-43730199D01*
X128251000Y-44889801D01*
X128254767Y-44908738D01*
X128264814Y-44923773D01*
X128264945Y-44925768D01*
X128263282Y-44926880D01*
X128262553Y-44926793D01*
X128202212Y-44907898D01*
X128137310Y-44926955D01*
X128135367Y-44926483D01*
X128134803Y-44924564D01*
X128135084Y-44923925D01*
X128145233Y-44908737D01*
X128149000Y-44889801D01*
X128149000Y-43730199D01*
X128145233Y-43711262D01*
X128134620Y-43695380D01*
X128118738Y-43684767D01*
X128099801Y-43681000D01*
X127749995Y-43681000D01*
X127748263Y-43680000D01*
X127748263Y-43678000D01*
X127749432Y-43677081D01*
X127816444Y-43657405D01*
X127861799Y-43605062D01*
X127871657Y-43536500D01*
X127845784Y-43478704D01*
X127845989Y-43476715D01*
X127847814Y-43475898D01*
X127849023Y-43476473D01*
X127904876Y-43532326D01*
X128002162Y-43581896D01*
X128110000Y-43598975D01*
X128217838Y-43581896D01*
X128315124Y-43532326D01*
X128374005Y-43473445D01*
X128375937Y-43472927D01*
X128377351Y-43474341D01*
G37*
G36*
X129064633Y-43693517D02*
G01*
X129065197Y-43695436D01*
X129064916Y-43696075D01*
X129054767Y-43711263D01*
X129051000Y-43730199D01*
X129051000Y-44889801D01*
X129054767Y-44908738D01*
X129064814Y-44923773D01*
X129064945Y-44925768D01*
X129063282Y-44926880D01*
X129062553Y-44926793D01*
X129002212Y-44907898D01*
X128937310Y-44926955D01*
X128935367Y-44926483D01*
X128934803Y-44924564D01*
X128935084Y-44923925D01*
X128945233Y-44908737D01*
X128949000Y-44889801D01*
X128949000Y-43730199D01*
X128945233Y-43711262D01*
X128935186Y-43696227D01*
X128935055Y-43694232D01*
X128936718Y-43693120D01*
X128937447Y-43693207D01*
X128997788Y-43712102D01*
X129062690Y-43693045D01*
X129064633Y-43693517D01*
G37*
G36*
X132064633Y-43693517D02*
G01*
X132065197Y-43695436D01*
X132064916Y-43696075D01*
X132054767Y-43711263D01*
X132051000Y-43730199D01*
X132051000Y-44889801D01*
X132054767Y-44908738D01*
X132064814Y-44923773D01*
X132064945Y-44925768D01*
X132063282Y-44926880D01*
X132062553Y-44926793D01*
X132002212Y-44907898D01*
X131937310Y-44926955D01*
X131935367Y-44926483D01*
X131934803Y-44924564D01*
X131935084Y-44923925D01*
X131945233Y-44908737D01*
X131949000Y-44889801D01*
X131949000Y-43730199D01*
X131945233Y-43711262D01*
X131935186Y-43696227D01*
X131935055Y-43694232D01*
X131936718Y-43693120D01*
X131937447Y-43693207D01*
X131997788Y-43712102D01*
X132062690Y-43693045D01*
X132064633Y-43693517D01*
G37*
G36*
X129564633Y-43693517D02*
G01*
X129565197Y-43695436D01*
X129564916Y-43696075D01*
X129554767Y-43711263D01*
X129551000Y-43730199D01*
X129551000Y-44889801D01*
X129554767Y-44908738D01*
X129564814Y-44923773D01*
X129564945Y-44925768D01*
X129563282Y-44926880D01*
X129562553Y-44926793D01*
X129502212Y-44907898D01*
X129437310Y-44926955D01*
X129435367Y-44926483D01*
X129434803Y-44924564D01*
X129435084Y-44923925D01*
X129445233Y-44908737D01*
X129449000Y-44889801D01*
X129449000Y-43730199D01*
X129445233Y-43711262D01*
X129435186Y-43696227D01*
X129435055Y-43694232D01*
X129436718Y-43693120D01*
X129437447Y-43693207D01*
X129497788Y-43712102D01*
X129562690Y-43693045D01*
X129564633Y-43693517D01*
G37*
G36*
X131564633Y-43693517D02*
G01*
X131565197Y-43695436D01*
X131564916Y-43696075D01*
X131554767Y-43711263D01*
X131551000Y-43730199D01*
X131551000Y-44889801D01*
X131554767Y-44908738D01*
X131564814Y-44923773D01*
X131564945Y-44925768D01*
X131563282Y-44926880D01*
X131562553Y-44926793D01*
X131502212Y-44907898D01*
X131437310Y-44926955D01*
X131435367Y-44926483D01*
X131434803Y-44924564D01*
X131435084Y-44923925D01*
X131445233Y-44908737D01*
X131449000Y-44889801D01*
X131449000Y-43730199D01*
X131445233Y-43711262D01*
X131435186Y-43696227D01*
X131435055Y-43694232D01*
X131436718Y-43693120D01*
X131437447Y-43693207D01*
X131497788Y-43712102D01*
X131562690Y-43693045D01*
X131564633Y-43693517D01*
G37*
G36*
X134157351Y-43474341D02*
G01*
X134157220Y-43475729D01*
X134129126Y-43533877D01*
X134137495Y-43602626D01*
X134181698Y-43655930D01*
X134250966Y-43677087D01*
X134252331Y-43678550D01*
X134251746Y-43680462D01*
X134250382Y-43681000D01*
X133900199Y-43681000D01*
X133881262Y-43684767D01*
X133865380Y-43695380D01*
X133854767Y-43711262D01*
X133851000Y-43730199D01*
X133851000Y-44889801D01*
X133854767Y-44908738D01*
X133864814Y-44923773D01*
X133864945Y-44925768D01*
X133863282Y-44926880D01*
X133862553Y-44926793D01*
X133802212Y-44907898D01*
X133737310Y-44926955D01*
X133735367Y-44926483D01*
X133734803Y-44924564D01*
X133735084Y-44923925D01*
X133745233Y-44908737D01*
X133749000Y-44889801D01*
X133749000Y-43730199D01*
X133745233Y-43711262D01*
X133734620Y-43695380D01*
X133718738Y-43684767D01*
X133699801Y-43681000D01*
X133529992Y-43681000D01*
X133528260Y-43680000D01*
X133528260Y-43678000D01*
X133529429Y-43677081D01*
X133596444Y-43657404D01*
X133641799Y-43605061D01*
X133651657Y-43536498D01*
X133625784Y-43478704D01*
X133625989Y-43476715D01*
X133627814Y-43475898D01*
X133629023Y-43476473D01*
X133684876Y-43532326D01*
X133782162Y-43581896D01*
X133890000Y-43598975D01*
X133997838Y-43581896D01*
X134095124Y-43532326D01*
X134154005Y-43473445D01*
X134155937Y-43472927D01*
X134157351Y-43474341D01*
G37*
M02*
