G04 #@! TF.GenerationSoftware,KiCad,Pcbnew,(6.0.7)*
G04 #@! TF.CreationDate,2023-02-05T05:30:46+01:00*
G04 #@! TF.ProjectId,DaVinciKbd,44615669-6e63-4694-9b62-642e6b696361,rev?*
G04 #@! TF.SameCoordinates,Original*
G04 #@! TF.FileFunction,Soldermask,Top*
G04 #@! TF.FilePolarity,Negative*
%FSLAX46Y46*%
G04 Gerber Fmt 4.6, Leading zero omitted, Abs format (unit mm)*
G04 Created by KiCad (PCBNEW (6.0.7)) date 2023-02-05 05:30:46*
%MOMM*%
%LPD*%
G01*
G04 APERTURE LIST*
G04 Aperture macros list*
%AMRoundRect*
0 Rectangle with rounded corners*
0 $1 Rounding radius*
0 $2 $3 $4 $5 $6 $7 $8 $9 X,Y pos of 4 corners*
0 Add a 4 corners polygon primitive as box body*
4,1,4,$2,$3,$4,$5,$6,$7,$8,$9,$2,$3,0*
0 Add four circle primitives for the rounded corners*
1,1,$1+$1,$2,$3*
1,1,$1+$1,$4,$5*
1,1,$1+$1,$6,$7*
1,1,$1+$1,$8,$9*
0 Add four rect primitives between the rounded corners*
20,1,$1+$1,$2,$3,$4,$5,0*
20,1,$1+$1,$4,$5,$6,$7,0*
20,1,$1+$1,$6,$7,$8,$9,0*
20,1,$1+$1,$8,$9,$2,$3,0*%
G04 Aperture macros list end*
%ADD10C,3.102000*%
%ADD11C,4.102000*%
%ADD12C,1.792600*%
%ADD13C,3.702000*%
%ADD14RoundRect,0.051000X-0.850000X0.850000X-0.850000X-0.850000X0.850000X-0.850000X0.850000X0.850000X0*%
%ADD15O,1.802000X1.802000*%
%ADD16C,1.626000*%
%ADD17C,0.702000*%
%ADD18O,1.002000X1.802000*%
%ADD19O,1.002000X2.102000*%
G04 APERTURE END LIST*
D10*
X37810000Y-49540000D03*
D11*
X34000000Y-47000000D03*
D10*
X31460000Y-52080000D03*
D12*
X35270000Y-41920000D03*
X32730000Y-41920000D03*
D10*
X31460000Y-71080000D03*
D11*
X34000000Y-66000000D03*
D10*
X37810000Y-68540000D03*
D12*
X35270000Y-60920000D03*
X32730000Y-60920000D03*
D10*
X37810000Y-117540000D03*
D11*
X34000000Y-115000000D03*
D10*
X31460000Y-120080000D03*
D12*
X35270000Y-109920000D03*
X32730000Y-109920000D03*
D11*
X34000000Y-134000000D03*
D10*
X37810000Y-136540000D03*
X31460000Y-139080000D03*
D12*
X35270000Y-128920000D03*
X32730000Y-128920000D03*
D10*
X37810000Y-155540000D03*
D11*
X34000000Y-153000000D03*
D10*
X31460000Y-158080000D03*
D12*
X35270000Y-147920000D03*
X32730000Y-147920000D03*
D10*
X56810000Y-49540000D03*
D11*
X53000000Y-47000000D03*
D10*
X50460000Y-52080000D03*
D12*
X54270000Y-41920000D03*
X51730000Y-41920000D03*
D10*
X50460000Y-71080000D03*
D11*
X53000000Y-66000000D03*
D10*
X56810000Y-68540000D03*
D12*
X54270000Y-60920000D03*
X51730000Y-60920000D03*
D10*
X56810000Y-117540000D03*
D11*
X53000000Y-115000000D03*
D10*
X50460000Y-120080000D03*
D12*
X54270000Y-109920000D03*
X51730000Y-109920000D03*
D10*
X56810000Y-136540000D03*
D11*
X53000000Y-134000000D03*
D10*
X50460000Y-139080000D03*
D12*
X54270000Y-128920000D03*
X51730000Y-128920000D03*
D10*
X50460000Y-158080000D03*
X56810000Y-155540000D03*
D11*
X53000000Y-153000000D03*
D12*
X54270000Y-147920000D03*
X51730000Y-147920000D03*
D10*
X75810000Y-49540000D03*
X69460000Y-52080000D03*
D11*
X72000000Y-47000000D03*
D12*
X73270000Y-41920000D03*
X70730000Y-41920000D03*
D10*
X75810000Y-68540000D03*
X69460000Y-71080000D03*
D11*
X72000000Y-66000000D03*
D12*
X73270000Y-60920000D03*
X70730000Y-60920000D03*
D11*
X72000000Y-115000000D03*
D10*
X69460000Y-120080000D03*
X75810000Y-117540000D03*
D12*
X73270000Y-109920000D03*
X70730000Y-109920000D03*
D10*
X75810000Y-136540000D03*
X69460000Y-139080000D03*
D11*
X72000000Y-134000000D03*
D12*
X73270000Y-128920000D03*
X70730000Y-128920000D03*
D10*
X75810000Y-155540000D03*
D11*
X72000000Y-153000000D03*
D10*
X69460000Y-158080000D03*
D12*
X73270000Y-147920000D03*
X70730000Y-147920000D03*
D11*
X193750000Y-47000000D03*
D10*
X197560000Y-49540000D03*
X191210000Y-52080000D03*
D12*
X195020000Y-41920000D03*
X192480000Y-41920000D03*
D10*
X186460000Y-71080000D03*
X192810000Y-68540000D03*
D11*
X189000000Y-66000000D03*
D12*
X190270000Y-60920000D03*
X187730000Y-60920000D03*
D10*
X205460000Y-71080000D03*
X211810000Y-68540000D03*
D11*
X208000000Y-66000000D03*
D12*
X209270000Y-60920000D03*
X206730000Y-60920000D03*
D10*
X230810000Y-68540000D03*
X224460000Y-71080000D03*
D11*
X227000000Y-66000000D03*
D12*
X228270000Y-60920000D03*
X225730000Y-60920000D03*
D11*
X38750000Y-96000000D03*
D10*
X36210000Y-101080000D03*
X42560000Y-98540000D03*
D12*
X40020000Y-90920000D03*
X37480000Y-90920000D03*
D10*
X99460000Y-71080000D03*
D11*
X102000000Y-66000000D03*
D10*
X105810000Y-68540000D03*
D12*
X103270000Y-60920000D03*
X100730000Y-60920000D03*
D10*
X137460000Y-52080000D03*
D11*
X140000000Y-47000000D03*
D10*
X143810000Y-49540000D03*
D12*
X141270000Y-41920000D03*
X138730000Y-41920000D03*
D11*
X121000000Y-66000000D03*
D10*
X124810000Y-68540000D03*
X118460000Y-71080000D03*
D12*
X122270000Y-60920000D03*
X119730000Y-60920000D03*
D10*
X99460000Y-52080000D03*
D11*
X102000000Y-47000000D03*
D10*
X105810000Y-49540000D03*
D12*
X103270000Y-41920000D03*
X100730000Y-41920000D03*
D10*
X143810000Y-68540000D03*
X137460000Y-71080000D03*
D11*
X140000000Y-66000000D03*
D12*
X141270000Y-60920000D03*
X138730000Y-60920000D03*
D10*
X118460000Y-52080000D03*
D11*
X121000000Y-47000000D03*
D10*
X124810000Y-49540000D03*
D12*
X122270000Y-41920000D03*
X119730000Y-41920000D03*
D10*
X156460000Y-71080000D03*
X162810000Y-68540000D03*
D11*
X159000000Y-66000000D03*
D12*
X160270000Y-60920000D03*
X157730000Y-60920000D03*
D10*
X156460000Y-52080000D03*
X162810000Y-49540000D03*
D11*
X159000000Y-47000000D03*
D12*
X160270000Y-41920000D03*
X157730000Y-41920000D03*
D10*
X160510000Y-155540000D03*
D11*
X156700000Y-153000000D03*
D10*
X154160000Y-158080000D03*
D12*
X157970000Y-147920000D03*
X155430000Y-147920000D03*
D11*
X159000000Y-134000000D03*
D10*
X162810000Y-136540000D03*
X156460000Y-139080000D03*
D12*
X160270000Y-128920000D03*
X157730000Y-128920000D03*
D10*
X156460000Y-101080000D03*
X162810000Y-98540000D03*
D11*
X159000000Y-96000000D03*
D12*
X160270000Y-90920000D03*
X157730000Y-90920000D03*
D11*
X140000000Y-134000000D03*
D10*
X143810000Y-136540000D03*
X137460000Y-139080000D03*
D12*
X141270000Y-128920000D03*
X138730000Y-128920000D03*
D10*
X137460000Y-120080000D03*
D11*
X140000000Y-115000000D03*
D10*
X143810000Y-117540000D03*
D12*
X141270000Y-109920000D03*
X138730000Y-109920000D03*
D11*
X121000000Y-115000000D03*
D10*
X124810000Y-117540000D03*
X118460000Y-120080000D03*
D12*
X122270000Y-109920000D03*
X119730000Y-109920000D03*
D10*
X99460000Y-120080000D03*
D11*
X102000000Y-115000000D03*
D10*
X105810000Y-117540000D03*
D12*
X103270000Y-109920000D03*
X100730000Y-109920000D03*
D10*
X137460000Y-101080000D03*
D11*
X140000000Y-96000000D03*
D10*
X143810000Y-98540000D03*
D12*
X141270000Y-90920000D03*
X138730000Y-90920000D03*
D10*
X122410000Y-155540000D03*
D11*
X118600000Y-153000000D03*
D10*
X116060000Y-158080000D03*
D12*
X119870000Y-147920000D03*
X117330000Y-147920000D03*
D11*
X159000000Y-115000000D03*
D10*
X156460000Y-120080000D03*
X162810000Y-117540000D03*
D12*
X160270000Y-109920000D03*
X157730000Y-109920000D03*
D10*
X118460000Y-139080000D03*
X124810000Y-136540000D03*
D11*
X121000000Y-134000000D03*
D12*
X122270000Y-128920000D03*
X119730000Y-128920000D03*
D10*
X99460000Y-139080000D03*
X105810000Y-136540000D03*
D11*
X102000000Y-134000000D03*
D12*
X103270000Y-128920000D03*
X100730000Y-128920000D03*
D10*
X118460000Y-101080000D03*
X124810000Y-98540000D03*
D11*
X121000000Y-96000000D03*
D12*
X122270000Y-90920000D03*
X119730000Y-90920000D03*
D13*
X186000000Y-142700000D03*
X230000000Y-142700000D03*
X208000000Y-104600000D03*
X87000000Y-41000000D03*
X174000000Y-41000000D03*
X234000000Y-41000000D03*
X234000000Y-109000000D03*
X234000000Y-158000000D03*
X174000000Y-158000000D03*
X174000000Y-82000000D03*
X87000000Y-158000000D03*
X27000000Y-82000000D03*
X87000000Y-82000000D03*
D10*
X226060000Y-49540000D03*
D11*
X222250000Y-47000000D03*
D10*
X219710000Y-52080000D03*
D12*
X223520000Y-41920000D03*
X220980000Y-41920000D03*
D10*
X71110000Y-98540000D03*
X64760000Y-101080000D03*
D11*
X67300000Y-96000000D03*
D12*
X68570000Y-90920000D03*
X66030000Y-90920000D03*
D10*
X105810000Y-98540000D03*
D11*
X102000000Y-96000000D03*
D10*
X99460000Y-101080000D03*
D12*
X103270000Y-90920000D03*
X100730000Y-90920000D03*
D14*
X226920000Y-101500000D03*
D15*
X229460000Y-101500000D03*
X232000000Y-101500000D03*
X234540000Y-101500000D03*
D16*
X229050000Y-79380000D03*
X185870000Y-94620000D03*
X190950000Y-94620000D03*
X188410000Y-94620000D03*
X234130000Y-79380000D03*
X231590000Y-79380000D03*
X226510000Y-79380000D03*
X196030000Y-79380000D03*
X198570000Y-79380000D03*
X201110000Y-79380000D03*
X203650000Y-79380000D03*
X206190000Y-79380000D03*
X208730000Y-79380000D03*
X211270000Y-79380000D03*
X213810000Y-79380000D03*
X223970000Y-94620000D03*
X221430000Y-94620000D03*
X218890000Y-94620000D03*
X216350000Y-94620000D03*
X213810000Y-94620000D03*
X211270000Y-94620000D03*
X216350000Y-79380000D03*
X218890000Y-79380000D03*
X208730000Y-94620000D03*
X206190000Y-94620000D03*
X203650000Y-94620000D03*
X201110000Y-94620000D03*
X198570000Y-94620000D03*
X196030000Y-94620000D03*
X193490000Y-94620000D03*
X221430000Y-79380000D03*
X223970000Y-79380000D03*
X234130000Y-94620000D03*
X231590000Y-94620000D03*
X229050000Y-94620000D03*
X226510000Y-94620000D03*
X188410000Y-79380000D03*
X190950000Y-79380000D03*
X193490000Y-79380000D03*
X185870000Y-79380000D03*
D17*
X133890000Y-43250000D03*
X128110000Y-43250000D03*
D18*
X126680000Y-39560000D03*
X135320000Y-39560000D03*
D19*
X126680000Y-43730000D03*
X135320000Y-43730000D03*
M02*
