<?xml version="1.0" encoding="UTF-8" standalone="no"?>
<svg
   xmlns:dc="http://purl.org/dc/elements/1.1/"
   xmlns:cc="http://creativecommons.org/ns#"
   xmlns:rdf="http://www.w3.org/1999/02/22-rdf-syntax-ns#"
   xmlns:svg="http://www.w3.org/2000/svg"
   xmlns="http://www.w3.org/2000/svg"
   id="svg933"
   version="1.1"
   viewBox="0 0 210 297"
   height="297mm"
   width="210mm">
  <defs
     id="defs927" />
  <metadata
     id="metadata930">
    <rdf:RDF>
      <cc:Work
         rdf:about="">
        <dc:format>image/svg+xml</dc:format>
        <dc:type
           rdf:resource="http://purl.org/dc/dcmitype/StillImage" />
        <dc:title></dc:title>
      </cc:Work>
    </rdf:RDF>
  </metadata>
  <g
     id="layer1">
    <g
       id="g878"
       transform="translate(-9.652666,222.92304)">
      <circle
         r="20"
         cy="48.463871"
         cx="34.599094"
         id="path874"
         style="fill:#8dff8d;fill-opacity:1;stroke:none;stroke-width:0.499999;stroke-linecap:round;stroke-linejoin:round;stroke-opacity:0.905882" />
      <path
         id="path856-1"
         style="fill:#ffffff;fill-opacity:1;fill-rule:evenodd;stroke:#ffffff;stroke-width:0.365;stroke-linecap:round;stroke-linejoin:round;stroke-miterlimit:4;stroke-dasharray:none;stroke-opacity:1"
         d="m 44.058386,45.311948 1.732051,-1.000001 1.000001,1.732052 -1.732052,1 z m -2,-3.464102 1.732051,-1.000001 1.000001,1.732052 -1.732052,1.000001 z m -4.464101,0.26795 4.999999,8.660253 8.660255,-5 -5,-8.660254 z m -18.418586,14.098077 0.866026,-0.5 0.5,0.866025 0.866025,-0.5 -0.5,-0.866025 1.732051,-1 -1.000001,-1.732053 1.732051,-1 0.732052,-2.732049 12.124355,-7 6.000001,10.392304 -12.124356,7 -2.73205,-0.732048 -1.732051,1 -1.000001,-1.732053 -1.732051,1 -0.5,-0.866025 -0.866025,0.5 0.5,0.866025 -0.866026,0.5 -0.5,-0.866025 -1.73205,1 -1,-1.732051 1.73205,-1 z" />
    </g>
  </g>
</svg>
