<?xml version="1.0" encoding="UTF-8" standalone="no"?>
<svg
   xmlns:dc="http://purl.org/dc/elements/1.1/"
   xmlns:cc="http://creativecommons.org/ns#"
   xmlns:rdf="http://www.w3.org/1999/02/22-rdf-syntax-ns#"
   xmlns:svg="http://www.w3.org/2000/svg"
   xmlns="http://www.w3.org/2000/svg"
   xmlns:sodipodi="http://sodipodi.sourceforge.net/DTD/sodipodi-0.dtd"
   xmlns:inkscape="http://www.inkscape.org/namespaces/inkscape"
   width="210mm"
   height="297mm"
   viewBox="0 0 210 297"
   version="1.1"
   id="svg8"
   inkscape:version="1.0 (4035a4fb49, 2020-05-01)"
   sodipodi:docname="icons.svg">
  <defs
     id="defs2" />
  <sodipodi:namedview
     inkscape:snap-grids="true"
     inkscape:snap-global="true"
     id="base"
     pagecolor="#ffffff"
     bordercolor="#666666"
     borderopacity="1.0"
     inkscape:pageopacity="0.0"
     inkscape:pageshadow="2"
     inkscape:zoom="1.979899"
     inkscape:cx="615.79143"
     inkscape:cy="863.39464"
     inkscape:document-units="mm"
     inkscape:current-layer="layer1"
     inkscape:document-rotation="0"
     showgrid="true"
     inkscape:window-width="1375"
     inkscape:window-height="967"
     inkscape:window-x="51"
     inkscape:window-y="4"
     inkscape:window-maximized="0">
    <inkscape:grid
       type="xygrid"
       id="grid833"
       units="mm"
       spacingx="1"
       spacingy="1" />
  </sodipodi:namedview>
  <metadata
     id="metadata5">
    <rdf:RDF>
      <cc:Work
         rdf:about="">
        <dc:format>image/svg+xml</dc:format>
        <dc:type
           rdf:resource="http://purl.org/dc/dcmitype/StillImage" />
        <dc:title />
      </cc:Work>
    </rdf:RDF>
  </metadata>
  <g
     inkscape:label="Layer 1"
     inkscape:groupmode="layer"
     id="layer1">
    <path
       id="path856"
       style="fill:#999999;fill-rule:evenodd;stroke:#999999;stroke-width:0.264583px;stroke-linecap:butt;stroke-linejoin:miter;stroke-opacity:1"
       d="m 65,16.999999 h 2.000002 V 19 H 65 Z m 0,-4 h 2.000002 V 15 H 65 Z M 61.000001,11 v 9.999999 H 71.000002 V 11 Z m -23,3 h 1 v 1 h 1 v -1 h 2 v -2.000002 h 2 l 2,-1.999998 H 60 l 10e-7,12 h -14 l -2,-1.999998 h -2 V 18 h -2 v -1 h -1 v 1 h -1 v -1 h -2 v -2 h 2 z" />
    <g
       id="g878"
       transform="translate(-0.228259,8.857925)"
       inkscape:export-xdpi="20.320004"
       inkscape:export-ydpi="20.320004">
      <circle
         r="20"
         cy="48.463871"
         cx="34.599094"
         id="path874"
         style="fill:#8dff8d;fill-opacity:1;stroke:none;stroke-width:0.499999;stroke-linecap:round;stroke-linejoin:round;stroke-opacity:0.905882" />
      <path
         id="path856-1"
         style="fill:#ffffff;fill-opacity:1;fill-rule:evenodd;stroke:#ffffff;stroke-width:0.365;stroke-linecap:round;stroke-linejoin:round;stroke-miterlimit:4;stroke-dasharray:none;stroke-opacity:1"
         d="m 44.058386,45.311948 1.732051,-1.000001 1.000001,1.732052 -1.732052,1 z m -2,-3.464102 1.732051,-1.000001 1.000001,1.732052 -1.732052,1.000001 z m -4.464101,0.26795 4.999999,8.660253 8.660255,-5 -5,-8.660254 z m -18.418586,14.098077 0.866026,-0.5 0.5,0.866025 0.866025,-0.5 -0.5,-0.866025 1.732051,-1 -1.000001,-1.732053 1.732051,-1 0.732052,-2.732049 12.124355,-7 6.000001,10.392304 -12.124356,7 -2.73205,-0.732048 -1.732051,1 -1.000001,-1.732053 -1.732051,1 -0.5,-0.866025 -0.866025,0.5 0.5,0.866025 -0.866026,0.5 -0.5,-0.866025 -1.73205,1 -1,-1.732051 1.73205,-1 z" />
    </g>
    <g
       id="g925"
       transform="translate(8.428203,5.205768)"
       inkscape:export-xdpi="20.320004"
       inkscape:export-ydpi="20.320004">
      <circle
         style="fill:#ff8d8d;fill-opacity:1;stroke:none;stroke-width:0.499999;stroke-linecap:round;stroke-linejoin:round;stroke-opacity:0.905882"
         id="path874-9"
         cx="76.004807"
         cy="51.986866"
         r="20" />
      <path
         sodipodi:nodetypes="ccccccccccccccccccccccccccccccccccccccccccccccccc"
         d="m 78.437823,57.366026 4,6.928205 -0.866026,0.500001 -14.500001,-25.114738 0.866027,-0.5 4.500001,7.794229 5.19615,-3.000002 6.000001,10.392305 z m -6.928203,4 -2.732051,-0.732048 -1.73205,1 -1.000003,-1.732053 -1.732051,1 -0.499999,-0.866025 -0.866025,0.5 0.5,0.866025 -0.866025,0.5 -0.5,-0.866025 -1.732052,1 -1,-1.732052 1.732051,-1 -0.499999,-0.866025 0.866025,-0.499999 0.499999,0.866024 0.866026,-0.5 -0.499999,-0.866024 1.732051,-1 -1.000002,-1.732054 1.73205,-1 0.732054,-2.732049 4.330126,-2.499998 6,10.392304 z m 13.954481,-13.830127 1.732053,-1.000001 1.000001,1.732052 -1.732053,1 z m -2,-3.464103 1.732053,-1 1,1.732051 -1.732053,1.000001 z M 79,44.339746 84,53 l 8.660256,-5 -5,-8.660254 z"
         style="fill:#ffffff;fill-rule:evenodd;stroke:#ffffff;stroke-width:0.265;stroke-linecap:round;stroke-linejoin:round;stroke-miterlimit:4;stroke-dasharray:none;stroke-opacity:1"
         id="path895" />
    </g>
    <g
       transform="matrix(2.2802925,0,0,2.2802925,-34.368456,-108.6222)"
       id="g916">
      <g
         id="g905"
         transform="matrix(0.87639932,0,0,0.87639932,7.5675341,14.537561)">
        <path
           id="path900"
           transform="scale(0.26458333)"
           d="m 334.89844,386.12695 -23.42383,13.89258 c 4.6906,13.51259 7.29297,28.3704 7.29297,43.97461 h 30.59765 c 0,-20.92575 -5.23756,-40.6248 -14.46679,-57.86719 z"
           style="fill:none;stroke:#000000;stroke-width:1.08634;stroke-linecap:round;stroke-linejoin:round;stroke-opacity:0.905882" />
        <path
           id="path898"
           transform="scale(0.26458333)"
           d="m 296.04883,342.72266 -9.66406,15.50781 c 8.37598,8.73936 15.44985,19.2834 20.83398,31.13281 l 21.87695,-12.97656 c -8.74494,-13.23618 -19.984,-24.68088 -33.04687,-33.66406 z"
           style="fill:none;stroke:#000000;stroke-width:1.08634;stroke-linecap:round;stroke-linejoin:round;stroke-opacity:0.905882" />
        <path
           id="path852"
           transform="scale(0.26458333)"
           d="m 231.94727,321.2832 v 10.17578 c 16.96029,1.20066 32.6886,8.00734 45.9707,18.91797 l 8.50195,-13.64062 C 270.1801,327.65029 251.66839,322.13905 231.94727,321.2832 Z"
           style="fill:none;stroke:#000000;stroke-width:1.08634;stroke-linecap:round;stroke-linejoin:round;stroke-opacity:0.905882" />
      </g>
      <circle
         style="fill:none;stroke:#000000;stroke-width:0.3;stroke-linecap:round;stroke-linejoin:round;stroke-miterlimit:4;stroke-dasharray:none;stroke-opacity:0.905882"
         id="path909"
         cx="59.734737"
         cy="117.73222"
         r="32.740517" />
      <path
         id="path900-5"
         d="m 34.483684,104.30444 5.431533,3.22142 c -1.087659,3.1333 -1.691099,6.57854 -1.691099,10.19686 h -7.095003 c 0,-4.85228 1.214489,-9.42011 3.354569,-13.41828 z"
         style="fill:none;stroke:#000000;stroke-width:0.251901;stroke-linecap:round;stroke-linejoin:round;stroke-opacity:0.905882" />
      <path
         id="path898-5"
         d="m 43.492157,94.239821 2.240908,3.595961 c -1.942227,2.026489 -3.582521,4.471448 -4.830996,7.219098 l -5.072842,-3.00902 c 2.027783,-3.069209 4.633903,-5.723013 7.66293,-7.806039 z"
         style="fill:none;stroke:#000000;stroke-width:0.251901;stroke-linecap:round;stroke-linejoin:round;stroke-opacity:0.905882" />
      <path
         id="path852-8"
         d="m 58.356068,89.268425 v 2.359567 c -3.932763,0.27841 -7.579854,1.856747 -10.659716,4.386711 l -1.971437,-3.162996 c 3.7657,-2.106877 8.058207,-3.384827 12.631153,-3.583282 z"
         style="fill:none;stroke:#000000;stroke-width:0.251901;stroke-linecap:round;stroke-linejoin:round;stroke-opacity:0.905882" />
      <path
         id="path859"
         style="fill:#55ddff;fill-rule:evenodd;stroke:none;stroke-width:0.11603px;stroke-linecap:butt;stroke-linejoin:miter;stroke-opacity:1"
         d="m 32.61356,155.07756 v 6.5781 h 4.385402 v -6.5781 z m -10.963506,-2.1927 v 10.96351 h 17.54161 v -10.96351 z m -4.385403,-2.1927 v 26.31241 h 26.312416 v -21.92701 l -4.385403,-4.3854 z" />
      <path
         id="path870"
         style="fill:#55ddff;fill-rule:evenodd;stroke:none;stroke-width:0.11603px;stroke-linecap:butt;stroke-linejoin:miter;stroke-opacity:1;fill-opacity:1"
         d="m 67.696781,157.27027 h 2.1927 v 6.5781 h -2.1927 z m 8.770805,6.5781 h -4.385403 v -8.77081 h -2.192702 l 4.385403,-4.3854 4.385403,4.3854 h -2.192701 z m 2.192696,-10e-6 2e-6,-6.5781 10.963509,1e-5 v 17.54161 l -4.385405,-10.96351 z m -15.348906,2.19271 4.385405,10.9635 h 19.734308 l -4.385403,-10.9635 z" />
    </g>
    <path
       id="path874-6"
       style="fill:#8dff8d;fill-opacity:1;stroke:none;stroke-width:1.88976;stroke-linecap:round;stroke-linejoin:round;stroke-opacity:0.905882"
       d="M 510.24414 150.17578 A 75.590551 75.590551 0 0 0 434.6543 225.76758 A 75.590551 75.590551 0 0 0 510.24414 301.35742 A 75.590551 75.590551 0 0 0 585.83398 225.76758 A 75.590551 75.590551 0 0 0 510.24414 150.17578 z M 548.03125 188.97656 L 564.24219 217.05273 L 536.16406 233.26367 L 519.95508 205.18555 L 548.03125 188.97656 z M 540.04297 201.07617 L 534.42773 204.31836 L 537.66992 209.93359 L 543.28516 206.69141 L 540.04297 201.07617 z M 515.52539 204 L 534.97852 237.69141 L 495.66992 260.38672 L 486.81445 258.01172 L 481.19727 261.25391 L 477.95703 255.63867 L 472.3418 258.88086 L 470.7207 256.07422 L 467.91211 257.69531 L 469.5332 260.50195 L 466.72461 262.12305 L 465.10547 259.31641 L 459.48828 262.55859 L 456.24805 256.94141 L 461.86328 253.70117 L 460.24219 250.89258 L 463.04883 249.27148 L 464.66992 252.08008 L 467.47852 250.45898 L 465.85742 247.65039 L 471.47266 244.4082 L 468.23047 238.79297 L 473.8457 235.55078 L 476.21875 226.69336 L 515.52539 204 z M 546.52734 212.30664 L 540.91211 215.54883 L 544.1543 221.16406 L 549.76953 217.92188 L 546.52734 212.30664 z "
       transform="scale(0.26458333)" />
    <path
       id="path874-9-4"
       style="fill:#ff8d8d;fill-opacity:1;stroke:none;stroke-width:0.499999;stroke-linecap:round;stroke-linejoin:round;stroke-opacity:0.905882"
       d="m 185.09074,43.705269 a 20,20 0 0 0 -19.99981,20.00033 20,20 0 0 0 19.99981,19.999812 20,20 0 0 0 19.99981,-19.999812 20,20 0 0 0 -19.99981,-20.00033 z m -7.1143,8.705413 3.96875,6.874 4.58215,-2.645834 5.29115,9.164815 -4.58215,2.645315 3.52744,6.110221 L 190,75 177.21267,52.851999 Z m 17.39274,0.141592 4.40955,7.637261 -7.63726,4.409549 -4.40955,-7.637259 z m -2.17299,3.291274 -1.52704,0.881599 0.8816,1.527554 1.52755,-0.8816 z m 1.76371,3.054593 -1.52703,0.882116 0.8816,1.527556 1.52755,-0.882116 z m -15.30604,1.708939 5.29115,9.164814 -3.81837,2.205035 -2.40967,-0.645956 -1.52704,0.882118 -0.88212,-1.527556 -1.52755,0.882115 -0.4408,-0.763778 -0.76378,0.440802 0.4408,0.763778 -0.76378,0.440798 -0.4408,-0.763775 -1.52755,0.882115 -0.8816,-1.527556 1.52755,-0.882115 -0.44131,-0.763778 0.76377,-0.440801 0.44132,0.763778 0.76326,-0.440799 -0.4408,-0.763778 1.52755,-0.882118 -0.88211,-1.527037 1.52755,-0.882116 0.64596,-2.409156 z" />
    <path
       id="path1462"
       d="m 190,195 v 44.99999 L 210,220 v -5.00001 z"
       style="fill:#55ddff;fill-opacity:1;fill-rule:evenodd;stroke:#000000;stroke-width:0.264583px;stroke-linecap:butt;stroke-linejoin:miter;stroke-opacity:0" />
    <path
       style="fill:#55ddff;fill-opacity:1;fill-rule:evenodd;stroke:#000000;stroke-width:0.264583px;stroke-linecap:butt;stroke-linejoin:miter;stroke-opacity:0"
       d="m 185,195 v 44.99999 L 165,220 v -5.00001 z"
       id="path1462-4" />
  </g>
</svg>
